<svg xmlns="http://www.w3.org/2000/svg" width="674.397" height="516.949" viewBox="0 0 674.397 516.949">
  <g id="Group_111" data-name="Group 111" transform="translate(0 0)">
    <path id="Path_2335" data-name="Path 2335" d="M266.6,541.685c30.693,17.951,68.927,22.255,112.229,21.059-1.531-28.221,19.388-52.531,47.136-54.776s52.193,18.394,55.083,46.506c54.744-5.415,113.493-10.266,172.881-3.464,151.212,17.318,95.455-281.953-15.891-393.071S353.275,42.645,250.705,148.614,131.9,462.907,266.6,541.685Z" transform="translate(-122.108 -71.79)" fill="#f2f2f2"/>
    <ellipse id="Ellipse_444" data-name="Ellipse 444" cx="312.296" cy="48.864" rx="312.296" ry="48.864" transform="translate(49.806 419.221)" fill="#3f3d56"/>
    <path id="Path_2336" data-name="Path 2336" d="M585.544,546.833S529.68,540,522.95,552.3s-2.019,22.553,6.73,28.7,57.209,34.171,57.209,34.171l4.038,6.834,8.75-1.367,8.75-8.2-4.038-7.518s-33.653-20.5-34.326-25.97c0,0,30.96,14.352,34.326,11.618s41.056-15.719,35-23.236-21.538-18.452-21.538-18.452Z" transform="translate(-236.567 -221.582)" fill="#2f2e41"/>
    <path id="Path_2337" data-name="Path 2337" d="M585.544,546.833S529.68,540,522.95,552.3s-2.019,22.553,6.73,28.7,57.209,34.171,57.209,34.171l4.038,6.834,8.75-1.367,8.75-8.2-4.038-7.518s-33.653-20.5-34.326-25.97c0,0,30.96,14.352,34.326,11.618s41.056-15.719,35-23.236-21.538-18.452-21.538-18.452Z" transform="translate(-236.567 -221.582)" opacity="0.1"/>
    <path id="Path_2338" data-name="Path 2338" d="M620.673,642.05s-10.1-2.05-8.077,4.784,3.365,20.5,0,23.92-14.134,18.452-3.365,19.819,22.211-12.3,22.211-12.3,7.4-21.869,12.788-23.919S655,644.1,652.307,642.05s-18.845-15.035-20.192-14.352-.673,8.2-.673,8.2S626.058,644.783,620.673,642.05Z" transform="translate(-264.293 -247.774)" fill="#2f2e41"/>
    <rect id="Rectangle_80" data-name="Rectangle 80" width="89.516" height="74.492" transform="translate(354.025 368.648)" fill="#6c63ff"/>
    <path id="Path_2339" data-name="Path 2339" d="M0,370.4v16.629l80.959,98.2H94.668Z" transform="translate(0 -117.263)" fill="#6c63ff"/>
    <path id="Path_2340" data-name="Path 2340" d="M0,184.9v16.628L185.473,426.5h13.709Z" transform="translate(0 -58.538)" fill="#6c63ff"/>
    <path id="Path_2341" data-name="Path 2341" d="M433.834,698.4l14.39,7.938,256.625-52.63,6.545-12.231Z" transform="translate(-141.842 -203.081)" fill="#6c63ff"/>
    <path id="Path_2342" data-name="Path 2342" d="M0,246.736v16.628L150.635,446.078h13.709Z" transform="translate(0 -78.113)" fill="#6c63ff"/>
    <path id="Path_2343" data-name="Path 2343" d="M379.635,168.315V152.421h-13.1Z" transform="translate(-119.837 -48.254)" fill="#6c63ff"/>
    <path id="Path_2344" data-name="Path 2344" d="M0,494.065v16.628l11.283,13.685H24.992Z" transform="translate(0 -156.414)" fill="#6c63ff"/>
    <path id="Path_2345" data-name="Path 2345" d="M220.751,684.152l14.92,6.855L304.879,671.4l5.651-12.683Z" transform="translate(-72.174 -208.541)" fill="#6c63ff"/>
    <path id="Path_2346" data-name="Path 2346" d="M0,463.149v16.628l28.7,34.814H42.411Z" transform="translate(0 -146.626)" fill="#6c63ff"/>
    <path id="Path_2347" data-name="Path 2347" d="M0,401.316v16.629l63.54,77.071H77.249Z" transform="translate(0 -127.051)" fill="#6c63ff"/>
    <path id="Path_2348" data-name="Path 2348" d="M0,277.652V294.28L133.216,455.865h13.709Z" transform="translate(0 -87.901)" fill="#6c63ff"/>
    <path id="Path_2349" data-name="Path 2349" d="M224.955,152.421H211.246L328.864,295.086V278.458Z" transform="translate(-69.067 -48.254)" fill="#6c63ff"/>
    <path id="Path_2350" data-name="Path 2350" d="M276.717,152.421H263.008l82.78,100.409V236.2Z" transform="translate(-85.99 -48.254)" fill="#6c63ff"/>
    <path id="Path_2351" data-name="Path 2351" d="M328.478,152.421H314.769l47.942,58.151V193.944Z" transform="translate(-102.913 -48.254)" fill="#6c63ff"/>
    <path id="Path_2352" data-name="Path 2352" d="M17.91,152.421H4.2l217.484,263.8h13.709Z" transform="translate(-1.374 -48.254)" fill="#6c63ff"/>
    <path id="Path_2353" data-name="Path 2353" d="M43.79,152.421H30.081l217.484,263.8h13.709Z" transform="translate(-9.835 -48.254)" fill="#6c63ff"/>
    <path id="Path_2354" data-name="Path 2354" d="M95.552,152.421H81.843L286.556,400.729V384.1Z" transform="translate(-26.758 -48.254)" fill="#6c63ff"/>
    <path id="Path_2355" data-name="Path 2355" d="M147.313,152.421H133.6L303.479,358.472V341.844Z" transform="translate(-43.682 -48.254)" fill="#6c63ff"/>
    <path id="Path_2356" data-name="Path 2356" d="M173.194,152.421H159.485L311.941,337.343V320.715Z" transform="translate(-52.143 -48.254)" fill="#6c63ff"/>
    <path id="Path_2357" data-name="Path 2357" d="M633.867,347.265s.779,2.635-3.634,5.007-5.71,11.332-.519,13.967,6.748,6.061,4.153,8.433-7.267,8.7-1.038,10.278,7.008,4.744,5.191,6.061,4.153-2.372,4.153-2.372,1.038,6.325,6.488,4.744,20.763-31.624,12.977-35.841S633.867,347.265,633.867,347.265Z" transform="translate(-271.414 -159.001)" fill="#2f2e41"/>
    <path id="Path_2358" data-name="Path 2358" d="M597.947,416.522l-24.9,17.769S554.2,414.472,554.2,402.854s-10.1-33.487-14.807-24.6,5.384,30.07,5.384,30.07l18.845,45.105s10.769,2.05,16.826-2.734,22.884-14.352,22.884-14.352Z" transform="translate(-242.576 -168.155)" fill="#ffb9b9"/>
    <ellipse id="Ellipse_445" data-name="Ellipse 445" cx="18.845" cy="19.136" rx="18.845" ry="19.136" transform="translate(361.092 180.368)" fill="#ffb9b9"/>
    <path id="Path_2359" data-name="Path 2359" d="M639.192,381.944s6.731,17.769,4.038,21.869-6.057,4.1-8.75,5.467c-1.346.683-15.48,6.151-15.48,10.251a16.5,16.5,0,0,0,2.019,7.518l2.019,11.618L639.865,449.6l22.211-2.734L678.9,437.3s2.692-25.286-4.711-29.387-16.153-13.668-15.48-17.085,1.346-11.618,1.346-11.618Z" transform="translate(-269.013 -169.114)" fill="#ffb9b9"/>
    <path id="Path_2360" data-name="Path 2360" d="M607,442.044s10.1,10.251,10.1,11.618-6.731,7.518-2.019,15.719,4.711,28.7,4.711,28.7l16.153,3.417,30.287-2.734,4.711-47.156s-12.115,2.05-14.807,4.1-10.1-2.734-15.48-2.734-20.865-2.734-20.865-2.734l1.346-5.467-5.384-9.568Z" transform="translate(-265.09 -186.843)" fill="#ff6584"/>
    <path id="Path_2361" data-name="Path 2361" d="M603.5,551.71" transform="translate(-263.946 -223.725)" fill="none" stroke="#ffb9b9" stroke-miterlimit="10" stroke-width="1"/>
    <path id="Path_2362" data-name="Path 2362" d="M620.452,543.561s-67.978-30.754-73.363-10.935-6.057,67.658-6.057,67.658-3.365,32.8-7.4,36.221,0,13.668,0,13.668l10.1,3.417,9.423-4.1,4.038-10.935s1.346-24.6,6.73-36.9,5.384-41,4.711-42.372c0,0,26.249,32.8,51.825,30.754s29.278-7.859,29.278-7.859S637.278,543.561,620.452,543.561Z" transform="translate(-240.514 -215.577)" fill="#2f2e41"/>
    <path id="Path_2363" data-name="Path 2363" d="M516.917,690.425s-2.692-9.568-8.75-2.05-33.653,19.136-34.326,20.5-12.788,8.884,1.346,19.136,32.979,0,32.979,0,16.153-5.467,20.192-4.784,12.115-3.417,12.788-6.834-.917-33.457-4.5-30.4-7.618,11.261-7.618,11.261S515.571,700.677,516.917,690.425Z" transform="translate(-219.765 -266.079)" fill="#2f2e41"/>
    <path id="Path_2364" data-name="Path 2364" d="M627.989,521.3s-3.7-.342-3.029,8.543c0,0,23.22,7.176,27.259,13.327s21.538,24.6,24.23,37.588c0,0,19.518-4.784,8.75-38.955l-12.661-27.873S665.007,529.5,627.989,521.3Z" transform="translate(-270.935 -211.763)" fill="#2f2e41"/>
    <path id="Path_2365" data-name="Path 2365" d="M643.483,508.554l22.858-10.118s10.769-22.553,10.769-33.487a171.062,171.062,0,0,1,1.43-18.809,24.487,24.487,0,0,0-7.785-21.284c-2.377-2.111-5.045-3.646-7.78-3.646,0,0-8.077,15.035-6.731,28.7s-2.019,34.171-2.019,34.171l-30.413,16.528" transform="translate(-270.587 -182.411)" fill="#ffb9b9"/>
    <path id="Path_2366" data-name="Path 2366" d="M643.483,522.283l22.858-10.118s10.769-22.553,10.769-33.487c0-5.7-23.557-22.553-22.211-8.884a136.027,136.027,0,0,1-.673,28.02l-30.413,16.528" transform="translate(-270.587 -196.14)" opacity="0.1"/>
    <path id="Path_2367" data-name="Path 2367" d="M669,466.734l2.146,9.226,11.988,5.809h10.1l4.711-21.869s-8.318-1.786-12.572.474-14.243,2.8-14.243,2.8Z" transform="translate(-285.361 -194.447)" fill="#ff6584"/>
    <path id="Path_2368" data-name="Path 2368" d="M659.679,335.608s.863,2.919-4.025,5.547-6.325,12.554-.575,15.473,7.475,6.715,4.6,9.342-8.051,9.634-1.15,11.386,7.763,5.255,5.75,6.715,4.6-2.628,4.6-2.628,1.15,7.007,7.188,5.255S688.13,353.1,681.4,344.9C675.141,337.279,659.679,335.608,659.679,335.608Z" transform="translate(-279.587 -155.311)" fill="#2f2e41"/>
    <path id="Path_2369" data-name="Path 2369" d="M661,330.444c0-4.277,26.182.418,31.585,6.39,3.742,4.135,9.425,10.357,4.662,14.743s-5.416,8.513-1.949,10.256,10.311,7.073,4.131,10.649-6.08,7.186-3.754,8.04-5.128-1.271-5.128-1.271.753,7.062-5.526,7.028S660.726,351.2,665.03,341.465C669.031,332.409,661,330.444,661,330.444Z" transform="translate(-282.745 -153.152)" fill="#2f2e41"/>
    <path id="Path_2370" data-name="Path 2370" d="M656.048,329.812c-16.852-1.03-18.544,11.85-18.544,11.85.117,7.454,11.774,3.822,15.012,4.933,3.906-2.853,11.436-8.252,16.821-12.105a25.22,25.22,0,0,0-13.29-4.678Z" transform="translate(-275.063 -153.457)" fill="#2f2e41"/>
    <path id="Path_2371" data-name="Path 2371" d="M361.6,224.421H347.888l65.361,79.28V287.072Z" transform="translate(-113.742 -71.048)" fill="#6c63ff"/>
    <path id="Path_2372" data-name="Path 2372" d="M481.254,670.961,471.761,681l209.887,14.487-11.815-11.514Z" transform="translate(-154.242 -212.416)" fill="#6c63ff"/>
    <path id="Path_2373" data-name="Path 2373" d="M868.632,638.661c0,20-11.71,26.989-26.158,26.989-.335,0-.669,0-1-.012-.669-.015-1.334-.046-1.989-.093-13.039-.936-23.168-8.28-23.168-26.884,0-19.249,24.225-43.542,26.05-45.343l0,0c.07-.071.106-.105.106-.105S868.632,618.659,868.632,638.661Z" transform="translate(-333.525 -236.864)" fill="#6c63ff"/>
    <path id="Path_2374" data-name="Path 2374" d="M848.657,662.59l9.568-13.573-9.592,15.064-.024,1.557c-.669-.015-1.334-.046-1.989-.093l1.03-20.012-.007-.156.017-.027.1-1.892-9.616-15.1,9.645,13.683.024.4.778-15.12-8.231-15.6,8.333,12.952.811-31.35,0-.108v.105l-.135,24.72,8.2-9.8-8.229,11.93-.217,13.538,7.654-12.993L849.087,635.7l-.12,7.527,11.106-18.085-11.149,20.711Z" transform="translate(-340.662 -236.864)" fill="#3f3d56"/>
  </g>
</svg>
