<svg xmlns="http://www.w3.org/2000/svg" xmlns:xlink="http://www.w3.org/1999/xlink" width="708" height="540" viewBox="0 0 708 540">
  <defs>
    <linearGradient id="linear-gradient" x1="-0.379" y1="0.5" x2="0.621" y2="0.5" gradientUnits="objectBoundingBox">
      <stop offset="0" stop-color="gray" stop-opacity="0.251"/>
      <stop offset="0.54" stop-color="gray" stop-opacity="0.122"/>
      <stop offset="1" stop-color="gray" stop-opacity="0.102"/>
    </linearGradient>
    <clipPath id="clip-Culture_Illustration">
      <rect width="708" height="540"/>
    </clipPath>
  </defs>
  <g id="Culture_Illustration" data-name="Culture Illustration" clip-path="url(#clip-Culture_Illustration)">
    <rect width="708" height="540" fill="#fff"/>
    <g id="Group_56" data-name="Group 56" transform="translate(22.99 31)">
      <path id="Path_701" data-name="Path 701" d="M704.7,271.324c-4.032,17.209-24.732,25.834-36.33,38.672-21.855,24.2-13.344,59.53.522,87.828,4.641,9.475,9.909,19.507,7.942,29.667-2.4,12.428-15.131,21.512-28.5,26.33-24.367,8.772-53.549,6.682-75.949-5.453-19.354-10.484-33.22-27.509-52.905-37.547-32.947-16.744-74.882-10.392-110.66,1.119-25.307,8.161-52.98,18.78-78.131,10.258-17.7-6-29.931-20.614-36.6-36.068-3.214-7.476-5.552-15.57-11.7-21.494-3.655-3.527-8.424-6.028-13.3-8.131-44.6-19.257-100.948-8.944-144.246-30.3-29.252-14.421-47.985-41.625-56.276-70s-7.327-58.118-5.221-87.339c1.5-20.785,4.183-42.927,19.418-58.956,16.117-16.952,43.773-23.23,68.778-20.033s47.66,14.708,67.6,28.231c24.947,16.909,48.026,37.957,78.618,44.8,20.834,4.664,42.746,2.109,64.236,1.223,35.924-1.473,71.859,1.834,107.58,5.4,17.4,1.754,34.868,3.595,52.122,6.26q5.8.893,11.6,1.926c1.938.348,3.875.709,5.8,1.082,1.508.287,3.011.611,4.514.9q3.556.727,7.09,1.528,10.147,2.292,20.1,5.227c23.056,6.853,41.54,19.3,63.313,27.992,14.191,5.667,29.664,7.232,43.1,14.445C693.748,237.757,708.937,253.229,704.7,271.324Z" transform="translate(-42.731 -70.965)" fill="#6c63ff" opacity="0.1"/>
      <ellipse id="Ellipse_162" data-name="Ellipse 162" cx="59.31" cy="62.495" rx="59.31" ry="62.495" transform="translate(486.019 167.067)" fill="#6c63ff"/>
      <ellipse id="Ellipse_163" data-name="Ellipse 163" cx="59.31" cy="62.495" rx="59.31" ry="62.495" transform="translate(422.943 149.993)" fill="#6c63ff"/>
      <ellipse id="Ellipse_164" data-name="Ellipse 164" cx="59.31" cy="62.495" rx="59.31" ry="62.495" transform="translate(353.509 150.604)" fill="#6c63ff"/>
      <ellipse id="Ellipse_165" data-name="Ellipse 165" cx="59.31" cy="62.495" rx="59.31" ry="62.495" transform="translate(330.941 167.067)" fill="#6c63ff"/>
      <ellipse id="Ellipse_166" data-name="Ellipse 166" cx="59.31" cy="62.495" rx="59.31" ry="62.495" transform="translate(292.749 172.557)" fill="#6c63ff"/>
      <ellipse id="Ellipse_167" data-name="Ellipse 167" cx="59.31" cy="62.495" rx="59.31" ry="62.495" transform="translate(277.125 123.168)" fill="#6c63ff"/>
      <ellipse id="Ellipse_168" data-name="Ellipse 168" cx="59.31" cy="62.495" rx="59.31" ry="62.495" transform="translate(294.484 65.851)" fill="#6c63ff"/>
      <ellipse id="Ellipse_169" data-name="Ellipse 169" cx="59.31" cy="62.495" rx="59.31" ry="62.495" transform="translate(327.466 65.851)" fill="#6c63ff"/>
      <ellipse id="Ellipse_170" data-name="Ellipse 170" cx="59.31" cy="62.495" rx="59.31" ry="62.495" transform="translate(346.565 40.243)" fill="#6c63ff"/>
      <ellipse id="Ellipse_171" data-name="Ellipse 171" cx="59.31" cy="62.495" rx="59.31" ry="62.495" transform="translate(395.171 68.29)" fill="#6c63ff"/>
      <ellipse id="Ellipse_172" data-name="Ellipse 172" cx="59.31" cy="62.495" rx="59.31" ry="62.495" transform="translate(508.587 123.168)" fill="#6c63ff"/>
      <ellipse id="Ellipse_173" data-name="Ellipse 173" cx="59.31" cy="62.495" rx="59.31" ry="62.495" transform="translate(474.445 92.071)" fill="#6c63ff"/>
      <ellipse id="Ellipse_174" data-name="Ellipse 174" cx="59.31" cy="62.495" rx="59.31" ry="62.495" transform="translate(452.456 60.973)" fill="#6c63ff"/>
      <ellipse id="Ellipse_175" data-name="Ellipse 175" cx="59.31" cy="62.495" rx="59.31" ry="62.495" transform="translate(410.795 14.024)" fill="#6c63ff"/>
      <ellipse id="Ellipse_176" data-name="Ellipse 176" cx="59.31" cy="62.495" rx="59.31" ry="62.495" transform="translate(488.334 65.851)" fill="#6c63ff"/>
      <g id="Group_53" data-name="Group 53" transform="translate(277.125 14.024)" opacity="0.1">
        <ellipse id="Ellipse_177" data-name="Ellipse 177" cx="59.31" cy="62.495" rx="59.31" ry="62.495" transform="translate(208.894 153.043)"/>
        <ellipse id="Ellipse_178" data-name="Ellipse 178" cx="59.31" cy="62.495" rx="59.31" ry="62.495" transform="translate(145.818 135.969)"/>
        <ellipse id="Ellipse_179" data-name="Ellipse 179" cx="59.31" cy="62.495" rx="59.31" ry="62.495" transform="translate(76.384 136.581)"/>
        <ellipse id="Ellipse_180" data-name="Ellipse 180" cx="59.31" cy="62.495" rx="59.31" ry="62.495" transform="translate(53.816 153.043)"/>
        <ellipse id="Ellipse_181" data-name="Ellipse 181" cx="59.31" cy="62.495" rx="59.31" ry="62.495" transform="translate(15.624 158.533)"/>
        <ellipse id="Ellipse_182" data-name="Ellipse 182" cx="59.31" cy="62.495" rx="59.31" ry="62.495" transform="translate(0 109.145)"/>
        <ellipse id="Ellipse_183" data-name="Ellipse 183" cx="59.31" cy="62.495" rx="59.31" ry="62.495" transform="translate(17.358 51.828)"/>
        <ellipse id="Ellipse_184" data-name="Ellipse 184" cx="59.31" cy="62.495" rx="59.31" ry="62.495" transform="translate(50.341 51.828)"/>
        <ellipse id="Ellipse_185" data-name="Ellipse 185" cx="59.31" cy="62.495" rx="59.31" ry="62.495" transform="translate(69.44 26.219)"/>
        <ellipse id="Ellipse_186" data-name="Ellipse 186" cx="59.31" cy="62.495" rx="59.31" ry="62.495" transform="translate(118.046 54.267)"/>
        <ellipse id="Ellipse_187" data-name="Ellipse 187" cx="59.31" cy="62.495" rx="59.31" ry="62.495" transform="translate(231.462 109.145)"/>
        <ellipse id="Ellipse_188" data-name="Ellipse 188" cx="59.31" cy="62.495" rx="59.31" ry="62.495" transform="translate(197.319 78.047)"/>
        <ellipse id="Ellipse_189" data-name="Ellipse 189" cx="59.31" cy="62.495" rx="59.31" ry="62.495" transform="translate(175.331 46.949)"/>
        <ellipse id="Ellipse_190" data-name="Ellipse 190" cx="59.31" cy="62.495" rx="59.31" ry="62.495" transform="translate(133.67)"/>
        <ellipse id="Ellipse_191" data-name="Ellipse 191" cx="59.31" cy="62.495" rx="59.31" ry="62.495" transform="translate(211.209 51.828)"/>
      </g>
      <path id="Path_702" data-name="Path 702" d="M904.532,560.128s36.26-32.112,18.322-77.839l-17.939-7.079L885.45,538.353Z" transform="translate(-388.495 -221.048)" fill="#67647e"/>
      <path id="Path_703" data-name="Path 703" d="M907.58,471.65l4.293,1.693-19.111,61.994,16.674,19.024c-1.381,1.449-2.239,2.207-2.239,2.207L888.11,534.793Z" transform="translate(-389.612 -219.665)" opacity="0.1"/>
      <ellipse id="Ellipse_192" data-name="Ellipse 192" cx="322.861" cy="56.95" rx="322.861" ry="56.95" transform="translate(13.348 363.6)" fill="#3f3d56"/>
      <path id="Path_704" data-name="Path 704" d="M1024.746,603.1s-11.795,12.428-5.134,30.872-11.412,49.107-11.412,49.107l.58-.1c24.222-4.505,36.26-33.7,22.789-55.385C1026.533,619.544,1022.42,610.081,1024.746,603.1Z" transform="translate(-440.03 -270.757)" fill="#6c63ff"/>
      <path id="Path_705" data-name="Path 705" d="M1024.742,603.1s-6.66,15.234,0,27.662,1.16,47.3-16.552,52.317" transform="translate(-440.026 -270.757)" fill="none" stroke="#535461" stroke-miterlimit="10" stroke-width="1"/>
      <path id="Path_706" data-name="Path 706" d="M1043.571,685.232s-13.46-2.256-14.684,10.454S1003,710.155,1003,710.155l.464.324c20.358,14.06,39.817,8.968,36.881-9.726C1039.26,693.8,1039.347,686.821,1043.571,685.232Z" transform="translate(-437.847 -302.62)" fill="#6c63ff"/>
      <path id="Path_707" data-name="Path 707" d="M1043.571,685.232s-13.46-2.256-14.684,10.454S1003,710.155,1003,710.155l.464.324c20.358,14.06,39.817,8.968,36.881-9.726C1039.26,693.8,1039.347,686.821,1043.571,685.232Z" transform="translate(-437.847 -302.62)" fill="#f5f5f5" opacity="0.2"/>
      <path id="Path_708" data-name="Path 708" d="M1043.575,685.33s-10.443,2.445-9.59,12.428-15.514,22.007-30.975,12.5" transform="translate(-437.851 -302.718)" fill="none" stroke="#535461" stroke-miterlimit="10" stroke-width="1"/>
      <path id="Path_709" data-name="Path 709" d="M636.08,467.455l4.711,19.868s33.284,4.573,55.475,1.7a27.923,27.923,0,0,0,11.064-4.206c1.874-1.168,4.833-1.675,8.876,1.516,6.927,5.5,40.925,49.517,35.419,95.182a15.4,15.4,0,0,1-12.862,13.6h0a43.8,43.8,0,0,0-18.954,7.556l-16.825,11.8L875.5,610.5l-17.91-22.845s-12.253-10.924-21.681-11.921c-2.75-.287-5.018-2.947-6.852-6.559a435.649,435.649,0,0,0-37.507-60.117c-10.141-13.852-18.652-28.451-17.858-37.621,1.885-21.855,0-57.611,0-57.611L737.87,408.86s4.711,47.683-38.651,59.6S636.08,467.455,636.08,467.455Z" transform="translate(-283.801 -195.259)" fill="#67647e"/>
      <g id="Group_54" data-name="Group 54" transform="translate(352.274 213.613)" opacity="0.1">
        <path id="Path_710" data-name="Path 710" d="M665.3,476.406s19.8,12.911,63.162.99,38.651-59.6,38.651-59.6l6.817.935c-.128-3.057-.226-4.891-.226-4.891l-35.819-4.964s4.711,47.683-38.651,59.6-63.162-.99-63.162-.99l4.711,19.868s12.717,1.748,27.674,2.4Z" transform="translate(-636.07 -408.88)"/>
        <path id="Path_711" data-name="Path 711" d="M797.452,665.009a43.8,43.8,0,0,1,18.954-7.556h0a15.376,15.376,0,0,0,12.856-13.541c5.535-45.666-28.48-89.76-35.39-95.237-7.542-5.96-11.313.99-11.313.99a57.922,57.922,0,0,1-8.122,1.632c12.218,17.117,29.7,49.951,25.608,83.671a15.376,15.376,0,0,1-12.856,13.541h0a43.8,43.8,0,0,0-18.954,7.556l-16.825,11.8,43.373-1Z" transform="translate(-684.494 -462.277)"/>
      </g>
      <path id="Path_712" data-name="Path 712" d="M684.813,636.2s-3.6-12.886.673-22.374a21.346,21.346,0,0,0,1.561-12.77,35.619,35.619,0,0,0-1.74-6" transform="translate(-303.665 -267.632)" fill="none" stroke="#535461" stroke-miterlimit="10" stroke-width="2"/>
      <path id="Path_713" data-name="Path 713" d="M687.413,583.431c0,1.577-2.715,6.162-2.715,6.162s-2.7-4.585-2.7-6.162a2.719,2.719,0,1,1,5.43,0Z" transform="translate(-303.079 -262)" fill="#6c63ff"/>
      <path id="Path_714" data-name="Path 714" d="M695.124,596.71c-.812,1.327-5.454,3.619-5.454,3.619s.087-5.4.9-6.724A2.683,2.683,0,0,1,693,592.229a2.711,2.711,0,0,1,2.318,1.583,2.992,2.992,0,0,1-.2,2.9Z" transform="translate(-306.3 -266.531)" fill="#6c63ff"/>
      <path id="Path_715" data-name="Path 715" d="M694.07,620.56c-1.34.709-6.44.22-6.44.22s2.657-4.615,4-5.325a2.652,2.652,0,0,1,3.646,1.268,2.935,2.935,0,0,1-1.2,3.842Z" transform="translate(-305.443 -275.44)" fill="#6c63ff"/>
      <path id="Path_716" data-name="Path 716" d="M689.742,639.233c-1.207.941-6.312,1.363-6.312,1.363s1.88-5.025,3.086-5.96a2.626,2.626,0,0,1,3.707.667,2.967,2.967,0,0,1-.481,3.93Z" transform="translate(-303.68 -282.823)" fill="#6c63ff"/>
      <path id="Path_717" data-name="Path 717" d="M679.272,602.914c1.073,1.1,6.086,2.244,6.086,2.244s-1.224-5.245-2.321-6.345a2.617,2.617,0,0,0-3.782.115,2.972,2.972,0,0,0,0,3.987Z" transform="translate(-301.605 -268.798)" fill="#6c63ff"/>
      <path id="Path_718" data-name="Path 718" d="M673.859,624.18c1.34.709,6.44.22,6.44.22s-2.657-4.615-4-5.325a2.652,2.652,0,0,0-3.646,1.268,2.935,2.935,0,0,0,1.2,3.842Z" transform="translate(-299.034 -276.847)" fill="#6c63ff"/>
      <path id="Path_719" data-name="Path 719" d="M672.326,646.073c1.207.941,6.312,1.363,6.312,1.363s-1.88-5.025-3.086-5.96a2.626,2.626,0,0,0-3.707.667,2.967,2.967,0,0,0,.481,3.93Z" transform="translate(-298.593 -285.481)" fill="#6c63ff"/>
      <path id="Path_720" data-name="Path 720" d="M672.33,655.966s6.585-1.388,8.337-3.24,9.654-5.086,10.536-2.775,11.853,10.172,4.386,11.56-17.556,1.834-19.726.923S672.33,655.966,672.33,655.966Z" transform="translate(-299.02 -288.655)" fill="#a8a8a8"/>
      <path id="Path_721" data-name="Path 721" d="M695.616,664.988c-7.461,1.388-17.556,1.834-19.726.923-1.671-.7-2.831-4.09-3.289-5.661l-.221.049s1.317,5.551,3.51,6.474,12.288.465,19.726-.923c2.152-.4,2.767-1.339,2.535-2.531C697.965,664.077,697.217,664.676,695.616,664.988Z" transform="translate(-299.041 -292.97)" opacity="0.2"/>
      <path id="Path_722" data-name="Path 722" d="M860.5,718.313s19.975-4.212,25.307-9.824,29.3-15.436,31.961-8.418,35.97,30.872,13.344,35.083-53.271,5.612-59.931,2.806S860.5,718.313,860.5,718.313Z" transform="translate(-378.02 -307.502)" fill="#a8a8a8"/>
      <path id="Path_723" data-name="Path 723" d="M931.089,745.6c-22.626,4.212-53.271,5.612-59.931,2.806-5.071-2.14-8.6-12.41-9.99-17.184l-.667.147s4,16.842,10.652,19.648,37.293,1.406,59.931-2.806c6.538-1.223,8.406-4.071,7.7-7.678C938.23,742.884,935.95,744.7,931.089,745.6Z" transform="translate(-378.02 -320.555)" opacity="0.2"/>
      <path id="Path_724" data-name="Path 724" d="M1090.4,531.334a13.837,13.837,0,0,1-2.152,7.036,13.831,13.831,0,0,1-2.187-7.024c0-3.882.951-7.03,2.152-7.036S1090.388,527.452,1090.4,531.334Z" transform="translate(-472.719 -240.133)" fill="#6c63ff"/>
      <path id="Path_725" data-name="Path 725" d="M808.11,525.75a13.833,13.833,0,0,1-2.17,7.03,13.833,13.833,0,0,1-2.17-7.03c0-3.882.969-7.03,2.17-7.03S808.11,521.868,808.11,525.75Z" transform="translate(-354.203 -237.96)" fill="#6c63ff"/>
      <path id="Path_726" data-name="Path 726" d="M1114.528,640.68a13.833,13.833,0,0,1,2.17,7.03,12.713,12.713,0,0,1-5.68-4.34c-2.17-3.142-3.139-6.29-2.17-7.03S1112.364,637.544,1114.528,640.68Z" transform="translate(-482.128 -283.616)" fill="#6c63ff"/>
      <path id="Path_727" data-name="Path 727" d="M996.31,578.86a13.833,13.833,0,0,1-2.17,7.03,13.833,13.833,0,0,1-2.17-7.03c0-3.882.969-7.03,2.17-7.03S996.31,574.99,996.31,578.86Z" transform="translate(-433.216 -258.603)" fill="#6c63ff"/>
      <path id="Path_728" data-name="Path 728" d="M926.43,540.66a13.833,13.833,0,0,1-2.17,7.03,13.835,13.835,0,0,1-2.17-7.03c0-3.882.969-7.03,2.17-7.03S926.43,536.778,926.43,540.66Z" transform="translate(-403.878 -243.755)" fill="#6c63ff"/>
      <path id="Path_729" data-name="Path 729" d="M882.081,565.2a13.942,13.942,0,0,1,1.433,7.238,12.918,12.918,0,0,1-5.221-4.964c-1.833-3.368-2.471-6.608-1.433-7.238S880.254,561.828,882.081,565.2Z" transform="translate(-384.68 -254.053)" fill="#6c63ff"/>
      <path id="Path_730" data-name="Path 730" d="M849.233,669.766a12.39,12.39,0,0,1-6.353,3.142,13.556,13.556,0,0,1,3.382-6.474c2.686-2.653,5.535-4.059,6.353-3.142S851.919,667.112,849.233,669.766Z" transform="translate(-370.623 -294.043)" fill="#6c63ff"/>
      <path id="Path_731" data-name="Path 731" d="M849.233,669.766a12.39,12.39,0,0,1-6.353,3.142,13.556,13.556,0,0,1,3.382-6.474c2.686-2.653,5.535-4.059,6.353-3.142S851.919,667.112,849.233,669.766Z" transform="translate(-370.623 -294.043)" opacity="0.1"/>
      <path id="Path_732" data-name="Path 732" d="M917.243,663.246a12.39,12.39,0,0,1-6.353,3.142,13.555,13.555,0,0,1,3.382-6.474c2.686-2.653,5.535-4.059,6.353-3.142S919.929,660.586,917.243,663.246Z" transform="translate(-399.176 -291.509)" fill="#6c63ff"/>
      <path id="Path_733" data-name="Path 733" d="M917.243,663.246a12.39,12.39,0,0,1-6.353,3.142,13.555,13.555,0,0,1,3.382-6.474c2.686-2.653,5.535-4.059,6.353-3.142S919.929,660.586,917.243,663.246Z" transform="translate(-399.176 -291.509)" opacity="0.1"/>
      <path id="Path_734" data-name="Path 734" d="M930.283,732.174a12.391,12.391,0,0,1-6.353,3.142,13.557,13.557,0,0,1,3.388-6.492c2.686-2.653,5.535-4.059,6.353-3.142S932.975,729.515,930.283,732.174Z" transform="translate(-404.65 -318.293)" fill="#6c63ff"/>
      <path id="Path_735" data-name="Path 735" d="M930.283,732.174a12.391,12.391,0,0,1-6.353,3.142,13.557,13.557,0,0,1,3.388-6.492c2.686-2.653,5.535-4.059,6.353-3.142S932.975,729.515,930.283,732.174Z" transform="translate(-404.65 -318.293)" opacity="0.1"/>
      <path id="Path_736" data-name="Path 736" d="M81.372,617.824c8.894,13.834,6.057,63.363,6.057,63.363s-44.7-15.595-53.6-29.423-5.459-32.645,7.67-42.016S72.484,604,81.377,617.83Z" transform="translate(-28.88 -271.317)" fill="#6c63ff"/>
      <path id="Path_737" data-name="Path 737" d="M81.372,617.824c8.894,13.834,6.057,63.363,6.057,63.363s-44.7-15.595-53.6-29.423-5.459-32.645,7.67-42.016S72.484,604,81.377,617.83Z" transform="translate(-28.88 -271.317)" opacity="0.1"/>
      <path id="Path_738" data-name="Path 738" d="M50.92,613.11s33.5,27.253,45.932,71.457" transform="translate(-38.129 -274.648)" fill="none" stroke="#535461" stroke-miterlimit="10" stroke-width="1"/>
      <path id="Path_739" data-name="Path 739" d="M135.065,668.49s-23.787-4.279-7.542,37.235c0,0,16.529-6.639,17.817-23.157a13.1,13.1,0,0,0-9.95-14.011Z" transform="translate(-67.906 -296.124)" fill="#6c63ff"/>
      <path id="Path_740" data-name="Path 740" d="M139.537,668.5s4.531,22.961-7.867,37.29" transform="translate(-72.031 -296.177)" fill="none" stroke="#535461" stroke-miterlimit="10" stroke-width="1"/>
      <path id="Path_741" data-name="Path 741" d="M1037.51,725.1s9.927-2.078,12.572-4.848,14.562-7.617,15.885-4.157,17.869,15.234,6.62,17.306-26.473,2.769-29.78,1.388S1037.51,725.1,1037.51,725.1Z" transform="translate(-452.335 -314.211)" fill="#a8a8a8"/>
      <path id="Path_742" data-name="Path 742" d="M1072.617,738.571c-11.25,2.078-26.473,2.769-29.78,1.388-2.518-1.057-4.27-6.113-4.966-8.479l-.331.073s1.984,8.308,5.3,9.7,18.53.691,29.78-1.388c3.249-.611,4.177-2.005,3.829-3.79C1076.15,737.226,1075.019,738.125,1072.617,738.571Z" transform="translate(-452.348 -320.656)" opacity="0.2"/>
      <ellipse id="Ellipse_193" data-name="Ellipse 193" cx="59.31" cy="62.495" rx="59.31" ry="62.495" transform="translate(486.019 153.043)" fill="#6c63ff"/>
      <ellipse id="Ellipse_194" data-name="Ellipse 194" cx="59.31" cy="62.495" rx="59.31" ry="62.495" transform="translate(422.943 135.969)" fill="#6c63ff"/>
      <ellipse id="Ellipse_195" data-name="Ellipse 195" cx="59.31" cy="62.495" rx="59.31" ry="62.495" transform="translate(353.509 136.581)" fill="#6c63ff"/>
      <ellipse id="Ellipse_196" data-name="Ellipse 196" cx="59.31" cy="62.495" rx="59.31" ry="62.495" transform="translate(330.941 153.043)" fill="#6c63ff"/>
      <ellipse id="Ellipse_197" data-name="Ellipse 197" cx="59.31" cy="62.495" rx="59.31" ry="62.495" transform="translate(292.749 158.533)" fill="#6c63ff"/>
      <ellipse id="Ellipse_198" data-name="Ellipse 198" cx="59.31" cy="62.495" rx="59.31" ry="62.495" transform="translate(277.125 109.145)" fill="#6c63ff"/>
      <ellipse id="Ellipse_199" data-name="Ellipse 199" cx="59.31" cy="62.495" rx="59.31" ry="62.495" transform="translate(294.484 51.828)" fill="#6c63ff"/>
      <ellipse id="Ellipse_200" data-name="Ellipse 200" cx="59.31" cy="62.495" rx="59.31" ry="62.495" transform="translate(327.466 51.828)" fill="#6c63ff"/>
      <ellipse id="Ellipse_201" data-name="Ellipse 201" cx="59.31" cy="62.495" rx="59.31" ry="62.495" transform="translate(346.565 26.219)" fill="#6c63ff"/>
      <ellipse id="Ellipse_202" data-name="Ellipse 202" cx="59.31" cy="62.495" rx="59.31" ry="62.495" transform="translate(395.171 54.267)" fill="#6c63ff"/>
      <ellipse id="Ellipse_203" data-name="Ellipse 203" cx="59.31" cy="62.495" rx="59.31" ry="62.495" transform="translate(508.587 109.145)" fill="#6c63ff"/>
      <ellipse id="Ellipse_204" data-name="Ellipse 204" cx="59.31" cy="62.495" rx="59.31" ry="62.495" transform="translate(474.445 78.047)" fill="#6c63ff"/>
      <ellipse id="Ellipse_205" data-name="Ellipse 205" cx="59.31" cy="62.495" rx="59.31" ry="62.495" transform="translate(452.456 46.949)" fill="#6c63ff"/>
      <ellipse id="Ellipse_206" data-name="Ellipse 206" cx="59.31" cy="62.495" rx="59.31" ry="62.495" transform="translate(410.795 0)" fill="#6c63ff"/>
      <ellipse id="Ellipse_207" data-name="Ellipse 207" cx="59.31" cy="62.495" rx="59.31" ry="62.495" transform="translate(488.334 51.828)" fill="#6c63ff"/>
      <path id="Path_743" data-name="Path 743" d="M1006.451,257.537s-55.237-27.6-88.661,21.317" transform="translate(-402.073 -133.427)" opacity="0.1"/>
      <path id="Path_744" data-name="Path 744" d="M767.631,171s-61.1-1.944-73.1,56.987" transform="translate(-308.34 -102.803)" opacity="0.1"/>
      <path id="Path_745" data-name="Path 745" d="M625.451,375.224s-55.237-27.607-88.661,21.3" transform="translate(-242.115 -179.168)" opacity="0.1"/>
      <path id="Path_746" data-name="Path 746" d="M266.566,635s3.185,4.389-1.474,11-8.5,12.226-6.962,16.359c0,0,7.026-12.312,12.764-12.483S272.855,642.4,266.566,635Z" transform="translate(-124.979 -283.156)" fill="#6c63ff"/>
      <path id="Path_747" data-name="Path 747" d="M266.706,635a5.56,5.56,0,0,1,.65,1.375c5.581,6.908,8.557,13.357,3.191,13.522-5,.153-10.994,9.567-12.427,11.945a5.293,5.293,0,0,0,.168.544s7.026-12.312,12.764-12.483S273,642.4,266.706,635Z" transform="translate(-125.119 -283.156)" opacity="0.1"/>
      <path id="Path_748" data-name="Path 748" d="M282.6,643.523c0,1.547-.162,2.8-.366,2.8s-.366-1.223-.366-2.8.2-.819.406-.819S282.6,641.977,282.6,643.523Z" transform="translate(-135.09 -286.08)" fill="#ffd037"/>
      <path id="Path_749" data-name="Path 749" d="M284.812,646.494c-1.288.74-2.413,1.186-2.506,1s.87-.941,2.158-1.681.777-.2.876,0S286.1,645.779,284.812,646.494Z" transform="translate(-135.271 -287.21)" fill="#ffd037"/>
      <path id="Path_750" data-name="Path 750" d="M238.72,635s-3.185,4.389,1.474,11,8.5,12.226,6.962,16.359c0,0-7.026-12.312-12.764-12.483S232.425,642.4,238.72,635Z" transform="translate(-113.969 -283.156)" fill="#6c63ff"/>
      <path id="Path_751" data-name="Path 751" d="M238.711,635a5.561,5.561,0,0,0-.65,1.375c-5.581,6.908-8.557,13.357-3.191,13.522,5,.153,10.994,9.567,12.427,11.945a5.3,5.3,0,0,1-.168.544S240.1,650.075,234.365,649.9,232.416,642.4,238.711,635Z" transform="translate(-113.96 -283.156)" opacity="0.1"/>
      <path id="Path_752" data-name="Path 752" d="M233.69,643.523c0,1.547.162,2.8.366,2.8s.366-1.223.366-2.8-.2-.819-.406-.819S233.69,641.977,233.69,643.523Z" transform="translate(-114.863 -286.08)" fill="#ffd037"/>
      <path id="Path_753" data-name="Path 753" d="M229.618,646.494c1.288.74,2.413,1.186,2.506,1s-.87-.941-2.158-1.681-.777-.2-.876,0S228.354,645.779,229.618,646.494Z" transform="translate(-112.827 -287.21)" fill="#ffd037"/>
      <path id="Path_754" data-name="Path 754" d="M235.44,675.623s8.911-.287,11.6-2.3,13.709-4.42,14.371-1.192,13.39,16.072,3.33,16.157-23.375-1.651-26.055-3.375S235.44,675.623,235.44,675.623Z" transform="translate(-115.597 -296.973)" fill="#a8a8a8"/>
      <path id="Path_755" data-name="Path 755" d="M264.918,690.384c-10.06.086-23.375-1.651-26.055-3.375-2.042-1.308-2.854-6.009-3.127-8.179h-.3s.58,7.574,3.243,9.292,16,3.46,26.055,3.375c2.9,0,3.9-1.113,3.852-2.726C268.19,689.754,267.094,690.365,264.918,690.384Z" transform="translate(-115.597 -300.192)" opacity="0.2"/>
      <path id="Path_756" data-name="Path 756" d="M132.82,770.542a7.171,7.171,0,0,0,2.222-3.533,3.194,3.194,0,0,0-1.555-3.6c-1.427-.575-2.953.465-4.108,1.522s-2.483,2.256-4,2.03a6.616,6.616,0,0,0,1.88-6,2.572,2.572,0,0,0-.522-1.223c-.795-.893-2.228-.508-3.179.2-3.017,2.237-3.858,6.553-3.875,10.441a21.085,21.085,0,0,1-.058-4.279c-.012-1.418-.383-3.057-1.532-3.8a4.45,4.45,0,0,0-2.321-.581,4.661,4.661,0,0,0-3.794,1.137c-1.16,1.3-.853,3.478.151,4.891a15.269,15.269,0,0,0,3.928,3.313,8.917,8.917,0,0,1,2.808,2.818,2.868,2.868,0,0,1,.209.5h8.5a23.7,23.7,0,0,0,5.245-3.833Z" transform="translate(-63.452 -331.438)" fill="#6c63ff"/>
      <path id="Path_757" data-name="Path 757" d="M1042.82,784.542a7.171,7.171,0,0,0,2.222-3.533,3.194,3.194,0,0,0-1.555-3.6c-1.427-.575-2.953.464-4.108,1.522s-2.483,2.256-4,2.029a6.617,6.617,0,0,0,1.88-6,2.572,2.572,0,0,0-.522-1.223c-.795-.893-2.228-.507-3.179.2-3.017,2.237-3.858,6.553-3.875,10.441a21.079,21.079,0,0,1-.058-4.279c-.012-1.418-.383-3.057-1.532-3.8a4.452,4.452,0,0,0-2.321-.581,4.662,4.662,0,0,0-3.794,1.137c-1.16,1.3-.853,3.478.151,4.891a15.269,15.269,0,0,0,3.928,3.313,8.917,8.917,0,0,1,2.808,2.818,2.883,2.883,0,0,1,.209.5h8.5A23.7,23.7,0,0,0,1042.82,784.542Z" transform="translate(-445.503 -336.879)" fill="#6c63ff"/>
      <path id="Path_758" data-name="Path 758" d="M694.876,784.864s-.58,9.573.58,11.163c0,0-26.641,5.1-29.971,3.509s-1.816-4.145,0-5.1,10.9-4.469,12.108-11.163c0,0-3.934-1.913,8.778.611S694.876,784.864,694.876,784.864Z" transform="translate(-295.319 -340.515)" fill="#dc9ba3"/>
      <path id="Path_759" data-name="Path 759" d="M694.876,784.864s-.58,9.573.58,11.163c0,0-26.641,5.1-29.971,3.509s-1.816-4.145,0-5.1,10.9-4.469,12.108-11.163c0,0-3.934-1.913,8.778.611S694.876,784.864,694.876,784.864Z" transform="translate(-295.319 -340.515)" opacity="0.05"/>
      <path id="Path_760" data-name="Path 760" d="M877.067,634.46s-3.33,5.74-1.213,16.909-5.448,11.163-5.448,11.163H855.276l-5.146-14.06,7.264.611s4.844-1.278,2.727-13.082Z" transform="translate(-373.667 -282.946)" fill="#ffd2d9"/>
      <path id="Path_761" data-name="Path 761" d="M817.51,606.046c2.321,7.77,5.221,17.233,6.771,22.276l1.1,3.564,9.99-10.845s-.441-1.076-1.1-2.58c-1.462-3.338-4.009-8.785-5.262-9.225,0,0,13.924-.96,18.165,2.549s3.028-9.573,3.028-9.573-8.175-.611-11.2-2.549-19.378-3.827-19.378-3.827S814.18,594.877,817.51,606.046Z" transform="translate(-359.519 -267.926)" fill="#ffd2d9"/>
      <path id="Path_762" data-name="Path 762" d="M661.73,765.191l2.118,16.267,5.448-.611s.331-.33.888-.856a36.359,36.359,0,0,1,7.449-5.5,8.782,8.782,0,0,1,3.168-1l-6.057-9.573a32.2,32.2,0,0,1-4.519,1.412,20.767,20.767,0,0,1-4.868.611A8.5,8.5,0,0,1,661.73,765.191Z" transform="translate(-294.569 -333.265)" fill="#ffd2d9"/>
      <path id="Path_763" data-name="Path 763" d="M687.424,749.15c2.727,2.549,15.136-2.873,17.26,5.422l1.949-7.868,6-24.208.824-3.332,5-.226,57.4-2.58,3.249-.147,1.74-.079-2.274-1.186-15.137-7.9s-5.453-.4-12.972-1.492h0c-11.4-1.644-27.552-4.891-36.672-10.631-15.136-9.573-20.886,22.649-20.886,22.649s-2.321,8.173-4.061,16.23a98.562,98.562,0,0,0-1.828,10.545C686.757,746.809,686.838,748.594,687.424,749.15Z" transform="translate(-305.127 -305.755)" fill="#e9e9ef"/>
      <path id="Path_764" data-name="Path 764" d="M687.419,749.142c2.727,2.549,15.136-2.873,17.26,5.422l1.949-7.868,6-24.208.824-3.332,5.158-.336,55.452-3.594L777.49,715l1.056-.067,1.363-.092-16.5-7.819s-5.454-.4-12.972-1.492h0c-11.4-1.645-27.552-4.891-36.672-10.631-15.136-9.573-20.886,22.649-20.886,22.649s-2.321,8.173-4.061,16.23a98.559,98.559,0,0,0-1.828,10.545C686.752,746.8,686.833,748.586,687.419,749.142Z" transform="translate(-305.122 -305.747)" opacity="0.05"/>
      <path id="Path_765" data-name="Path 765" d="M676.38,765.292l5.3,6.547,2.112,2.61a8.788,8.788,0,0,1,3.168-1L680.9,763.88A32.177,32.177,0,0,1,676.38,765.292Z" transform="translate(-300.72 -333.249)" opacity="0.1"/>
      <path id="Path_766" data-name="Path 766" d="M676.87,745.032l5.923,7.336,2.854,3.527v.96c3.481.85,14.382-1.571,16.784-2.127l.47-.11c6.962.318,32.7-15.631,32.7-15.631s28.155,5.1,41.772,3.827c7.606-.715,9.741-3.613,10.141-6.04a6.6,6.6,0,0,0-.453-3.533l-12.184-9.017L773.264,723l-2.576-1.913s-4.479-1.07-10.164-2.39h0c-8.888-2.066-20.729-4.75-23.125-4.939-3.933-.318-13.924,3.191-19.679,10.209a17.223,17.223,0,0,1-3.318,2.855l-.157.11c-1.619,1.131-3.609,2.329-5.8,3.558-7.327,4.065-17.1,8.436-23.816,11.3C680.032,743.767,676.87,745.032,676.87,745.032Z" transform="translate(-300.926 -313.76)" fill="#e9e9ef"/>
      <path id="Path_767" data-name="Path 767" d="M661.73,766l2.118,16.267,5.448-.611s.331-.33.888-.856a3.293,3.293,0,0,1-3.614-2.971s2.1-7.733-1.213-11.065A8.5,8.5,0,0,1,661.73,766Z" transform="translate(-294.569 -334.073)" opacity="0.1"/>
      <path id="Path_768" data-name="Path 768" d="M647.4,777.37s3.029-11.163-3.933-12.44l-11.5,4.787-13.344.96s-3.481,5.985,2.094,12.7a16.791,16.791,0,0,0,12.149,6.052l14.539.7,4.566-9.873S648.022,781.2,647.4,777.37Z" transform="translate(-276.017 -333.657)" fill="#dc9ba3"/>
      <path id="Path_769" data-name="Path 769" d="M796.45,713.44c1.526.471,7.838,2.445,14.3,5.153h0a77.818,77.818,0,0,1,9.317,4.53c.627.373,1.224.746,1.787,1.119a15.637,15.637,0,0,1,3.9,3.448,28.619,28.619,0,0,0,11.957,8.956,6.6,6.6,0,0,0-.453-3.533L825.081,724.1l1.741-.079-2.274-1.186,1.363-.092-16.5-7.819S803.969,714.528,796.45,713.44Z" transform="translate(-351.13 -313.644)" opacity="0.1"/>
      <path id="Path_770" data-name="Path 770" d="M830,642.731l1.1,3.564,9.99-10.845s-.441-1.076-1.1-2.58C838.7,635.676,832.675,640.6,830,642.731Z" transform="translate(-365.215 -282.328)" opacity="0.1"/>
      <path id="Path_771" data-name="Path 771" d="M853.008,647.626a19.37,19.37,0,0,0,.783-3.326l13.013,4.762s8.929,7.177,8.024,22.808c0,0-11.023-4.279-15.9.795l-.1.9A42.436,42.436,0,0,1,848.157,697.3a32.167,32.167,0,0,0-5.877,8.559s-8.476-2.549-13.622-9.573S799,681.945,799,681.945s13.019.318,14.835-4.469,7.873-15,5.755-22.967-3.33-10.527-3.33-10.527,12.416-9.249,11.5-12.122l7.873,9.573,3.632,1.278a6.4,6.4,0,0,0-.429,2.335A7.25,7.25,0,0,0,853.008,647.626Z" transform="translate(-352.2 -281.935)" fill="#cedad5"/>
      <path id="Path_772" data-name="Path 772" d="M867.8,640.657a34.726,34.726,0,0,0-.458-3.552l16.952-1.6s-1.16,1.07-1.682,5.056c-1.99,1.223-4.311,2.922-6.794,2.922a12.825,12.825,0,0,1-8.018-2.831Z" transform="translate(-380.892 -283.354)" opacity="0.1"/>
      <ellipse id="Ellipse_208" data-name="Ellipse 208" cx="13.321" cy="14.036" rx="13.321" ry="14.036" transform="translate(481.453 331.579)" fill="#ffd2d9"/>
      <path id="Path_773" data-name="Path 773" d="M883.931,615.748h-1.816v-5.422l-1.816-5.74s-9.085-4.469-13.344-3.509l-3.307,3.173s-.911-7.654,4.543-10.527,15.136-1.6,17.562.611,6.382,6.064,3.33,16.591l-.888,2.592S884.535,612.24,883.931,615.748Z" transform="translate(-379.318 -266.466)" fill="#844f6e"/>
      <g id="Group_55" data-name="Group 55" transform="translate(446.788 349.924)" opacity="0.05">
        <path id="Path_774" data-name="Path 774" d="M854.064,638.584l-.992-.348-4.572-5.557a1.426,1.426,0,0,0,.029-.819Z" transform="translate(-819.77 -631.86)"/>
        <path id="Path_775" data-name="Path 775" d="M866.053,654.888a7.266,7.266,0,0,1-4.16-7.03v-.538l.093.116,3.632,1.278a6.4,6.4,0,0,0-.429,2.335,7.956,7.956,0,0,0,.864,3.839Z" transform="translate(-825.389 -637.869)"/>
        <path id="Path_776" data-name="Path 776" d="M804.329,713.36c7.589,2.781,17.863,7.165,20.99,11.426l.232.306c-8.314-6.009-26.572-11.474-26.572-11.474A44.825,44.825,0,0,0,804.329,713.36Z" transform="translate(-798.98 -663.538)"/>
        <path id="Path_777" data-name="Path 777" d="M861.2,713.475a32.741,32.741,0,0,1,5.877-8.558,42.437,42.437,0,0,0,10.675-23.731l.1-.9c4.844-5.1,15.9-.795,15.9-.795.58-9.916-2.808-16.426-5.355-19.862l.667.245s8.929,7.177,8.024,22.808c0,0-11.023-4.279-15.9.795l-.1.9a42.437,42.437,0,0,1-10.675,23.731,32.167,32.167,0,0,0-5.877,8.558,29.923,29.923,0,0,1-12.543-8.216A30.792,30.792,0,0,0,861.2,713.475Z" transform="translate(-821.236 -642.654)"/>
      </g>
      <path id="Path_778" data-name="Path 778" d="M866.763,678.121s14.5,22.007,22.1,28.39,9.689-2.873,9.689-2.873V683.225l-13.344-1.6-.145,1.938-.162,2.213-12.416-14.06s-12.416-11.8-14.835-4.787S866.763,678.121,866.763,678.121Z" transform="translate(-376.683 -294.702)" fill="#ffd2d9"/>
      <path id="Path_779" data-name="Path 779" d="M905.19,694.328a28.138,28.138,0,0,0,5.744,2.69c2.86.929,6.138-.049,7.722-.648v-2.384l-13.344-1.6Z" transform="translate(-396.783 -305.462)" opacity="0.1"/>
      <path id="Path_780" data-name="Path 780" d="M917.438,689.585l.777,3.417s-4.734,2.323-8.668,1.052a33.707,33.707,0,0,1-7.542-3.827c-.58-.318,2.419-3.827,2.419-3.827Z" transform="translate(-395.415 -303.134)" fill="#cedad5"/>
      <path id="Path_781" data-name="Path 781" d="M768.922,750.6a24.239,24.239,0,0,0-6.66-3.833,23.391,23.391,0,0,1-6.382-3.509" transform="translate(-334.097 -325.235)" opacity="0.1"/>
      <path id="Path_782" data-name="Path 782" d="M618.683,774.3l.493-.037c-.719,1.926-1.74,6.633,2.506,11.774a16.793,16.793,0,0,0,12.108,6.046l14.1.7-.453.978-14.55-.7a16.793,16.793,0,0,1-12.108-6.046C615.2,780.281,618.683,774.3,618.683,774.3Z" transform="translate(-276.046 -337.284)" fill="#fff" opacity="0.2"/>
      <path id="Path_783" data-name="Path 783" d="M707.7,796.69q-.064.287-.145.569C707.257,797.081,706.834,796.739,707.7,796.69Z" transform="translate(-313.653 -346.002)" fill="lime" opacity="0.05"/>
      <path id="Path_784" data-name="Path 784" d="M665.558,806.572c3.1,1.486,26.438-2.843,29.588-3.442a2.553,2.553,0,0,0,.36.886s-26.641,5.1-29.971,3.509c-1.74-.819-2.141-1.9-1.909-2.873A3.164,3.164,0,0,0,665.558,806.572Z" transform="translate(-295.34 -348.505)" fill="#fff" opacity="0.2"/>
      <path id="Path_785" data-name="Path 785" d="M861.323,602.268a21.332,21.332,0,0,1-7.681-8.681,2.041,2.041,0,0,1-.284-1.339c.215-.868,1.288-1.021,2.065-1.394,1.445-.7,2.054-2.445,3-3.8a7.041,7.041,0,0,1,7.061-2.855c1.381.293,2.657,1.015,4.061,1.223,3.005.465,6.277-1.455,8.975,0a8.032,8.032,0,0,1,2.8,3.154c1.839,3.1,4.142,6.394,2.471,10.013A7.573,7.573,0,0,1,879.145,603c-2.152.605-4.641.1-6.834-.147a26.86,26.86,0,0,0-5.5-.44C864.676,602.641,863.348,603.552,861.323,602.268Z" transform="translate(-375.014 -263.36)" opacity="0.1"/>
      <path id="Path_786" data-name="Path 786" d="M861.323,601.218a21.331,21.331,0,0,1-7.681-8.681,2.041,2.041,0,0,1-.284-1.339c.215-.868,1.288-1.021,2.065-1.394,1.445-.7,2.054-2.445,3-3.8a7.042,7.042,0,0,1,7.061-2.855c1.381.293,2.657,1.015,4.061,1.223,3.005.465,6.277-1.455,8.975,0a8.033,8.033,0,0,1,2.8,3.154c1.839,3.1,4.142,6.394,2.471,10.013a7.573,7.573,0,0,1-4.641,4.408c-2.152.605-4.641.1-6.834-.147a26.86,26.86,0,0,0-5.5-.44C864.676,601.591,863.348,602.508,861.323,601.218Z" transform="translate(-375.014 -262.952)" fill="#844f6e"/>
      <path id="Path_787" data-name="Path 787" d="M436.94,670.994c0,6.578.348,10.924.348,10.924s8.917.526,8.668,9.237,34.659,10.558,34.659,10.558v-.263h0v-1.975a42.832,42.832,0,0,0,8.859.74c-.133.679-.29,1.394-.441,2.03-.162.171-3.377,3.595-3.272,7.238-.058,1.834.731,3.717,3.284,5.282,7.368,4.536,30.314,2.011,30.314,2.011,3.481-2.409,4.641-4.456,4.577-6.156.11-2.506-2.263-4.279-4.438-5.422a7.472,7.472,0,0,0-5.43-.611,24.767,24.767,0,0,1-7.49.581,12.768,12.768,0,0,1,.389-1.553c2.355.7,3.98,1.223,3.98,1.223s12.23-6.859,7.136-17.942a8.853,8.853,0,0,0-3.481-3.625c3.928-7.134,7.658-15.534,7.287-21.182-.621-9.427-18.385-7.372-25.04-6.266l-12.827-13.26c0-9.781.284-21.011-.58-23.444-1.532-4.224-1.021-3.668-2.036-5.539l-.041-.067c-.58-.99-2.158-2.561-2.564-2.347a28.736,28.736,0,0,1,.075-5.838,16.6,16.6,0,0,0,10.9-15.76,17.019,17.019,0,0,0-1.74-7.525l.174-.079-1.682-8.717a1.52,1.52,0,0,1,.075-1.131c.174-.245.47-.318.7-.489a1.755,1.755,0,0,0,.273-2.054,2.784,2.784,0,0,0-.632-.85c-1.416-1.693-4.427-1.088-6.277-1.339-2.506-.336-5.134-.825-7.507.483a12.192,12.192,0,0,1-1.6.88,6.532,6.532,0,0,1-2.321.232,22.284,22.284,0,0,0-4.212.4,6.531,6.531,0,0,0-5.616.978,13.26,13.26,0,0,0-5.894,11.933,26.5,26.5,0,0,0,.806,4.371l3.1,12.746a8.561,8.561,0,0,0,1.16,2.983,3.446,3.446,0,0,0,.464.526,2.616,2.616,0,0,0,2.472.99,1.618,1.618,0,0,0,.342-.128,18.936,18.936,0,0,1-.737,3.949c-3.551,1.088-8.7,4.891-14.887,15.894C438.3,637.713,436.975,658.5,436.94,670.994Zm50.648-8.95Z" transform="translate(-200.194 -256.728)" fill="url(#linear-gradient)"/>
      <rect id="Rectangle_37" data-name="Rectangle 37" width="34.717" height="26.201" transform="translate(302.322 432.599) rotate(180)" fill="#5f5d7e"/>
      <path id="Path_788" data-name="Path 788" d="M523.168,713.992s25.852-5.71,26.589,5.71-15.264,34.234-15.264,34.234l-14.5-3.112,4.183-17.643s-16.494-3.894-17.48-4.151S523.168,713.992,523.168,713.992Z" transform="translate(-229.461 -313.304)" fill="#5f5d7e"/>
      <path id="Path_789" data-name="Path 789" d="M523.168,713.992s25.852-5.71,26.589,5.71-15.264,34.234-15.264,34.234l-14.5-3.112,4.183-17.643s-16.494-3.894-17.48-4.151S523.168,713.992,523.168,713.992Z" transform="translate(-229.461 -313.304)" opacity="0.1"/>
      <path id="Path_790" data-name="Path 790" d="M544.561,783.642s-2.46,4.927-1.74,7.006-17.48-2.855-17.48-2.855,1.479-5.966,1.23-6.724S544.561,783.642,544.561,783.642Z" transform="translate(-237.308 -339.887)" fill="#5f5d7e"/>
      <path id="Path_791" data-name="Path 791" d="M530.88,724.595l1.81,1.724,1.16,1.113s5.912,10.117,13.541,3.894-5.923-10.881-8.633-11.12a3.418,3.418,0,0,1-2.553-1.95,8.84,8.84,0,0,1-.893-2.445Z" transform="translate(-239.634 -314.565)" fill="#fdc2cc"/>
      <path id="Path_792" data-name="Path 792" d="M530.88,724.595l1.81,1.724,1.16,1.113s5.912,10.117,13.541,3.894-5.923-10.881-8.633-11.12a3.418,3.418,0,0,1-2.553-1.95,8.84,8.84,0,0,1-.893-2.445Z" transform="translate(-239.634 -314.565)" opacity="0.05"/>
      <path id="Path_793" data-name="Path 793" d="M544.561,783.642s-2.46,4.927-1.74,7.006-17.48-2.855-17.48-2.855,1.479-5.966,1.23-6.724S544.561,783.642,544.561,783.642Z" transform="translate(-237.308 -339.887)" opacity="0.1"/>
      <path id="Path_794" data-name="Path 794" d="M530.88,724.571l1.81,1.724c0-3.326,2.094-6.382,3.527-8.1a8.841,8.841,0,0,1-.893-2.445Z" transform="translate(-239.634 -314.542)" opacity="0.1"/>
      <path id="Path_795" data-name="Path 795" d="M512.21,687.32l16.987,17.9s-5.912,5.447-4.676,11.157L512.21,701.845Z" transform="translate(-231.795 -303.492)" fill="#c4c8e2"/>
      <path id="Path_796" data-name="Path 796" d="M512.42,687.32v14.531l1.973,2.329,5.854,6.908,4.485,5.294c-1.23-5.71,4.676-11.156,4.676-11.156Z" transform="translate(-231.884 -303.492)" opacity="0.1"/>
      <path id="Path_797" data-name="Path 797" d="M507.365,645.3s0,5.447-4.432,3.894-.986,61.486-.986,61.486,12.8-10.117,10.339-17.38a51.215,51.215,0,0,1-2.721-19.978C509.8,666.073,507.365,645.3,507.365,645.3Z" transform="translate(-226.95 -287.159)" fill="#d39999"/>
      <path id="Path_798" data-name="Path 798" d="M495.919,620.055s-3.7,10.637,0,18.682S474,634.323,474,634.323s5.662-2.855,3.7-16.6Z" transform="translate(-215.753 -276.44)" fill="#fdc2cc"/>
      <path id="Path_799" data-name="Path 799" d="M515.344,696.722a80.625,80.625,0,0,0,0,8.558l5.854,6.908a52.926,52.926,0,0,0-2.9-5.606c-.911-1.485-1.114-7.409-1.16-14.17l-2.147-2.262C515.216,693.8,515.344,696.722,515.344,696.722Z" transform="translate(-232.963 -304.592)" opacity="0.1"/>
      <path id="Path_800" data-name="Path 800" d="M508.983,642.714c-.273-1.363,1.862.691,2.547,1.883l.035.067c.986,1.834.493,1.3,1.973,5.447s-.493,34.234,1.74,37.9a59.575,59.575,0,0,1,3.939,8.045l-3.939-1.559s-1.479-4.67-2.46-5.71-.493-10.637-.493-10.637-.737-16.6-1.479-20.235C510.259,654.995,509.563,645.581,508.983,642.714Z" transform="translate(-230.43 -285.979)" fill="#c4c8e2"/>
      <path id="Path_801" data-name="Path 801" d="M508.983,642.714c-.273-1.363,1.862.691,2.547,1.883l.035.067c.986,1.834.493,1.3,1.973,5.447s-.493,34.234,1.74,37.9a59.575,59.575,0,0,1,3.939,8.045l-3.939-1.559s-1.479-4.67-2.46-5.71-.493-10.637-.493-10.637-.737-16.6-1.479-20.235C510.259,654.995,509.563,645.581,508.983,642.714Z" transform="translate(-230.43 -285.979)" opacity="0.1"/>
      <path id="Path_802" data-name="Path 802" d="M499.05,748.8s38.9-1.559,43.826,9.341-6.892,17.649-6.892,17.649-16.494-5.447-20.19-4.671-16.743-2.078-16.743-2.078Z" transform="translate(-226.27 -327.358)" fill="#5f5d7e"/>
      <path id="Path_803" data-name="Path 803" d="M536.4,735.936s8.865-5.19,13.791-1.834,4.432,12.453-2.46,12.709a13.653,13.653,0,0,1-10.588-4.151Z" transform="translate(-241.951 -321.236)" fill="#fdc2cc"/>
      <path id="Path_804" data-name="Path 804" d="M467.883,636.789S460,631.08,448.43,652.072s-8.615,57.073-8.615,57.073,8.615.52,8.372,9.078,33.487,10.392,33.487,10.392-.493-85.1-3.939-87.418S467.883,636.789,467.883,636.789Z" transform="translate(-201.259 -283.576)" fill="#c4c8e2"/>
      <path id="Path_805" data-name="Path 805" d="M477.472,661.53a11.567,11.567,0,0,1,4.479,9.243c.041,7.77.22,24.514.969,27.681.986,4.151,15.757,9.6,23.392,9.341,0,0,3.7,7.262-.737,8.821s-31.514,0-31.514,0-10.588-12.709-10.832-23.841-1.74-23.609,0-25.944C464.65,664.855,470.6,656.419,477.472,661.53Z" transform="translate(-210.883 -292.838)" opacity="0.1"/>
      <path id="Path_806" data-name="Path 806" d="M478.343,659.832a11.565,11.565,0,0,1,4.508,9.255c.041,7.77.22,24.514.969,27.681.986,4.151,15.757,9.6,23.392,9.341,0,0,3.7,7.262-.737,8.821s-31.515,0-31.515,0-10.588-12.709-10.832-23.841-1.741-23.609,0-25.944C465.521,663.182,471.468,654.721,478.343,659.832Z" transform="translate(-211.261 -292.179)" fill="#c4c8e2"/>
      <path id="Path_807" data-name="Path 807" d="M553.355,791.652c3.533,1.834,7.629,5.612-.133,11.352,0,0-22.156,2.592-29.3-2.078s0-12.2,0-12.2,16.343,4.579,24.187,2.341a7.1,7.1,0,0,1,5.245.581Z" transform="translate(-235.38 -342.908)" fill="#4c4c56"/>
      <path id="Path_808" data-name="Path 808" d="M553.355,792.6c3.533,1.773,7.629,5.367-.133,10.863,0,0-22.156,2.482-29.3-1.987s0-11.664,0-11.664,16.343,4.377,24.187,2.244a7.391,7.391,0,0,1,5.245.544Z" transform="translate(-235.38 -343.328)" opacity="0.1"/>
      <path id="Path_809" data-name="Path 809" d="M490.35,692.62s1.23,16.347,9.358,19.978" transform="translate(-222.618 -305.552)" opacity="0.1"/>
      <path id="Path_810" data-name="Path 810" d="M498.173,622.712a34.823,34.823,0,0,0-1.456,6.932c-1.555.55-3.829-.831-5.564-.831-4.514,0-5.8-5.318-8.615-8.558,0-1.443-2.321,1.926-2.588.128Z" transform="translate(-218.251 -277.281)" opacity="0.1"/>
      <path id="Path_811" data-name="Path 811" d="M474,597.1a17.255,17.255,0,0,0,.47,4.022l.052.208c2.109,8.368,10.019,13.574,18.08,11.9s13.506-9.653,12.445-18.238-8.264-14.828-16.463-14.27S474,588.444,474,597.1Z" transform="translate(-215.753 -262.044)" fill="#fdc2cc"/>
      <path id="Path_812" data-name="Path 812" d="M448.437,657.305a62,62,0,0,1,5.506-8.485,66.424,66.424,0,0,0-4.519,7.189c-11.574,21.017-8.615,57.073-8.615,57.073s8.615.52,8.372,9.078c-.22,7.684,26.925,9.934,32.489,10.313v1.357S447.938,732,448.182,723.437s-8.372-9.078-8.372-9.078S436.88,678.322,448.437,657.305Z" transform="translate(-201.26 -288.527)" opacity="0.1"/>
      <path id="Path_813" data-name="Path 813" d="M473.213,574.915a6.252,6.252,0,0,1,5.43-.96,21.157,21.157,0,0,1,4.061-.391,6.21,6.21,0,0,0,2.216-.226,11.725,11.725,0,0,0,1.543-.862c2.292-1.284,4.833-.8,7.252-.471,1.967.269,5.291-.483,6.428,1.889a1.749,1.749,0,0,1-.261,2.017c-.22.171-.5.238-.673.483a1.52,1.52,0,0,0-.075,1.113l1.624,8.558a5.82,5.82,0,0,1-4.833.232,13.255,13.255,0,0,1-1.276-.611c-1.213.831-2.466.2-3.934.532a4.473,4.473,0,0,0-2.216,1.528,13.881,13.881,0,0,0-3.29,6.9c-.162.972-.377,2.17-1.271,2.445a5.55,5.55,0,0,1-1.027.11c-1.613.22-2.274,2.231-3.313,3.558-1.265,1.614-3.533,2.665-3.672,4.756a3.336,3.336,0,0,1-.209,1.583,1.258,1.258,0,0,1-.789.513,2.611,2.611,0,0,1-2.588-1.223,8.51,8.51,0,0,1-1.1-2.928l-3-12.532a26.462,26.462,0,0,1-.783-4.279A13.11,13.11,0,0,1,473.213,574.915Z" transform="translate(-213 -258.527)" opacity="0.1"/>
      <path id="Path_814" data-name="Path 814" d="M472.823,574.535a6.252,6.252,0,0,1,5.43-.96,21.162,21.162,0,0,1,4.061-.391,6.21,6.21,0,0,0,2.216-.226,11.722,11.722,0,0,0,1.543-.862c2.292-1.284,4.833-.8,7.252-.471,1.967.269,5.291-.483,6.428,1.889a1.749,1.749,0,0,1-.261,2.017c-.22.171-.5.238-.673.483a1.519,1.519,0,0,0-.075,1.113l1.624,8.558a5.82,5.82,0,0,1-4.833.232,13.27,13.27,0,0,1-1.276-.611c-1.212.831-2.466.2-3.933.532a4.472,4.472,0,0,0-2.216,1.528,13.879,13.879,0,0,0-3.29,6.9c-.162.972-.377,2.17-1.271,2.445a5.539,5.539,0,0,1-1.027.11c-1.613.22-2.274,2.231-3.313,3.558-1.265,1.614-3.533,2.665-3.672,4.756a3.336,3.336,0,0,1-.209,1.583,1.258,1.258,0,0,1-.789.513,2.611,2.611,0,0,1-2.587-1.223,8.506,8.506,0,0,1-1.1-2.928l-3-12.532a26.462,26.462,0,0,1-.783-4.279,13.11,13.11,0,0,1,5.749-11.737Z" transform="translate(-212.836 -258.379)" fill="#865a61"/>
    </g>
  </g>
</svg>
