<svg xmlns="http://www.w3.org/2000/svg" width="665.959" height="521.095" viewBox="0 0 665.959 521.095">
  <g id="Group_2" data-name="Group 2" transform="translate(-0.007 0)">
    <path id="Path_18" data-name="Path 18" d="M228.593,599.462c-.46-.5-11.366-12.542-20.61-41.12-8.481-26.219-17.039-71.94-9.644-140.866C212.349,286.9,140.5,203.686,139.776,202.861l2.127-2.227c.185.209,18.657,21.385,35.092,58.56A310.856,310.856,0,0,1,201.267,417.85c-13.986,130.352,28.97,178.858,29.406,179.334Z" transform="translate(-98.549 -112.479)" fill="#f2f2f2"/>
    <ellipse id="Ellipse_3" data-name="Ellipse 3" cx="19.16" cy="20.893" rx="19.16" ry="20.893" transform="translate(0.007 46.407)" fill="#f2f2f2"/>
    <ellipse id="Ellipse_4" data-name="Ellipse 4" cx="19.16" cy="20.893" rx="19.16" ry="20.893" transform="translate(75.489 105.72)" fill="#f2f2f2"/>
    <ellipse id="Ellipse_5" data-name="Ellipse 5" cx="19.16" cy="20.893" rx="19.16" ry="20.893" transform="translate(46.586 166.356)" fill="#f2f2f2"/>
    <ellipse id="Ellipse_6" data-name="Ellipse 6" cx="19.16" cy="20.893" rx="19.16" ry="20.893" transform="translate(104.704 195.551)" fill="#6c63ff"/>
    <ellipse id="Ellipse_7" data-name="Ellipse 7" cx="19.16" cy="20.893" rx="19.16" ry="20.893" transform="translate(56.39 277.899)" fill="#f2f2f2"/>
    <path id="Path_19" data-name="Path 19" d="M292.544,730.823s-29.8-45.006,17.649-97.345Z" transform="translate(-151.088 -246.088)" fill="#f2f2f2"/>
    <path id="Path_20" data-name="Path 20" d="M211.892,765.369s-20.367-50.875-85.828-32.963Z" transform="translate(-93.53 -275.445)" fill="#f2f2f2"/>
    <path id="Path_21" data-name="Path 21" d="M918.923,643.462c.46-.5,11.366-12.542,20.61-41.12,8.481-26.219,17.039-71.94,9.644-140.866-14.011-130.575,57.834-213.79,58.563-214.616l-2.127-2.227c-.185.209-18.657,21.385-35.092,58.56A310.856,310.856,0,0,0,946.249,461.85c13.987,130.351-28.97,178.858-29.406,179.334Z" transform="translate(-382.991 -126.061)" fill="#f2f2f2"/>
    <ellipse id="Ellipse_8" data-name="Ellipse 8" cx="19.16" cy="20.893" rx="19.16" ry="20.893" transform="translate(627.647 76.825)" fill="#f2f2f2"/>
    <ellipse id="Ellipse_9" data-name="Ellipse 9" cx="19.16" cy="20.893" rx="19.16" ry="20.893" transform="translate(552.168 136.138)" fill="#f2f2f2"/>
    <ellipse id="Ellipse_10" data-name="Ellipse 10" cx="19.16" cy="20.893" rx="19.16" ry="20.893" transform="translate(581.071 196.774)" fill="#f2f2f2"/>
    <ellipse id="Ellipse_11" data-name="Ellipse 11" cx="19.16" cy="20.893" rx="19.16" ry="20.893" transform="translate(522.952 225.969)" fill="#f2f2f2"/>
    <ellipse id="Ellipse_12" data-name="Ellipse 12" cx="19.16" cy="20.893" rx="19.16" ry="20.893" transform="translate(571.267 308.318)" fill="#f2f2f2"/>
    <path id="Path_22" data-name="Path 22" d="M891.932,774.823s29.8-45.006-17.649-97.345Z" transform="translate(-367.412 -259.669)" fill="#f2f2f2"/>
    <path id="Path_23" data-name="Path 23" d="M938.551,809.369s20.367-50.875,85.828-32.963Z" transform="translate(-390.937 -289.026)" fill="#f2f2f2"/>
    <path id="Path_24" data-name="Path 24" d="M652.923,643.462c.46-.5,11.365-12.542,20.61-41.12,8.481-26.219,17.039-71.94,9.644-140.866-14.01-130.575,57.834-213.79,58.563-214.616l-2.127-2.227c-.185.209-18.657,21.385-35.092,58.56A310.858,310.858,0,0,0,680.249,461.85c13.986,130.351-28.97,178.858-29.406,179.334Z" transform="translate(-285.623 -126.061)" fill="#f2f2f2"/>
    <ellipse id="Ellipse_13" data-name="Ellipse 13" cx="19.16" cy="20.893" rx="19.16" ry="20.893" transform="translate(459.018 76.825)" fill="#f2f2f2"/>
    <ellipse id="Ellipse_14" data-name="Ellipse 14" cx="19.16" cy="20.893" rx="19.16" ry="20.893" transform="translate(383.536 136.138)" fill="#f2f2f2"/>
    <ellipse id="Ellipse_15" data-name="Ellipse 15" cx="19.16" cy="20.893" rx="19.16" ry="20.893" transform="translate(412.439 196.774)" fill="#f2f2f2"/>
    <ellipse id="Ellipse_16" data-name="Ellipse 16" cx="19.16" cy="20.893" rx="19.16" ry="20.893" transform="translate(354.321 225.969)" fill="#f2f2f2"/>
    <ellipse id="Ellipse_17" data-name="Ellipse 17" cx="19.16" cy="20.893" rx="19.16" ry="20.893" transform="translate(402.635 308.318)" fill="#f2f2f2"/>
    <path id="Path_25" data-name="Path 25" d="M625.932,774.823s29.8-45.006-17.649-97.345Z" transform="translate(-270.044 -259.669)" fill="#f2f2f2"/>
    <path id="Path_26" data-name="Path 26" d="M672.551,809.369s20.367-50.875,85.828-32.963Z" transform="translate(-293.569 -289.026)" fill="#f2f2f2"/>
    <path id="Path_27" data-name="Path 27" d="M492.618,176.723V139.087c-21.677-5.429-40.272-20.523-51.261-41.61h0a14.267,14.267,0,0,1-9.015,3.235H404.936C419.813,141.149,453.137,170.037,492.618,176.723Z" transform="translate(-195.61 -80.637)" fill="#3f3d56"/>
    <path id="Path_28" data-name="Path 28" d="M514.511,129.411V93.257c0-11.123-8.267-20.142-18.467-20.138H469.437V76.61a17.287,17.287,0,0,1-4.69,11.98c10.628,20.593,28.674,35.4,49.765,40.821Z" transform="translate(-217.503 -73.119)" fill="#3f3d56"/>
    <path id="Path_29" data-name="Path 29" d="M297.606,93.2H280.469c-8.4,0-15.2-7.428-15.2-16.585V73.119H240.3c-10.2,0-18.469,9.018-18.467,20.14V541.374a21.064,21.064,0,0,0,5.4,14.241A17.691,17.691,0,0,0,240.3,561.5H407.127a16.5,16.5,0,0,0,2.276-.152c9.241-1.257,16.181-9.817,16.191-19.972V211.492C364.919,203.826,314.362,156.616,297.606,93.2Z" transform="translate(-128.586 -73.119)" fill="#3f3d56"/>
    <path id="Path_30" data-name="Path 30" d="M380.741,102.159H344.516C361.19,164.4,410.878,210.716,470.5,218.349V180.311c-40.548-6.761-74.738-36.529-89.76-78.152Z" transform="translate(-173.493 -82.083)" fill="#3f3d56"/>
    <rect id="Rectangle_8" data-name="Rectangle 8" width="314.441" height="1.383" transform="translate(271.812 519.324)" fill="#3f3d56"/>
    <ellipse id="Ellipse_18" data-name="Ellipse 18" cx="4.438" cy="4.839" rx="4.438" ry="4.839" transform="translate(135.286 69.823)" fill="#f2f2f2"/>
    <path id="Path_31" data-name="Path 31" d="M195.933,159.258h-1.155V158h-.225v1.26H193.4v.246h1.156v1.26h.225V159.5h1.155Z" transform="translate(-70.79 -48.77)" fill="#f2f2f2"/>
    <path id="Path_32" data-name="Path 32" d="M318.933,68.258h-1.155V67h-.225v1.26H316.4V68.5h1.156v1.26h.225V68.5h1.155Z" transform="translate(-115.813 -20.681)" fill="#f2f2f2"/>
    <path id="Path_33" data-name="Path 33" d="M213.933,231.258h-1.155V230h-.225v1.26H211.4v.246h1.156v1.26h.225V231.5h1.155Z" transform="translate(-77.378 -70.995)" fill="#f2f2f2"/>
    <path id="Path_34" data-name="Path 34" d="M297.933,178.258h-1.155V177h-.225v1.26H295.4v.246h1.156v1.26h.225V178.5h1.155Z" transform="translate(-108.126 -54.635)" fill="#f2f2f2"/>
    <path id="Path_35" data-name="Path 35" d="M417.933,211.258h-1.155V210h-.225v1.26H415.4v.246h1.156v1.26h.225V211.5h1.155Z" transform="translate(-152.052 -64.821)" fill="#f2f2f2"/>
    <ellipse id="Ellipse_19" data-name="Ellipse 19" cx="2.536" cy="2.765" rx="2.536" ry="2.765" transform="translate(250.032 83.649)" fill="#ff6584"/>
    <path id="Path_36" data-name="Path 36" d="M329.015,291.917l-1.439.242c.45,3.139.805,6.346,1.065,9.52l1.452-.138C329.833,298.326,329.472,295.09,329.015,291.917Z" transform="translate(-167.292 -140.656)" fill="#e6e6e6"/>
    <path id="Path_37" data-name="Path 37" d="M322.831,264.577l-1.395.463c.843,3.042,1.6,6.16,2.238,9.264l1.426-.353C324.447,270.813,323.68,267.66,322.831,264.577Z" transform="translate(-165.045 -132.217)" fill="#e6e6e6"/>
    <path id="Path_38" data-name="Path 38" d="M312.961,238.357l-1.325.664c1.217,2.9,2.358,5.869,3.392,8.842l1.363-.56C315.345,244.3,314.2,241.281,312.961,238.357Z" transform="translate(-161.458 -124.124)" fill="#e6e6e6"/>
    <path id="Path_39" data-name="Path 39" d="M299.616,213.777l-1.23.85c1.566,2.682,3.068,5.461,4.463,8.247l1.281-.76C302.722,219.294,301.2,216.487,299.616,213.777Z" transform="translate(-156.607 -116.536)" fill="#e6e6e6"/>
    <path id="Path_40" data-name="Path 40" d="M283.025,191.247l-1.109,1.03c1.889,2.42,3.728,4.95,5.465,7.508l1.167-.947C286.8,196.252,284.94,193.694,283.025,191.247Z" transform="translate(-150.579 -109.582)" fill="#e6e6e6"/>
    <path id="Path_41" data-name="Path 41" d="M263.526,171.187l-.97,1.182c2.181,2.122,4.317,4.355,6.352,6.63l1.046-1.113C267.894,175.584,265.732,173.33,263.526,171.187Z" transform="translate(-143.492 -103.39)" fill="#e6e6e6"/>
    <path id="Path_42" data-name="Path 42" d="M241.494,153.967l-.818,1.314c2.422,1.777,4.818,3.671,7.119,5.627l.9-1.251C246.363,157.679,243.941,155.764,241.494,153.967Z" transform="translate(-135.483 -98.074)" fill="#e6e6e6"/>
    <path id="Path_43" data-name="Path 43" d="M221.836,142.007v1.8c1.515.864,3.018,1.77,4.488,2.7l.729-1.376Q224.486,143.507,221.836,142.007Z" transform="translate(-128.587 -94.383)" fill="#e6e6e6"/>
    <path id="Path_44" data-name="Path 44" d="M329.326,505.825c.236-1.546.453-3.124.643-4.691l1.445.209c-.193,1.584-.411,3.18-.65,4.743Z" transform="translate(-167.933 -205.236)" fill="#e6e6e6"/>
    <path id="Path_45" data-name="Path 45" d="M322.917,530.77l1.393.473c.874-3.072,1.665-6.219,2.35-9.355l-1.42-.366C324.561,524.624,323.785,527.732,322.917,530.77Z" transform="translate(-165.587 -211.53)" fill="#e6e6e6"/>
    <path id="Path_46" data-name="Path 46" d="M312.875,556.8l1.323.676c1.258-2.909,2.435-5.906,3.5-8.907l-1.36-.579C315.285,550.956,314.12,553.921,312.875,556.8Z" transform="translate(-161.911 -219.699)" fill="#e6e6e6"/>
    <path id="Path_47" data-name="Path 47" d="M299.364,581.3l1.222.865c1.612-2.7,3.159-5.491,4.6-8.3l-1.271-.778C302.493,575.862,300.959,578.625,299.364,581.3Z" transform="translate(-156.965 -227.445)" fill="#e6e6e6"/>
    <path id="Path_48" data-name="Path 48" d="M282.647,603.776l1.1,1.044c1.939-2.439,3.82-4.976,5.6-7.543l-1.167-.952C286.429,598.862,284.568,601.368,282.647,603.776Z" transform="translate(-150.846 -234.62)" fill="#e6e6e6"/>
    <path id="Path_49" data-name="Path 49" d="M263.072,623.818l.96,1.2c2.229-2.121,4.409-4.358,6.492-6.631l-1.031-1.126C267.434,619.505,265.272,621.712,263.072,623.818Z" transform="translate(-143.681 -241.08)" fill="#e6e6e6"/>
    <path id="Path_50" data-name="Path 50" d="M241.02,641.061l.805,1.33c2.461-1.772,4.906-3.662,7.251-5.608l-.881-1.269C245.872,637.444,243.458,639.312,241.02,641.061Z" transform="translate(-135.609 -246.716)" fill="#e6e6e6"/>
    <path id="Path_51" data-name="Path 51" d="M227.218,652.153c-1.762,1.085-3.563,2.136-5.382,3.132V653.5c1.572-.871,3.132-1.791,4.66-2.724Z" transform="translate(-128.587 -251.427)" fill="#e6e6e6"/>
    <path id="Path_52" data-name="Path 52" d="M330,320.209l1.457-.029c.027,1.6.029,3.218.006,4.8l-1.457-.025C330.029,323.391,330.027,321.8,330,320.209Z" transform="translate(-168.18 -149.38)" fill="#e6e6e6"/>
    <path id="Path_53" data-name="Path 53" d="M428.19,218.741h0c16.5,0,29.875,16.187,29.875,36.155v25.369H450.91l-4.142-9.4,1.036,9.4h-45.99l-3.766-8.545.941,8.545h-5.178v-19.92C393.811,237.368,409.2,218.741,428.19,218.741Z" transform="translate(-191.537 -118.069)" fill="#2f2e41"/>
    <path id="Path_54" data-name="Path 54" d="M364.084,482.024s-7.607,24.2,2.536,23.505,9.509-26.27,9.509-26.27Z" transform="translate(-179.653 -198.484)" fill="#ffb9b9"/>
    <path id="Path_55" data-name="Path 55" d="M376.585,320.259h-6.974l-6.34,67.059s-6.973.691-3.8,8.3,3.17,4.839,2.536,10.37-1.268,8.3-1.268,8.987,3.17,0,0,4.839-5.072,6.913-5.072,9.679,3.17,9.679,3.17,9.679,15.215-11.061,16.483-2.074l8.241-47.01,2.536-33.184Z" transform="translate(-177.574 -149.405)" fill="#6c63ff"/>
    <path id="Path_56" data-name="Path 56" d="M414.06,260.14h5.072L416.6,336.186,403.917,307.15Z" transform="translate(-147.85 -80.299)" fill="#6c63ff"/>
    <path id="Path_57" data-name="Path 57" d="M414.06,260.14h5.072L416.6,336.186,403.917,307.15Z" transform="translate(-147.85 -80.299)" opacity="0.1"/>
    <path id="Path_58" data-name="Path 58" d="M428.174,625.093s50.677-24.165,55.98-61.6a45.062,45.062,0,0,0,.442-5.622c.634-40.622-8.241-49.609-8.241-49.609l-57.69,9.678Z" transform="translate(-200.635 -207.436)" fill="#6c63ff"/>
    <path id="Path_59" data-name="Path 59" d="M428.174,625.093s50.677-24.165,55.98-61.6a45.062,45.062,0,0,0,.442-5.622c.634-40.622-8.241-49.609-8.241-49.609l-57.69,9.678Z" transform="translate(-200.635 -207.436)" opacity="0.1"/>
    <path id="Path_60" data-name="Path 60" d="M463.665,525.912l12.679,63.6,5.706,21.431s2.536,17.974,7.607,30.418S501.068,678.7,501.068,678.7h12.045l-12.045-78.811s-4.438-71.9-9.509-77.428S463.665,525.912,463.665,525.912Z" transform="translate(-217.107 -211.262)" fill="#ffb9b9"/>
    <ellipse id="Ellipse_20" data-name="Ellipse 20" cx="19.653" cy="21.431" rx="19.653" ry="21.431" transform="translate(220.883 113.128)" fill="#ffb9b9"/>
    <path id="Path_61" data-name="Path 61" d="M424.051,284.259s2.536,17.283-12.045,22.122,31.064,74.663,31.064,74.663,20.287-61.528,15.215-67.059c0,0-18.385-2.765-16.483-14.518s3.17-13.135,3.17-13.135Z" transform="translate(-197.145 -138.292)" fill="#ffb9b9"/>
    <path id="Path_62" data-name="Path 62" d="M369.917,437.186l43.743-12.444L390.2,361.14Z" transform="translate(-135.404 -111.475)" fill="#3f3d56"/>
    <path id="Path_63" data-name="Path 63" d="M532.485,741.259,514.1,742.642s-3.17,15.209,1.9,24.888c2.663,5.081,4.452,12.83,5.55,19.045,1.307,7.8,7.407,13.568,14.674,13.872,4,.108,7.415-1.379,7.669-6.647.634-13.135-10.143-37.331-10.143-37.331Z" transform="translate(-235.21 -279.357)" fill="#2f2e41"/>
    <path id="Path_64" data-name="Path 64" d="M381.651,771.749H364.325a94.544,94.544,0,0,1,2.821-13.508v-.007c.678-2.434,1.2-3.975,1.2-3.975l12.679,8.3.311,4.618Z" transform="translate(-180.744 -283.37)" fill="#2f2e41"/>
    <path id="Path_65" data-name="Path 65" d="M425.891,376.271s-10.919-46.925-26.7-62.177c0,0-24.653-2.808-25.921,4.8l17.117,53.923a11.364,11.364,0,0,0,.634,13.135L365.665,609.939s3.17,3.457,1.9,7.6,3.17,14.518,3.17,14.518,10.777-2.074,20.286,0,29.162-12.444,29.162-12.444l15.849-194.262s25.358,38.023,29.162,78.12V460.613s-3.8-8.3-2.536-13.135-3.17-14.518-3.17-14.518l-3.8-14.518-12.679-41.479s8.875-13.135,6.34-28.344l3.17-21.431s-17.437-10.295-20.764-7.913C431.753,319.274,441.106,348.618,425.891,376.271Z" transform="translate(-181.235 -147.345)" fill="#6c63ff"/>
    <path id="Path_66" data-name="Path 66" d="M417.276,227.909a15.294,15.294,0,0,1,12.363-6.879h.587c11.309,0,20.476,11.159,20.476,24.925h-3.789l-.612-5.08-.9,5.08H422.929l-1.883-4.3.471,4.3H417.1q-3.095,16.76,8.893,33.52h-7.532l-3.766-8.595.941,8.595H401.275l-2.824-19.768C398.451,244.9,406.339,232.348,417.276,227.909Z" transform="translate(-193.236 -118.775)" fill="#2f2e41"/>
    <path id="Path_67" data-name="Path 67" d="M807.25,751.529c-5.666,22.839-25.072,36.984-25.072,36.984s-10.22-22.885-4.555-45.724,25.072-36.984,25.072-36.984S812.915,728.691,807.25,751.529Z" transform="translate(-331.404 -268.413)" fill="#6c63ff"/>
    <path id="Path_68" data-name="Path 68" d="M743.054,751.529c5.666,22.839,25.072,36.984,25.072,36.984s10.22-22.885,4.555-45.724-25.072-36.984-25.072-36.984S737.388,728.691,743.054,751.529Z" transform="translate(-318.75 -268.413)" fill="#6c63ff"/>
    <path id="Path_69" data-name="Path 69" d="M734.74,756.856c15.547,16.5,17.446,41.874,17.446,41.874s-23.307-1.388-38.854-17.892-17.446-41.874-17.446-41.874S719.193,740.353,734.74,756.856Z" transform="translate(-302.111 -278.649)" fill="#3f3d56"/>
    <path id="Path_70" data-name="Path 70" d="M802.139,756.856c-15.547,16.5-17.446,41.874-17.446,41.874s23.307-1.388,38.854-17.892,17.445-41.874,17.445-41.874S817.685,740.353,802.139,756.856Z" transform="translate(-334.618 -278.649)" fill="#3f3d56"/>
  </g>
</svg>
