<svg xmlns="http://www.w3.org/2000/svg" xmlns:xlink="http://www.w3.org/1999/xlink" width="711.911" height="522.547" viewBox="0 0 711.911 522.547">
  <defs>
    <linearGradient id="linear-gradient" x1="0.5" y1="1" x2="0.5" gradientUnits="objectBoundingBox">
      <stop offset="0" stop-color="#6c63ff"/>
      <stop offset="1" stop-color="#3f3d56"/>
    </linearGradient>
    <linearGradient id="linear-gradient-2" x1="-0.358" y1="1" x2="-0.358" gradientUnits="objectBoundingBox">
      <stop offset="0" stop-color="gray" stop-opacity="0.251"/>
      <stop offset="0.54" stop-color="gray" stop-opacity="0.122"/>
      <stop offset="1" stop-color="gray" stop-opacity="0.102"/>
    </linearGradient>
  </defs>
  <g id="Group_96" data-name="Group 96" transform="translate(0 0.005)">
    <path id="Path_2100" data-name="Path 2100" d="M686.923,302.3q-4.195-6.452-8.911-12.484a169.307,169.307,0,0,0-58.026-47.812,155.28,155.28,0,0,0-18.739-7.838q-6.652-2.286-13.531-3.942l-8.653-1.859c-44.018-8.075-89.151,3.52-125.315,32.194q-6.454-.861-13.064-1.15c-.168-.506-.342-1.012-.521-1.524q-2.205-6.4-4.728-12.615a249.863,249.863,0,0,0-37.393-63.653c-.707-.867-1.414-1.735-2.133-2.589a235.046,235.046,0,0,0-33.894-33.226c-38.19-30.413-84.179-46.8-131.38-46.807h-.318q-5.249,0-10.433.269l-13.345,1.1c-1.1.125-2.193.256-3.284.407h0l-13.489,2.234q-5.357,1.064-10.625,2.424c-47.726,12.315-90.472,41.4-121.726,82.819q-5.681,7.51-10.787,15.526c-1.624,2.536-3.206,5.092-4.734,7.694-.737,1.248-1.462,2.5-2.181,3.758q-3.56,6.248-6.748,12.74-3.4,6.879-6.4,14.008a.981.981,0,0,0-.048.118A259.844,259.844,0,0,0,11.7,289.729h0q-1.36,6.465-2.4,13.049-.407,2.523-.755,5.059l-.072.565c-.6,4.6-1.133,9.2-1.522,13.883l-.521.053c.042.138.084.276.114.421a3.756,3.756,0,0,0,.348.2c-.048.6-.09,1.2-.132,1.787a6.188,6.188,0,0,1-.114,1.583Q6,335.531,6,344.952A263.861,263.861,0,0,0,31.492,458.921l.234.486c17.02,35.38,41.623,65.7,71.694,88.344A213.367,213.367,0,0,0,182.6,585.314l4.956,1.11a200.216,200.216,0,0,0,20.872,3.285,208.73,208.73,0,0,0,21.891,1.15,206,206,0,0,0,30.76-2.3h263.9l2.145.361c66.049,10.68,131.53-22.933,166.348-85.391s32.239-141.68-6.551-201.258Z" transform="translate(-6 -68.338)" fill="url(#linear-gradient)"/>
    <path id="Path_2101" data-name="Path 2101" d="M598.659,449.32h0c-.03-2.148-.1-4.271-.2-6.4q-.192-4.008-.533-7.983a196.245,196.245,0,0,0-3.254-22.339c-.066-.329-.138-.657-.21-.992q-1.8-8.509-4.3-16.708-1.69-5.506-3.685-10.808h0q-.707-1.912-1.462-3.778a185.8,185.8,0,0,0-7.79-17.083h0l-.378-.723c-.869-1.656-1.8-3.285-2.685-4.934h0l-.366-.657c-.174-.309-.348-.572-.5-.867v-.039q-1.762-3.068-3.631-6.038A180.135,180.135,0,0,0,556.9,332.165h0a173.762,173.762,0,0,0-22.226-22.72h0c-2-1.675-4.015-3.318-6.082-4.908h0a155.6,155.6,0,0,0-74.775-31.459q-6.454-.861-13.064-1.15c-1.085-.053-2.169-.085-3.254-.105-1.2-.039-2.4-.046-3.6-.046a151.356,151.356,0,0,0-55.239,10.407c-29.52-55.676-83.819-89.937-142.556-89.947a148.36,148.36,0,0,0-17.594,1.032c-.647.059-1.294.145-1.942.23a151.327,151.327,0,0,0-23.473,4.961c-2.289-4.126-4.728-8.167-7.311-12.076s-5.208-7.615-8.012-11.229q-3.6-4.6-7.419-8.949a3.508,3.508,0,0,0-.252-.276,171.031,171.031,0,0,0-12.548-12.72c-2.337-2.142-4.728-4.218-7.191-6.2q-4.62-3.784-9.486-7.188-3.416-2.4-6.939-4.6a229.743,229.743,0,0,0-76.53,65.46q-5.681,7.51-10.787,15.526c-1.624,2.536-3.206,5.092-4.734,7.694-.737,1.248-1.462,2.5-2.181,3.758q-3.56,6.248-6.748,12.74-3.4,6.879-6.4,14.008a.981.981,0,0,0-.048.118A259.843,259.843,0,0,0,11.7,302.151h0q-1.36,6.465-2.4,13.049-.407,2.523-.755,5.059l-.072.565c-.6,4.6-1.133,9.2-1.522,13.883l-.521.053c.042.138.084.276.114.421a3.756,3.756,0,0,0,.348.2c-.048.6-.09,1.2-.132,1.787a6.188,6.188,0,0,1-.114,1.583Q6,347.953,6,357.375A263.861,263.861,0,0,0,31.492,471.343c.2.033.4.066.6.085h0a151.482,151.482,0,0,0,63.047-4.9q2.8,5.072,5.909,9.921,2.3,3.6,4.746,7.056a170.994,170.994,0,0,0,49.828,47.1c.845.526,1.7,1.031,2.559,1.537a155.272,155.272,0,0,0,24,11.524q4.794,1.833,9.774,3.344c.186.053.372.118.557.164a150.479,150.479,0,0,0,31.838,5.913q5.825.466,11.757.467a152.267,152.267,0,0,0,26.566-2.338,150.486,150.486,0,0,0,16.292-3.857h0q6.292-1.846,12.375-4.225,1.708,3.213,3.53,6.334a178.3,178.3,0,0,0,13.753,20.342q3.769,4.849,7.856,9.389a170.21,170.21,0,0,0,23.641,21.813H524.981l2.145.361a171.052,171.052,0,0,0,24.132-22.148c23.616-26.242,39.323-59.794,45-96.13q.821-5.256,1.36-10.552a199.7,199.7,0,0,0,1.037-20.125Z" transform="translate(-6 -80.76)" fill="#6c63ff" opacity="0.3"/>
    <path id="Path_2102" data-name="Path 2102" d="M918.75,507.954c-.043,65.43-31.971,125.847-83.721,158.43H510.558q-.6-4.7-1.085-9.389c-.258-2.339-.5-4.672-.725-7.01-.4-4.061-.743-8.154-1.013-12.28-1.438-22.089-.6-44.678,7.431-64.448a81.16,81.16,0,0,1,3.4-7.4,82.754,82.754,0,0,1,6.262-10.1,89.5,89.5,0,0,1,6.592-8.036,103.169,103.169,0,0,1,10.013-9.461c1.684-1.4,3.416-2.76,5.177-4.067l.324-.236a167.964,167.964,0,0,1,28.974-16.767l2.073-.946.539-.243c.977-.447,1.954-.874,2.93-1.314l.39-.171q7.916-3.456,15.946-6.413a287.173,287.173,0,0,1,27.667-8.666q3.488-.907,7-1.715,3.4-.8,6.814-1.5,7.556-1.577,15.173-2.733c.527-.079,1.049-.158,1.576-.223l3.32-.48.6-.079c.953-.131,1.912-.25,2.87-.368,3.913-.493,7.832-.913,11.751-1.314h0a1.194,1.194,0,0,0,.455-.059h.036q6.226-.578,12.464-1.078l2.912-.237,2.4-.184,14.238-1.1c3.847-.322,7.688-.657,11.53-1.032.653-.059,1.3-.118,1.954-.19l1.324-.138a2.234,2.234,0,0,0,.359-.039h.168l2.223-.243a.915.915,0,0,1,.132,0h0c.641-.066,1.271-.138,1.906-.217,5.094-.578,10.187-1.262,15.245-2.1l1.546-.25A201.6,201.6,0,0,0,769.441,478q2.924-.913,5.813-1.932,3.314-1.176,6.592-2.5l.923-.375q2.283-.985,4.53-1.971h0c2.181-.986,4.339-2.043,6.46-3.154l.276-.138q3.787-1.971,7.431-4.231c1.127-.7,2.247-1.419,3.35-2.162a107.294,107.294,0,0,0,15.736-12.694c.372-.368.737-.729,1.1-1.1l.12-.118A174.076,174.076,0,0,0,835.2,431.863c5.956-7.674,11.721-15.565,18.3-22.589q2.876-3.075,5.992-5.913c2.4-2.168,4.842-4.212,7.383-6.13l.378-.289a107.069,107.069,0,0,1,11.6-7.6q4.7,6.025,8.911,12.484C907.979,432.766,918.818,469.891,918.75,507.954Z" transform="translate(-206.84 -167.916)" fill="#6c63ff"/>
    <path id="Path_2103" data-name="Path 2103" d="M918.75,507.954c-.043,65.43-31.971,125.847-83.721,158.43H510.558q-.6-4.7-1.085-9.389c-.258-2.339-.5-4.672-.725-7.01-.4-4.061-.743-8.154-1.013-12.28-1.438-22.089-.6-44.678,7.431-64.448a81.16,81.16,0,0,1,3.4-7.4,82.754,82.754,0,0,1,6.262-10.1,89.5,89.5,0,0,1,6.592-8.036,103.169,103.169,0,0,1,10.013-9.461c1.684-1.4,3.416-2.76,5.177-4.067l.324-.236a167.964,167.964,0,0,1,28.974-16.767l2.073-.946.539-.243c.977-.447,1.954-.874,2.93-1.314l.39-.171q7.916-3.456,15.946-6.413a287.173,287.173,0,0,1,27.667-8.666q3.488-.907,7-1.715,3.4-.8,6.814-1.5,7.556-1.577,15.173-2.733c.527-.079,1.049-.158,1.576-.223l3.32-.48.6-.079c.953-.131,1.912-.25,2.87-.368,3.913-.493,7.832-.913,11.751-1.314h0a1.194,1.194,0,0,0,.455-.059h.036q6.226-.578,12.464-1.078l2.912-.237,2.4-.184,14.238-1.1c3.847-.322,7.688-.657,11.53-1.032.653-.059,1.3-.118,1.954-.19l1.324-.138a2.234,2.234,0,0,0,.359-.039h.168l2.223-.243a.915.915,0,0,1,.132,0h0c.641-.066,1.271-.138,1.906-.217,5.094-.578,10.187-1.262,15.245-2.1l1.546-.25A201.6,201.6,0,0,0,769.441,478q2.924-.913,5.813-1.932,3.314-1.176,6.592-2.5l.923-.375q2.283-.985,4.53-1.971h0c2.181-.986,4.339-2.043,6.46-3.154l.276-.138q3.787-1.971,7.431-4.231c1.127-.7,2.247-1.419,3.35-2.162a107.294,107.294,0,0,0,15.736-12.694c.372-.368.737-.729,1.1-1.1l.12-.118A174.076,174.076,0,0,0,835.2,431.863c5.956-7.674,11.721-15.565,18.3-22.589q2.876-3.075,5.992-5.913c2.4-2.168,4.842-4.212,7.383-6.13l.378-.289a107.069,107.069,0,0,1,11.6-7.6q4.7,6.025,8.911,12.484C907.979,432.766,918.818,469.891,918.75,507.954Z" transform="translate(-206.84 -167.916)" opacity="0.2"/>
    <ellipse id="Ellipse_263" data-name="Ellipse 263" cx="3.242" cy="4.658" rx="3.242" ry="4.658" transform="translate(114.984 326.995)" fill="#3f3d56"/>
    <ellipse id="Ellipse_264" data-name="Ellipse 264" cx="3.242" cy="4.658" rx="3.242" ry="4.658" transform="translate(114.984 321.305)" fill="#3f3d56"/>
    <ellipse id="Ellipse_265" data-name="Ellipse 265" cx="3.242" cy="4.658" rx="3.242" ry="4.658" transform="translate(114.984 315.616)" fill="#3f3d56"/>
    <ellipse id="Ellipse_266" data-name="Ellipse 266" cx="3.242" cy="4.658" rx="3.242" ry="4.658" transform="translate(114.984 309.926)" fill="#3f3d56"/>
    <ellipse id="Ellipse_267" data-name="Ellipse 267" cx="3.242" cy="4.658" rx="3.242" ry="4.658" transform="translate(114.984 304.236)" fill="#3f3d56"/>
    <ellipse id="Ellipse_268" data-name="Ellipse 268" cx="3.242" cy="4.658" rx="3.242" ry="4.658" transform="translate(114.984 298.546)" fill="#3f3d56"/>
    <ellipse id="Ellipse_269" data-name="Ellipse 269" cx="3.242" cy="4.658" rx="3.242" ry="4.658" transform="translate(114.984 292.856)" fill="#3f3d56"/>
    <path id="Path_2104" data-name="Path 2104" d="M204.951,431.461a17.484,17.484,0,0,0,1.2-1.971l-8.521-1.531,9.216.072a18.6,18.6,0,0,0,.294-13.5l-12.369,7.03,11.386-9.2a15.274,15.274,0,0,0-14.2-8.51,15.608,15.608,0,0,0-13.4,9.948,18.388,18.388,0,0,0,1.934,17.616,17.326,17.326,0,0,0-1.8,3.108l11.068,6.3-11.8-4.343a18.365,18.365,0,0,0,2.5,16,18.238,18.238,0,0,0,1.669,23.048,14.552,14.552,0,0,0,21.087,0,18.238,18.238,0,0,0,1.669-23.048,18.336,18.336,0,0,0,0-21.064Z" transform="translate(-74.584 -172.888)" fill="#6c63ff"/>
    <path id="Path_2105" data-name="Path 2105" d="M177.239,461.779a18.048,18.048,0,0,0,3.324,10.51,18.238,18.238,0,0,0,1.669,23.047,14.552,14.552,0,0,0,21.087,0,18.238,18.238,0,0,0,1.672-23.047C207.058,469.414,177.239,459.867,177.239,461.779Z" transform="translate(-74.623 -192.675)" opacity="0.03"/>
    <ellipse id="Ellipse_270" data-name="Ellipse 270" cx="3.242" cy="4.658" rx="3.242" ry="4.658" transform="translate(149.141 342.107)" fill="#3f3d56"/>
    <ellipse id="Ellipse_271" data-name="Ellipse 271" cx="3.242" cy="4.658" rx="3.242" ry="4.658" transform="translate(149.141 336.417)" fill="#3f3d56"/>
    <ellipse id="Ellipse_272" data-name="Ellipse 272" cx="3.242" cy="4.658" rx="3.242" ry="4.658" transform="translate(149.141 330.727)" fill="#3f3d56"/>
    <ellipse id="Ellipse_273" data-name="Ellipse 273" cx="3.242" cy="4.658" rx="3.242" ry="4.658" transform="translate(149.141 325.037)" fill="#3f3d56"/>
    <ellipse id="Ellipse_274" data-name="Ellipse 274" cx="3.242" cy="4.658" rx="3.242" ry="4.658" transform="translate(149.141 319.348)" fill="#3f3d56"/>
    <ellipse id="Ellipse_275" data-name="Ellipse 275" cx="3.242" cy="4.658" rx="3.242" ry="4.658" transform="translate(149.141 313.658)" fill="#3f3d56"/>
    <ellipse id="Ellipse_276" data-name="Ellipse 276" cx="3.242" cy="4.658" rx="3.242" ry="4.658" transform="translate(149.141 307.968)" fill="#3f3d56"/>
    <path id="Path_2106" data-name="Path 2106" d="M261.951,454.461a17.5,17.5,0,0,0,1.2-1.971l-8.521-1.531,9.216.072a18.6,18.6,0,0,0,.294-13.5l-12.369,7.03,11.386-9.2a15.274,15.274,0,0,0-14.2-8.51,15.608,15.608,0,0,0-13.4,9.948,18.388,18.388,0,0,0,1.934,17.616,17.327,17.327,0,0,0-1.8,3.108l11.068,6.3-11.8-4.343a18.365,18.365,0,0,0,2.5,16,18.238,18.238,0,0,0,1.669,23.048,14.552,14.552,0,0,0,21.087,0,18.238,18.238,0,0,0,1.669-23.048,18.336,18.336,0,0,0,0-21.064Z" transform="translate(-97.427 -180.777)" fill="#6c63ff"/>
    <path id="Path_2107" data-name="Path 2107" d="M234.239,484.779a18.048,18.048,0,0,0,3.324,10.51,18.238,18.238,0,0,0,1.668,23.047,14.552,14.552,0,0,0,21.087,0,18.238,18.238,0,0,0,1.672-23.047C264.058,492.414,234.239,482.867,234.239,484.779Z" transform="translate(-97.466 -200.563)" opacity="0.03"/>
    <ellipse id="Ellipse_277" data-name="Ellipse 277" cx="3.242" cy="4.658" rx="3.242" ry="4.658" transform="translate(369.067 355.905)" fill="#3f3d56"/>
    <ellipse id="Ellipse_278" data-name="Ellipse 278" cx="3.242" cy="4.658" rx="3.242" ry="4.658" transform="translate(369.067 350.215)" fill="#3f3d56"/>
    <ellipse id="Ellipse_279" data-name="Ellipse 279" cx="3.242" cy="4.658" rx="3.242" ry="4.658" transform="translate(369.067 344.525)" fill="#3f3d56"/>
    <ellipse id="Ellipse_280" data-name="Ellipse 280" cx="3.242" cy="4.658" rx="3.242" ry="4.658" transform="translate(369.067 338.835)" fill="#3f3d56"/>
    <ellipse id="Ellipse_281" data-name="Ellipse 281" cx="3.242" cy="4.658" rx="3.242" ry="4.658" transform="translate(369.067 333.145)" fill="#3f3d56"/>
    <ellipse id="Ellipse_282" data-name="Ellipse 282" cx="3.242" cy="4.658" rx="3.242" ry="4.658" transform="translate(369.067 327.455)" fill="#3f3d56"/>
    <ellipse id="Ellipse_283" data-name="Ellipse 283" cx="3.242" cy="4.658" rx="3.242" ry="4.658" transform="translate(369.067 321.765)" fill="#3f3d56"/>
    <path id="Path_2108" data-name="Path 2108" d="M628.951,475.461a17.486,17.486,0,0,0,1.2-1.971l-8.521-1.531,9.216.072a18.6,18.6,0,0,0,.294-13.5l-12.369,7.03,11.386-9.2a15.274,15.274,0,0,0-14.2-8.51,15.608,15.608,0,0,0-13.4,9.948,18.388,18.388,0,0,0,1.934,17.616,17.33,17.33,0,0,0-1.8,3.108l11.068,6.3-11.8-4.343a18.365,18.365,0,0,0,2.5,16,18.238,18.238,0,0,0,1.669,23.048,14.552,14.552,0,0,0,21.087,0,18.238,18.238,0,0,0,1.669-23.048,18.336,18.336,0,0,0,0-21.064Z" transform="translate(-244.502 -187.979)" fill="#6c63ff"/>
    <path id="Path_2109" data-name="Path 2109" d="M601.239,505.779a18.048,18.048,0,0,0,3.324,10.51,18.238,18.238,0,0,0,1.668,23.047,14.552,14.552,0,0,0,21.087,0,18.238,18.238,0,0,0,1.672-23.047C631.058,513.414,601.239,503.867,601.239,505.779Z" transform="translate(-244.541 -207.765)" opacity="0.03"/>
    <ellipse id="Ellipse_284" data-name="Ellipse 284" cx="3.242" cy="4.658" rx="3.242" ry="4.658" transform="translate(403.224 378.901)" fill="#3f3d56"/>
    <ellipse id="Ellipse_285" data-name="Ellipse 285" cx="3.242" cy="4.658" rx="3.242" ry="4.658" transform="translate(403.224 373.211)" fill="#3f3d56"/>
    <ellipse id="Ellipse_286" data-name="Ellipse 286" cx="3.242" cy="4.658" rx="3.242" ry="4.658" transform="translate(403.224 367.521)" fill="#3f3d56"/>
    <ellipse id="Ellipse_287" data-name="Ellipse 287" cx="3.242" cy="4.658" rx="3.242" ry="4.658" transform="translate(403.224 361.831)" fill="#3f3d56"/>
    <ellipse id="Ellipse_288" data-name="Ellipse 288" cx="3.242" cy="4.658" rx="3.242" ry="4.658" transform="translate(403.224 356.141)" fill="#3f3d56"/>
    <ellipse id="Ellipse_289" data-name="Ellipse 289" cx="3.242" cy="4.658" rx="3.242" ry="4.658" transform="translate(403.224 350.451)" fill="#3f3d56"/>
    <ellipse id="Ellipse_290" data-name="Ellipse 290" cx="3.242" cy="4.658" rx="3.242" ry="4.658" transform="translate(403.224 344.761)" fill="#3f3d56"/>
    <path id="Path_2110" data-name="Path 2110" d="M685.951,510.461a17.5,17.5,0,0,0,1.2-1.971l-8.521-1.531,9.217.072a18.6,18.6,0,0,0,.294-13.5l-12.368,7.03,11.386-9.2a15.275,15.275,0,0,0-14.2-8.51,15.608,15.608,0,0,0-13.4,9.948,18.388,18.388,0,0,0,1.934,17.616,17.334,17.334,0,0,0-1.8,3.108l11.068,6.3-11.8-4.343a18.364,18.364,0,0,0,2.5,16,18.238,18.238,0,0,0,1.669,23.048,14.552,14.552,0,0,0,21.087,0,18.238,18.238,0,0,0,1.669-23.048,18.336,18.336,0,0,0,0-21.064Z" transform="translate(-267.344 -199.983)" fill="#6c63ff"/>
    <path id="Path_2111" data-name="Path 2111" d="M658.239,540.779a18.048,18.048,0,0,0,3.324,10.51,18.238,18.238,0,0,0,1.669,23.047,14.552,14.552,0,0,0,21.087,0,18.238,18.238,0,0,0,1.672-23.047C688.058,548.414,658.239,538.867,658.239,540.779Z" transform="translate(-267.383 -219.769)" opacity="0.03"/>
    <ellipse id="Ellipse_291" data-name="Ellipse 291" cx="3.242" cy="4.658" rx="3.242" ry="4.658" transform="translate(437.981 408.467)" fill="#3f3d56"/>
    <ellipse id="Ellipse_292" data-name="Ellipse 292" cx="3.242" cy="4.658" rx="3.242" ry="4.658" transform="translate(437.981 402.777)" fill="#3f3d56"/>
    <ellipse id="Ellipse_293" data-name="Ellipse 293" cx="3.242" cy="4.658" rx="3.242" ry="4.658" transform="translate(437.981 397.087)" fill="#3f3d56"/>
    <ellipse id="Ellipse_294" data-name="Ellipse 294" cx="3.242" cy="4.658" rx="3.242" ry="4.658" transform="translate(437.981 391.397)" fill="#3f3d56"/>
    <ellipse id="Ellipse_295" data-name="Ellipse 295" cx="3.242" cy="4.658" rx="3.242" ry="4.658" transform="translate(437.981 385.708)" fill="#3f3d56"/>
    <ellipse id="Ellipse_296" data-name="Ellipse 296" cx="3.242" cy="4.658" rx="3.242" ry="4.658" transform="translate(437.981 380.018)" fill="#3f3d56"/>
    <ellipse id="Ellipse_297" data-name="Ellipse 297" cx="3.242" cy="4.658" rx="3.242" ry="4.658" transform="translate(437.981 374.328)" fill="#3f3d56"/>
    <path id="Path_2112" data-name="Path 2112" d="M743.951,555.461a17.485,17.485,0,0,0,1.2-1.971l-8.521-1.531,9.216.072a18.6,18.6,0,0,0,.294-13.5l-12.369,7.03,11.386-9.2a15.274,15.274,0,0,0-14.2-8.51,15.608,15.608,0,0,0-13.4,9.948,18.388,18.388,0,0,0,1.934,17.616,17.324,17.324,0,0,0-1.8,3.108l11.068,6.3-11.8-4.343a18.365,18.365,0,0,0,2.5,16,18.238,18.238,0,0,0,1.669,23.048,14.552,14.552,0,0,0,21.087,0,18.238,18.238,0,0,0,1.669-23.048,18.336,18.336,0,0,0,0-21.064Z" transform="translate(-290.588 -215.417)" fill="#6c63ff"/>
    <path id="Path_2113" data-name="Path 2113" d="M716.239,585.779a18.047,18.047,0,0,0,3.324,10.51,18.238,18.238,0,0,0,1.668,23.047,14.552,14.552,0,0,0,21.087,0,18.238,18.238,0,0,0,1.672-23.047C746.057,593.414,716.239,583.867,716.239,585.779Z" transform="translate(-290.627 -235.203)" opacity="0.03"/>
    <ellipse id="Ellipse_298" data-name="Ellipse 298" cx="3.242" cy="4.658" rx="3.242" ry="4.658" transform="translate(464.947 357.219)" fill="#3f3d56"/>
    <ellipse id="Ellipse_299" data-name="Ellipse 299" cx="3.242" cy="4.658" rx="3.242" ry="4.658" transform="translate(464.947 351.529)" fill="#3f3d56"/>
    <ellipse id="Ellipse_300" data-name="Ellipse 300" cx="3.242" cy="4.658" rx="3.242" ry="4.658" transform="translate(464.947 345.839)" fill="#3f3d56"/>
    <ellipse id="Ellipse_301" data-name="Ellipse 301" cx="3.242" cy="4.658" rx="3.242" ry="4.658" transform="translate(464.947 340.149)" fill="#3f3d56"/>
    <ellipse id="Ellipse_302" data-name="Ellipse 302" cx="3.242" cy="4.658" rx="3.242" ry="4.658" transform="translate(464.947 334.459)" fill="#3f3d56"/>
    <ellipse id="Ellipse_303" data-name="Ellipse 303" cx="3.242" cy="4.658" rx="3.242" ry="4.658" transform="translate(464.947 328.769)" fill="#3f3d56"/>
    <ellipse id="Ellipse_304" data-name="Ellipse 304" cx="3.242" cy="4.658" rx="3.242" ry="4.658" transform="translate(464.947 323.079)" fill="#3f3d56"/>
    <path id="Path_2114" data-name="Path 2114" d="M788.951,477.461a17.5,17.5,0,0,0,1.2-1.971l-8.521-1.531,9.217.072a18.6,18.6,0,0,0,.294-13.5l-12.369,7.03,11.386-9.2a15.274,15.274,0,0,0-14.2-8.51,15.608,15.608,0,0,0-13.4,9.948,18.388,18.388,0,0,0,1.934,17.616,17.324,17.324,0,0,0-1.8,3.108l11.068,6.3-11.8-4.343a18.364,18.364,0,0,0,2.5,16,18.238,18.238,0,0,0,1.669,23.048,14.552,14.552,0,0,0,21.087,0,18.238,18.238,0,0,0,1.669-23.048,18.336,18.336,0,0,0,0-21.064Z" transform="translate(-308.621 -188.665)" fill="#6c63ff"/>
    <path id="Path_2115" data-name="Path 2115" d="M761.239,507.779a18.048,18.048,0,0,0,3.324,10.51,18.238,18.238,0,0,0,1.669,23.047,14.552,14.552,0,0,0,21.087,0,18.238,18.238,0,0,0,1.672-23.047C791.057,515.414,761.239,505.867,761.239,507.779Z" transform="translate(-308.661 -208.451)" opacity="0.03"/>
    <ellipse id="Ellipse_305" data-name="Ellipse 305" cx="3.242" cy="4.658" rx="3.242" ry="4.658" transform="translate(663.299 285.603)" fill="#3f3d56"/>
    <ellipse id="Ellipse_306" data-name="Ellipse 306" cx="3.242" cy="4.658" rx="3.242" ry="4.658" transform="translate(663.299 279.913)" fill="#3f3d56"/>
    <ellipse id="Ellipse_307" data-name="Ellipse 307" cx="3.242" cy="4.658" rx="3.242" ry="4.658" transform="translate(663.299 274.223)" fill="#3f3d56"/>
    <ellipse id="Ellipse_308" data-name="Ellipse 308" cx="3.242" cy="4.658" rx="3.242" ry="4.658" transform="translate(663.299 268.533)" fill="#3f3d56"/>
    <ellipse id="Ellipse_309" data-name="Ellipse 309" cx="3.242" cy="4.658" rx="3.242" ry="4.658" transform="translate(663.299 262.843)" fill="#3f3d56"/>
    <ellipse id="Ellipse_310" data-name="Ellipse 310" cx="3.242" cy="4.658" rx="3.242" ry="4.658" transform="translate(663.299 257.153)" fill="#3f3d56"/>
    <ellipse id="Ellipse_311" data-name="Ellipse 311" cx="3.242" cy="4.658" rx="3.242" ry="4.658" transform="translate(663.299 251.463)" fill="#3f3d56"/>
    <path id="Path_2116" data-name="Path 2116" d="M1123.367,405.562v1.951c0,.1-.042.361-.066.545v.223a3,3,0,0,1-.1.565q-.022.166-.06.329c-.042.243-.1.473-.156.71s-.114.48-.18.7a14.93,14.93,0,0,1-.533,1.6c-.1.263-.2.512-.312.762s-.2.453-.312.657-.174.355-.264.526-.18.329-.282.493a2.192,2.192,0,0,0-.114.2c-.042.072-.168.283-.252.414a.789.789,0,0,1-.09.131c-.1.171-.216.342-.336.506a16.667,16.667,0,0,1-1.984,2.359c-.156.158-.312.3-.474.447l-.054.046-.425.375-.228.177c-.138.118-.287.23-.431.335a14.339,14.339,0,0,1-2.145,1.347,14.331,14.331,0,0,1-1.2.532c-.216.072-.246.112-.372.151l-.216.085-.6.184-.6.177a1.419,1.419,0,0,1-.228.053l-.509.118a10.845,10.845,0,0,1-1.121.2h-.06c-.132,0-.27.039-.4.046a3.741,3.741,0,0,1-.468.039h-1.78a3.546,3.546,0,0,1-.461-.039,2.539,2.539,0,0,1-.384-.039h0a11.082,11.082,0,0,1-1.151-.184c-.2-.039-.4-.092-.6-.145a.329.329,0,0,1-.132-.033,14.718,14.718,0,0,1-2.457-.874,13,13,0,0,1-1.258-.657c-.192-.112-.39-.23-.6-.355l-.419-.283c-.276-.184-.545-.388-.809-.6-.108-.085-.216-.171-.324-.269a2.328,2.328,0,0,1-.228-.191c-.114-.105-.228-.2-.342-.309a.289.289,0,0,1-.09-.085c-.15-.131-.294-.283-.437-.421a16.475,16.475,0,0,1-1.373-1.577c-.144-.184-.281-.375-.413-.559s-.192-.276-.276-.414-.144-.217-.21-.322-.186-.3-.276-.453-.222-.394-.33-.591c-.216-.394-.414-.8-.6-1.216-.084-.191-.162-.374-.234-.572a10.541,10.541,0,0,1-.377-1.032c-.084-.237-.156-.48-.222-.723s-.144-.526-.2-.8a.056.056,0,0,1,0-.033c-.054-.237-.108-.48-.15-.71s-.078-.407-.1-.611-.06-.368-.084-.552a1.142,1.142,0,0,1,0-.145c-.036-.217-.054-.447-.072-.657s-.042-.512-.048-.762,0-.519,0-.782a18.048,18.048,0,0,1,3.324-10.51c-.262-.37-.514-.745-.741-1.132-.078-.125-.15-.243-.216-.368s-.2-.355-.288-.532-.222-.421-.33-.657a.272.272,0,0,1-.03-.059q-.311-.641-.563-1.314c-.06-.158-.114-.309-.168-.46-.15-.44-.282-.88-.4-1.314q-.2-.775-.33-1.57c-.03-.158-.054-.322-.072-.48a.08.08,0,0,1,0-.039,4.139,4.139,0,0,0-.066-.466c-.042-.375-.072-.762-.09-1.15v-.946a18.585,18.585,0,0,1,.821-5.46l11.8,4.343-11.068-6.314a17.491,17.491,0,0,1,1.8-3.1,18.436,18.436,0,0,1-2.085-17.214,175.944,175.944,0,0,1,19.841,21.518q4.7,6.025,8.911,12.484a17.269,17.269,0,0,1-2.193,4.212l-.048.066a18.039,18.039,0,0,1,3.194,10.453Z" transform="translate(-441.36 -156.766)" fill="#6c63ff"/>
    <path id="Path_2117" data-name="Path 2117" d="M1092.239,398.779a18.05,18.05,0,0,0,3.324,10.51,18.238,18.238,0,0,0,1.668,23.047,14.553,14.553,0,0,0,21.087,0,18.238,18.238,0,0,0,1.672-23.047C1122.058,406.414,1092.239,396.867,1092.239,398.779Z" transform="translate(-441.308 -171.067)" opacity="0.03"/>
    <path id="Path_2118" data-name="Path 2118" d="M646.266,223.439q-10.319,3.785-20.866,6.774,9.354-4.8,18.733-9.363C644.852,221.7,645.535,222.571,646.266,223.439Z" transform="translate(-254.224 -110.129)" fill="#6c63ff" opacity="0.3"/>
    <path id="Path_2119" data-name="Path 2119" d="M288.573,99.279q5.184-.276,10.433-.269h.318c-4.267,3.081-8.557,6.038-12.878,8.811-1.085.657-2.169,1.38-3.26,2.043q-1.234.769-2.469,1.5-9.732,5.815-19.6,11.307-7.491,4.166-15.035,8.134-9.858,5.177-19.835,9.98c-16.132,7.746-32.408,14.717-48.851,20.7q20.824-13.8,41.678-26.938,14.772-9.271,29.579-18.265,1.612-.986,3.218-1.971,10.822-6.57,21.681-12.97l1.672-.992Z" transform="translate(-74.689 -68.341)" fill="#6c63ff" opacity="0.3"/>
    <path id="Path_2120" data-name="Path 2120" d="M681.255,321.67q2.523,6.216,4.728,12.615c-.911.48-1.8.946-2.733,1.419-21.076,10.782-42.379,20.506-63.85,28.955q19.614-14.014,39.239-27.543Q669.941,329.318,681.255,321.67Z" transform="translate(-251.819 -144.707)" fill="#6c63ff" opacity="0.3"/>
    <path id="Path_2121" data-name="Path 2121" d="M442.752,683.173c-.108-16.15-2.133-32.07-8-46.478a81.184,81.184,0,0,0-3.4-7.4,82.714,82.714,0,0,0-6.166-9.961,85.576,85.576,0,0,0-5.651-7.037A105.5,105.5,0,0,0,403.3,597.622a170.547,170.547,0,0,0-31.371-17.95,291.8,291.8,0,0,0-41.348-15.112q-2.5-.7-5.028-1.367c-.521-.145-1.043-.276-1.57-.414l-1.7-.427h0c-.971-.25-1.93-.48-2.9-.716q-4.339-1.045-8.7-1.971-7.557-1.577-15.173-2.733c-10.978-1.656-22.028-2.687-33.085-3.574l-5.327-.42h0l-14.238-1.1c-4.752-.394-9.5-.808-14.238-1.314l-1.145-.066-2.223-.243c-1.966-.223-3.937-.447-5.9-.7q-5.7-.71-11.386-1.636-6.322-1.031-12.62-2.431l-.689-.158c-1.115-.25-2.229-.519-3.338-.788-.659-.158-1.312-.322-1.966-.493q-6.04-1.557-11.985-3.522A147.268,147.268,0,0,1,161.092,534q-2.655-1.242-5.249-2.628l-.707-.388a111.16,111.16,0,0,1-27.026-19.915l-.677-.657-1.438-1.511c-.845-.9-1.672-1.827-2.487-2.753s-1.576-1.807-2.355-2.727c-4.524-5.368-8.755-11.058-13.082-16.649-3.745-4.829-7.557-9.579-11.691-14.008-.761-.815-1.534-1.6-2.319-2.385a103.834,103.834,0,0,0-11.392-9.941c-.563-.427-1.133-.841-1.7-1.248q-3.368-2.444-6.909-4.6-3.461-2.109-7.065-3.942-4.794-2.444-9.75-4.4a114.039,114.039,0,0,0-17.145-5.21A113.3,113.3,0,0,0,14.515,438.3h0c-2.529.033-5.058.145-7.569.361l-.521.053c.042.138.084.276.114.42a3.763,3.763,0,0,0,.348.2c-.048.6-.09,1.2-.132,1.787a6.189,6.189,0,0,1-.108,1.577Q6,451.9,6,461.321A263.862,263.862,0,0,0,31.492,575.289l.234.486c17.02,35.38,41.623,65.7,71.694,88.344A213.367,213.367,0,0,0,182.6,701.682l4.956,1.11a200.216,200.216,0,0,0,20.872,3.285,208.73,208.73,0,0,0,21.891,1.15,206,206,0,0,0,30.76-2.3h180.83C442.458,697.727,442.8,690.4,442.752,683.173Z" transform="translate(-6 -184.707)" fill="#3f3d56"/>
    <path id="Path_2122" data-name="Path 2122" d="M558.217,170.17a10.031,10.031,0,0,0-6.322.756,8.568,8.568,0,0,1-7.581,0,9.8,9.8,0,0,0-8.923.191,5.186,5.186,0,0,1-2.571.7c-3.6,0-6.628-3.995-7.251-9.264a7.308,7.308,0,0,0,1.8-2.135c2.115-3.745,5.393-6.15,9.091-6.15s6.933,2.372,9.055,6.078a6.85,6.85,0,0,0,5.992,3.62h.09C554.508,163.948,556.989,166.478,558.217,170.17Z" transform="translate(-214.217 -87.294)" fill="#6c63ff" opacity="0.1"/>
    <path id="Path_2123" data-name="Path 2123" d="M570.248,159.668c-1.1,4.133-3.745,7.057-6.832,7.057a5.135,5.135,0,0,1-2.541-.69,9.8,9.8,0,0,0-8.845-.191,8.7,8.7,0,0,1-3.775.88,8.537,8.537,0,0,1-2.9-.519c-.156-.046-.318-.118-.473-.177a4.541,4.541,0,0,1-.437-.2.279.279,0,0,0-.114-.046,4.3,4.3,0,0,0-.467-.21c-.15-.066-.3-.118-.449-.177a9.748,9.748,0,0,0-7.892.618,5.172,5.172,0,0,1-2.565.71,4.62,4.62,0,0,1-1.439-.23,1.024,1.024,0,0,1-.191-.052,1.067,1.067,0,0,1-.216-.079c-2.786-1.1-4.932-4.639-5.393-9.034a16.639,16.639,0,0,1-.108-1.912c0-6.248,3.3-11.307,7.371-11.307h.2a6.675,6.675,0,0,0,5.992-3.548,11.942,11.942,0,0,1,.773-1.222,221.644,221.644,0,0,1,30.3,20.329Z" transform="translate(-214.233 -82.174)" fill="#6c63ff" opacity="0.1"/>
    <path id="Path_2124" data-name="Path 2124" d="M62.331,308.793a9.667,9.667,0,0,0-2.091-.21,9.925,9.925,0,0,0-4.231.986c-.132.059-.264.125-.4.177a8.551,8.551,0,0,1-3.368.7,8.672,8.672,0,0,1-2.787-.466c-.156-.059-.318-.118-.473-.191s-.372-.151-.551-.243l-.467-.21-.449-.171a9.82,9.82,0,0,0-7.191.177q3-7.135,6.4-14.008a13.985,13.985,0,0,1,2.936,3.647,6.867,6.867,0,0,0,5.993,3.614h.09a4.857,4.857,0,0,1,1.025.112,5.592,5.592,0,0,1,1.8.729h0A9.926,9.926,0,0,1,62.331,308.793Z" transform="translate(-19.754 -135.673)" fill="#6c63ff" opacity="0.1"/>
    <path id="Path_2125" data-name="Path 2125" d="M74.825,290.538c0,6.242-3.3,11.3-7.371,11.3a5.135,5.135,0,0,1-2.541-.69,9.315,9.315,0,0,0-4.7-1.143,9.979,9.979,0,0,0-4.141.94c-.186.085-.366.171-.557.243a8.5,8.5,0,0,1-3.218.657,8.614,8.614,0,0,1-2.555-.388l-.346-.118c-.156-.059-.318-.118-.473-.191a4.274,4.274,0,0,1-.461-.2l-.114-.046c-.156-.079-.306-.138-.467-.21l-.449-.171-.413-.131a9.741,9.741,0,0,0-6.843.427.982.982,0,0,1,.048-.118q3-7.135,6.4-14.008,3.2-6.485,6.748-12.74c.719-1.262,1.444-2.51,2.181-3.758a11.391,11.391,0,0,1,4.668,3.752L57.98,278.4l3.542-2.464a7.115,7.115,0,0,0,3.47,2.884l-.851,1.7,1.984-1.386a6.194,6.194,0,0,0,1.2.105h.1a5.471,5.471,0,0,1,3.536,1.38l-2.4,4.829L67.43,287.7l4.794-3.325,1.067-.742a6.152,6.152,0,0,1,.27.578,15.684,15.684,0,0,1,1.264,6.327Z" transform="translate(-19.694 -127.051)" fill="#6c63ff" opacity="0.1"/>
    <ellipse id="Ellipse_312" data-name="Ellipse 312" cx="21.447" cy="30.782" rx="21.447" ry="30.782" transform="translate(571.098 330.254)" fill="#2f2e41"/>
    <ellipse id="Ellipse_313" data-name="Ellipse 313" cx="21.447" cy="30.782" rx="21.447" ry="30.782" transform="translate(571.098 292.626)" fill="#2f2e41"/>
    <ellipse id="Ellipse_314" data-name="Ellipse 314" cx="21.447" cy="30.782" rx="21.447" ry="30.782" transform="translate(571.098 255.005)" fill="#2f2e41"/>
    <ellipse id="Ellipse_315" data-name="Ellipse 315" cx="21.447" cy="30.782" rx="21.447" ry="30.782" transform="translate(571.098 217.383)" fill="#2f2e41"/>
    <ellipse id="Ellipse_316" data-name="Ellipse 316" cx="21.447" cy="30.782" rx="21.447" ry="30.782" transform="translate(571.098 179.755)" fill="#2f2e41"/>
    <path id="Path_2126" data-name="Path 2126" d="M960.976,295.9A42.119,42.119,0,0,0,959,308.791a39.924,39.924,0,0,0,4.47,18.811c3.919,7.28,10.068,11.971,16.977,11.971s13.052-4.691,16.977-11.971a39.755,39.755,0,0,0,4.464-18.062,155.251,155.251,0,0,0-18.739-7.832q-6.652-2.287-13.531-3.942Z" transform="translate(-387.913 -135.869)" fill="#2f2e41"/>
    <path id="Path_2127" data-name="Path 2127" d="M976.74,298.71q6.873,1.669,13.531,3.942a15.4,15.4,0,0,1-2.7.243,16.733,16.733,0,0,1-10.828-4.185Z" transform="translate(-395.023 -136.833)" fill="#2f2e41"/>
    <ellipse id="Ellipse_317" data-name="Ellipse 317" cx="21.447" cy="30.782" rx="21.447" ry="30.782" transform="translate(171.398 324.998)" fill="#3f3d56"/>
    <ellipse id="Ellipse_318" data-name="Ellipse 318" cx="21.447" cy="30.782" rx="21.447" ry="30.782" transform="translate(171.398 287.37)" fill="#3f3d56"/>
    <ellipse id="Ellipse_319" data-name="Ellipse 319" cx="21.447" cy="30.782" rx="21.447" ry="30.782" transform="translate(171.398 249.748)" fill="#3f3d56"/>
    <ellipse id="Ellipse_320" data-name="Ellipse 320" cx="21.447" cy="30.782" rx="21.447" ry="30.782" transform="translate(171.398 212.127)" fill="#3f3d56"/>
    <ellipse id="Ellipse_321" data-name="Ellipse 321" cx="21.447" cy="30.782" rx="21.447" ry="30.782" transform="translate(171.398 174.499)" fill="#3f3d56"/>
    <ellipse id="Ellipse_322" data-name="Ellipse 322" cx="21.447" cy="30.782" rx="21.447" ry="30.782" transform="translate(171.398 136.877)" fill="#3f3d56"/>
    <ellipse id="Ellipse_323" data-name="Ellipse 323" cx="21.447" cy="30.782" rx="21.447" ry="30.782" transform="translate(171.398 99.256)" fill="#3f3d56"/>
    <ellipse id="Ellipse_324" data-name="Ellipse 324" cx="21.447" cy="30.782" rx="21.447" ry="30.782" transform="translate(171.398 69.414)" fill="#3f3d56"/>
    <path id="Path_2128" data-name="Path 2128" d="M304.381,103.95a25.239,25.239,0,0,0-7.892,9.08,33.172,33.172,0,0,0-1.9,4.185,41.6,41.6,0,0,0-2.571,14.52v.105a39.923,39.923,0,0,0,4.47,18.811c3.919,7.28,10.067,11.971,16.977,11.971s13.052-4.691,16.977-11.971a41.813,41.813,0,0,0,0-37.622c-.419-.775-.863-1.524-1.324-2.24a22.035,22.035,0,0,0-9.63-8.5,14.45,14.45,0,0,0-1.612-.585h0Z" transform="translate(-120.621 -69.268)" fill="#3f3d56"/>
    <path id="Path_2129" data-name="Path 2129" d="M319.03,100.925h0q1.636-.217,3.284-.407l13.345-1.1a39.733,39.733,0,0,1-2.127,8.541,34.724,34.724,0,0,1-1.936,4.284c-3.925,7.28-10.067,11.971-16.977,11.971a15.508,15.508,0,0,1-6.412-1.4,22.281,22.281,0,0,1-9.246-8.338c-.461-.716-.9-1.459-1.318-2.234a35.177,35.177,0,0,1-2.733-6.656q5.267-1.36,10.625-2.424Z" transform="translate(-121.781 -68.482)" fill="#3f3d56"/>
    <ellipse id="Ellipse_325" data-name="Ellipse 325" cx="21.447" cy="30.782" rx="21.447" ry="30.782" transform="translate(33.57 232.357)" fill="#3f3d56"/>
    <ellipse id="Ellipse_326" data-name="Ellipse 326" cx="21.447" cy="30.782" rx="21.447" ry="30.782" transform="translate(33.57 194.729)" fill="#3f3d56"/>
    <ellipse id="Ellipse_327" data-name="Ellipse 327" cx="21.447" cy="30.782" rx="21.447" ry="30.782" transform="translate(33.57 157.107)" fill="#3f3d56"/>
    <path id="Path_2130" data-name="Path 2130" d="M104.906,264.928a39.945,39.945,0,0,1-4.47,18.811c-3.925,7.28-10.067,11.978-16.977,11.978-5.591,0-10.679-3.075-14.5-8.1v-.046a28.788,28.788,0,0,1-2.445-3.83c-.366-.657-.707-1.36-1.031-2.07A40.93,40.93,0,0,1,62,264.928q0-1.708.126-3.371c.719-1.262,1.444-2.51,2.181-3.758,1.528-2.628,3.11-5.158,4.734-7.694q5.112-8,10.787-15.526a14.97,14.97,0,0,1,3.6-.44c6.909,0,13.052,4.691,16.977,11.978A39.956,39.956,0,0,1,104.906,264.928Z" transform="translate(-28.442 -114.687)" fill="#3f3d56"/>
    <path id="Path_2131" data-name="Path 2131" d="M109.639,214.732a40,40,0,0,1-4.47,18.811c-3.925,7.28-10.073,11.965-16.977,11.965-5.549,0-10.6-3.016-14.382-7.976q5.112-8,10.787-15.526A236.342,236.342,0,0,1,105.93,197.4a40.646,40.646,0,0,1,3.709,17.332Z" transform="translate(-33.175 -102.086)" fill="#3f3d56"/>
    <path id="Path_2132" data-name="Path 2132" d="M290.065,762.6a200.22,200.22,0,0,0,20.872,3.285,206.9,206.9,0,0,0,52.682-1.155l263.854,0c.713.125,1.426.25,2.145.361,75.85,12.207,149.514-33.885,178.511-111.7q-7.02-5-14.154-9.744t-14.622-9.034c-.749-.44-1.5-.867-2.265-1.314A189.484,189.484,0,0,0,748.534,620.1c-4.255-1.531-8.545-2.858-12.86-3.942q-3.062-.782-6.142-1.393-3.871-.782-7.79-1.275A96.269,96.269,0,0,0,701.115,613h0q-1.893.158-3.8.414-3.661.467-7.3,1.262a89.719,89.719,0,0,0-8.845,2.418c-24.989,8.141-46.634,26.334-69.046,41.511l-.857.585a328.087,328.087,0,0,1-74.019,37.221q-7.257,2.563-14.61,4.77-8.39,2.523-16.839,4.6c-1.073.263-2.151.519-3.224.762q-6.466,1.518-12.98,2.746a316.821,316.821,0,0,1-80.2,4.941q-5.993-.394-12.015-1.032-7.976-.841-15.9-2.109h0l-1.091-.171c-4.572-.742-9.145-1.59-13.711-2.438-5.477-1.012-10.954-2.01-16.437-2.825-1.858-.283-3.709-.532-5.567-.762a132.259,132.259,0,0,0-17.588-1.064c-.929,0-1.858.039-2.793.085a74.467,74.467,0,0,0-29.267,6.971l-.515.25a54.508,54.508,0,0,0-13.261,9.139q-1.714,1.6-3.308,3.4c-7.742,8.758-12.375,19.5-16.18,30.736a205.581,205.581,0,0,0,23.371,7.03Z" transform="translate(-108.492 -244.51)" fill="#2f2e41"/>
    <ellipse id="Ellipse_328" data-name="Ellipse 328" cx="1.199" cy="1.314" rx="1.199" ry="1.314" transform="translate(231.91 162.692)" fill="#fff" opacity="0.6"/>
    <ellipse id="Ellipse_329" data-name="Ellipse 329" cx="1.199" cy="1.314" rx="1.199" ry="1.314" transform="translate(110.262 164.006)" fill="#fff" opacity="0.6"/>
    <ellipse id="Ellipse_330" data-name="Ellipse 330" cx="1.199" cy="1.314" rx="1.199" ry="1.314" transform="translate(367.341 232.337)" fill="#fff" opacity="0.6"/>
    <ellipse id="Ellipse_331" data-name="Ellipse 331" cx="1.199" cy="1.314" rx="1.199" ry="1.314" transform="translate(458.427 186.345)" fill="#fff" opacity="0.6"/>
    <path id="Path_2133" data-name="Path 2133" d="M204.781,763.941a77.724,77.724,0,0,0,2.151-18.259c0-1.59-.054-3.167-.144-4.731a77.957,77.957,0,0,0,2.787-20.8c0-2.532-.122-5.078-.364-7.612,0-.154-.031-.3-.043-.436a75.661,75.661,0,0,0-6.592-24.159l-27.158,9.277L164.9,700.807l7.928-5.112L198,679.48c-11.249-17.82-29.266-29.08-48.983-30.611a71.69,71.69,0,0,0-5.082-7.378l-20.908,7.129-33.3,11.34,28.572-18.4,15.832-10.256c-25.564-21.476-61.6-19.263-84.818,5.21h0l-.372.4c17.018,35.388,41.622,65.714,71.694,88.371a213.357,213.357,0,0,0,79.173,37.542Z" transform="translate(-23.208 -245.849)" fill="#2f2e41"/>
    <path id="Path_2134" data-name="Path 2134" d="M482.6,835.078H432.38c5.873-10.6,14.939-17.4,25.115-17.4S476.737,824.461,482.6,835.078Z" transform="translate(-176.871 -314.824)" fill="#3f3d56"/>
    <path id="Path_2135" data-name="Path 2135" d="M482.6,835.078H432.38c5.873-10.6,14.939-17.4,25.115-17.4S476.737,824.461,482.6,835.078Z" transform="translate(-176.871 -314.824)" opacity="0.1"/>
    <path id="Path_2136" data-name="Path 2136" d="M302.307,758.122a200.217,200.217,0,0,0,20.872,3.285,206.894,206.894,0,0,0,52.682-1.155l116.636,0a77.309,77.309,0,0,0,6.7-31.59c0-1.59-.054-3.167-.144-4.731a77.69,77.69,0,0,0,2.8-19.08v-1.7a76.818,76.818,0,0,0-6.981-32.194l-37.753,12.865,33.115-21.347c-11.249-17.82-29.266-29.08-48.983-30.611q-1.2-2.03-2.559-3.942c-.246-.355-.5-.71-.749-1.058q-.863-1.2-1.8-2.359l-1.522.519-52.62,17.937,43.374-28,1.031-.657c-14.241-11.948-32.342-16.938-50.043-13.8-.995.164-1.984.368-2.966.6a62.175,62.175,0,0,0-24.389,11.7,71.971,71.971,0,0,0-25.2,39.612L337.6,669.8l5,6.314,11.17,14.1,8.713,10.992,7.76,9.8L356.9,700.461l-18.727-14.829-18.361-14.54a69.188,69.188,0,0,0-16.623,18.784,74.939,74.939,0,0,0-9.714,25.972,78.332,78.332,0,0,0,3.859,41.169Z" transform="translate(-120.734 -240.03)" fill="#2f2e41"/>
    <path id="Path_2137" data-name="Path 2137" d="M673.1,725.345c3.865-7.037.21-16.084-4.153-22.753s-9.72-13.66-9.252-21.846c.677-11.774,12.38-18.147,21.759-23.922A102.193,102.193,0,0,0,700.728,641.4a29.569,29.569,0,0,0,6.064-8.088c2.079-4.507,2.253-9.75,2.349-14.809Q709.6,593.256,709,568Z" transform="translate(-267.955 -229.191)" fill="#2f2e41"/>
    <path id="Path_2138" data-name="Path 2138" d="M1093,524.13q3.386,8.4,6.646,16.853,5.7,14.81,11,29.8c1.666,4.711,3.326,9.632,3,14.671a31.956,31.956,0,0,1-2.8,10.013l-.126.3q-1.564,3.686-3.368,7.227a111.828,111.828,0,0,1-6.67,11.419q-1.12,1.7-2.307,3.338c-3.08,4.277-6.592,8.883-9.1,13.7a26.872,26.872,0,0,0-3.5,11.905,17.661,17.661,0,0,0,.785,5.6c2.4,7.773,9.792,11.991,16.144,16.34a35.2,35.2,0,0,1,8.066,7.418" transform="translate(-438.71 -214.145)" fill="none" stroke="#2f2e41" stroke-miterlimit="10" stroke-width="4"/>
    <ellipse id="Ellipse_332" data-name="Ellipse 332" cx="16.779" cy="18.397" rx="16.779" ry="18.397" transform="translate(638.035 291.312)" fill="#2f2e41"/>
    <ellipse id="Ellipse_333" data-name="Ellipse 333" cx="16.779" cy="18.397" rx="16.779" ry="18.397" transform="translate(667.691 321.976)" fill="#2f2e41"/>
    <ellipse id="Ellipse_334" data-name="Ellipse 334" cx="16.779" cy="18.397" rx="16.779" ry="18.397" transform="translate(638.478 365.004)" fill="#2f2e41"/>
    <ellipse id="Ellipse_335" data-name="Ellipse 335" cx="16.779" cy="18.397" rx="16.779" ry="18.397" transform="translate(647.011 410.175)" fill="#2f2e41"/>
    <path id="Path_2139" data-name="Path 2139" d="M847.366,628.6c1.127-8.114-5.393-14.954-11.739-19.3s-13.759-8.548-16.156-16.347c-3.458-11.17,5.148-21.938,11.817-31.2a113.053,113.053,0,0,0,12.47-22.339,31.97,31.97,0,0,0,2.8-10.007c.36-5.039-1.3-9.961-3-14.671q-8.312-23.555-17.642-46.649" transform="translate(-331.681 -194.925)" fill="none" stroke="#2f2e41" stroke-miterlimit="10" stroke-width="4"/>
    <ellipse id="Ellipse_336" data-name="Ellipse 336" cx="16.779" cy="18.397" rx="16.779" ry="18.397" transform="translate(478.034 254.518)" fill="#2f2e41"/>
    <ellipse id="Ellipse_337" data-name="Ellipse 337" cx="16.779" cy="18.397" rx="16.779" ry="18.397" transform="translate(507.691 285.182)" fill="#2f2e41"/>
    <ellipse id="Ellipse_338" data-name="Ellipse 338" cx="16.779" cy="18.397" rx="16.779" ry="18.397" transform="translate(478.478 328.211)" fill="#2f2e41"/>
    <ellipse id="Ellipse_339" data-name="Ellipse 339" cx="16.779" cy="18.397" rx="16.779" ry="18.397" transform="translate(487.011 373.382)" fill="#2f2e41"/>
    <path id="Path_2140" data-name="Path 2140" d="M373.582,583.955c1.75-2.884.372-6.774-1.348-9.678s-3.859-5.953-3.518-9.4c.485-4.948,5.531-7.385,9.588-9.626a42.454,42.454,0,0,0,8.39-6.091,12.35,12.35,0,0,0,2.7-3.285,15.667,15.667,0,0,0,1.246-6.189q.647-10.631.827-21.281" transform="translate(-151.344 -212.183)" fill="none" stroke="#3f3d56" stroke-miterlimit="10" stroke-width="4"/>
    <ellipse id="Ellipse_340" data-name="Ellipse 340" cx="7.077" cy="7.76" rx="7.077" ry="7.76" transform="translate(233.294 298.467)" fill="#3f3d56"/>
    <ellipse id="Ellipse_341" data-name="Ellipse 341" cx="7.077" cy="7.76" rx="7.077" ry="7.76" transform="translate(239.652 315.984)" fill="#3f3d56"/>
    <ellipse id="Ellipse_342" data-name="Ellipse 342" cx="7.077" cy="7.76" rx="7.077" ry="7.76" transform="translate(221.495 326.733)" fill="#3f3d56"/>
    <ellipse id="Ellipse_343" data-name="Ellipse 343" cx="7.077" cy="7.76" rx="7.077" ry="7.76" transform="translate(217.42 345.668)" fill="#3f3d56"/>
    <path id="Path_2141" data-name="Path 2141" d="M846.88,294.371c-.917-5.578-.461-11.59-2.792-16.629a3.657,3.657,0,0,0-1.061-1.491,3.406,3.406,0,0,0-1.9-.473q-3.152-.151-6.322-.066a1.684,1.684,0,0,0-1.588.657,1.374,1.374,0,0,0-.084.2c-2.4-2.957-4.243-6.636-6.843-9.369.372-.131.743-.263,1.121-.375-.036-.276-.084-.552-.138-.821l-.06-.243c-.042-.191-.09-.374-.138-.558s-.06-.177-.084-.269-.1-.348-.162-.519l-.1-.269c-.06-.171-.12-.342-.192-.506s-.066-.164-.1-.25l-.228-.526c0-.072-.066-.138-.1-.21-.09-.191-.174-.375-.264-.552l-.09-.177-.306-.591-.06-.112c-.12-.223-.24-.447-.366-.657h0c-1.019-1.827-2.145-3.614-2.966-5.473-1.456-3.285-1.936-6.991-2.9-10.512s-2.643-7.056-5.573-8.719c-1.39-.788-3.266-1.478-3.392-3.213a4.015,4.015,0,0,1,.306-1.61,21.624,21.624,0,0,1,1.456-3.226c.2-.381.431-.756.659-1.117.054-.092.114-.177.174-.269.18-.276.365-.539.551-.8l.234-.322c.192-.25.383-.493.6-.729l.234-.289c.276-.322.557-.657.851-.94a2.179,2.179,0,0,0,.6-.867,2.873,2.873,0,0,0,.048-1.032c-.144-2.792,1.2-5.4,2.691-7.648s3.224-4.382,4.069-7.01c.1-.3.18-.611.252-.913a1.869,1.869,0,0,1,.06-.309c.018-.105.084-.414.12-.618s.03-.243.048-.361.048-.388.066-.578a2.647,2.647,0,0,0,0-.381v-1.9a3.047,3.047,0,0,0-.048-.618c-.048-.2,0-.223-.03-.335q-.036-.355-.09-.71v-.237c-.048-.329-.1-.657-.162-.972h0a53.392,53.392,0,0,0-1.636-6.1,22.97,22.97,0,0,0-1.354-3.561c.33-.066.659-.151.995-.25-.21-.421-.539-.913-.725-1.386a38.028,38.028,0,0,0,4.554-10.834,52.867,52.867,0,0,0,.935-8.377c.5-8.456.989-16.958.354-25.4V142.6a22.9,22.9,0,0,0,.048-5.473,24.608,24.608,0,0,0-2.8-10.092c-1.726-2.99-4.584-5.624-7.754-5.979a11.985,11.985,0,0,1-1.732,1.754,7.563,7.563,0,0,1-2.013-3.443c7.611-1.31,13.485-8.033,14.352-16.426.036-.309.06-.618.078-.926V99.339a3.154,3.154,0,0,0-.048-.657v-.223a3.75,3.75,0,0,0-.084-.657v-.145c-.036-.25-.078-.493-.12-.736a.355.355,0,0,1,0-.079c-.048-.263-.1-.519-.162-.782h0A20.129,20.129,0,0,0,823.887,91a20.512,20.512,0,0,0,1.354-5.434c.036-.342.066-.657.084-1.012V82.65a20.025,20.025,0,0,0-4.794-12.562,12.233,12.233,0,0,0,.851-2.01h0c.066-.2.126-.407.186-.618h0c.054-.2.1-.394.144-.6v-.053c.042-.184.072-.368.108-.558v-.1c.036-.217.066-.434.09-.657s.042-.46.054-.657v-1.61c-.311-6.018-4.788-10.763-10.284-10.9S801.514,56.707,800.953,62.7a13.06,13.06,0,0,0,.1,3.561,18.854,18.854,0,0,0-9.588,14.757,20.941,20.941,0,0,0-.1,3.173,20.314,20.314,0,0,0-2.7,8.778h0v.355c0,.394-.042.788-.042,1.189a19.691,19.691,0,0,0,6.664,15.013,12.856,12.856,0,0,0,3.368,3.89,16.4,16.4,0,0,1,.539,2.444,7.912,7.912,0,0,1-2.043,6.064c-.39.355-.821.657-1.2.992a2,2,0,0,0-1.24.033c-4.6,1.583-8.989,4.717-11.116,9.527a19.356,19.356,0,0,0-1.1,3.4c-.084.138-.174.276-.252.421a51.687,51.687,0,0,0-5.975,15.683c-.6,2.845-.941,5.8-2.151,8.39a8.648,8.648,0,0,0-.7,1.7,19.081,19.081,0,0,0-.108,2.753c-.126,1.662-1.007,3.134-1.3,4.77-.18.972-.144,1.971-.3,2.957a31.877,31.877,0,0,1-1.66,4.869c-.953,2.871-.941,6.025-1.642,8.988a3.238,3.238,0,0,1-.551,1.314c-.479.585-1.234.723-1.858,1.1a4.526,4.526,0,0,0-1.864,3.062,14.955,14.955,0,0,0-.06,3.8l.348,4.961c-1.69.552-3.374,1.117-5.058,1.682l-8.312,2.786a23.356,23.356,0,0,0-6.9,3.193,13.6,13.6,0,0,0-4.345,5.782,31.194,31.194,0,0,0-1.612,7.556,124.716,124.716,0,0,1-4.273,21.294c-.168.532-.347,1.064-.527,1.6h0c-.18.526-.372,1.045-.563,1.564l-.126.315c-.156.421-.312.834-.479,1.242-.216.526-.431,1.051-.665,1.564L751,256.362a7.655,7.655,0,0,0,.084.834c.671,5.256.348,10.552.971,15.769a11.1,11.1,0,0,0,.539,2.556,3.69,3.69,0,0,0-1.019,1.781,10.4,10.4,0,0,0-.1,3.4q.336,4.008.659,8.035a13.494,13.494,0,0,1,.03,2.95c-.246,1.767-1.163,3.318-1.678,5.013s-.479,3.857.8,4.934a2.929,2.929,0,0,0,3.062.3,7.252,7.252,0,0,0,2.535-2.148c3.919-4.757,5.669-11.2,8.719-16.7a33.215,33.215,0,0,0,2.079-3.982c.419-1.064.683-2.194,1.025-3.285a33.776,33.776,0,0,1,1.678-4.29c.36-.788,1.75-2.694,1.456-3.581-.5-1.5-5.837-2.845-7.155-3.285a3.221,3.221,0,0,0-2.613-.131,1.717,1.717,0,0,0-.354.256c-.15-2.155-.306-4.31-.455-6.459.791-.079,1.576-.191,2.355-.329q-.045-1.823-.078-3.666l-.072-3.371c-.054-2.727-.108-5.46-.174-8.154q-.021-2.372-.276-4.731c-.306-2.4-.971-4.744-1.2-7.155a2.376,2.376,0,0,1,1.1-.552h0a6.934,6.934,0,0,1,1.888-.072h.5a15.114,15.114,0,0,0,7.874-2.378c2.445-1.406,4.716-3.154,7.149-4.6.3-.177.6-.348.917-.519l.336-.184.569-.309.473-.25.108-.059c1.42-.742,2.852-1.465,4.195-2.273a4.737,4.737,0,0,0,.3.473,2.692,2.692,0,0,0,3,1.183c-1.678,4.448-3.655,8.752-4.159,13.561-.731,6.938,1.8,13.732,4.285,20.145l7.928,20.493c.875,2.267,2.043,4.809,4.195,5.348a5.809,5.809,0,0,0,3.979-.874,72.855,72.855,0,0,0,10.187-7.148,1.124,1.124,0,0,1,.132.112c3,2.6,4.884,6.229,6.957,9.691l5.561,10.007a3.16,3.16,0,0,0,.222,1.472,8.494,8.494,0,0,0,1.558,2.214,30.032,30.032,0,0,1,6.682,14.993,10.015,10.015,0,0,0,1.1,4.093c1.492,2.267,4.662,2.122,6.9.828a4.621,4.621,0,0,0,1.726-1.564,6.689,6.689,0,0,0,.7-2.372,36.309,36.309,0,0,0,.665-6.288C848.863,302.118,847.515,298.3,846.88,294.371ZM815,110.259c.384-.283.755-.591,1.121-.913a19.349,19.349,0,0,1-3.6,6.7h0c-.378.453-.779.88-1.2,1.314v-.309c-.048-1.005,0-2.063.03-3.1A12.631,12.631,0,0,0,815,110.259Zm-31.473,77.1a.664.664,0,0,1,.066-.191,3.911,3.911,0,0,1,.809.92,3.975,3.975,0,0,0,.12,3.285c.467.867,1.306,1.669,1.121,2.628s-1.318,1.373-2.247,1.537c-1.2.21-2.4.46-3.6.729V196.2a11.072,11.072,0,0,0-.408-3.252C781.442,192.019,782.724,189.693,783.527,187.361Z" transform="translate(-296.768 -52.33)" fill="url(#linear-gradient-2)"/>
    <path id="Path_2142" data-name="Path 2142" d="M858.84,75.568a12.523,12.523,0,0,0-.675-12.933,10.08,10.08,0,0,0-11.184-4.178,11.326,11.326,0,0,0-7.736,9.792,12.912,12.912,0,0,0,.1,3.509,18.619,18.619,0,0,0-9.558,14.586,21.1,21.1,0,0,0-.1,3.127,20.109,20.109,0,0,0,.846,21.631c4.464,6.273,12.068,8.748,18.931,6.161s11.471-9.665,11.474-17.622v-.887a20.025,20.025,0,0,0-2.073-23.187Z" transform="translate(-334.987 -54.295)" fill="#2f2e41"/>
    <g id="Group_93" data-name="Group 93" transform="translate(491.925 13.816)" opacity="0.1">
      <path id="Path_2143" data-name="Path 2143" d="M847.41,74.07l.138-.079a5.334,5.334,0,0,0-.078-.611V73.5A3.61,3.61,0,0,0,847.41,74.07Z" transform="translate(-835.119 -73.367)"/>
      <path id="Path_2144" data-name="Path 2144" d="M863.514,102.926a19.714,19.714,0,0,1-2.631,7.943v.887c-.136,9.9-7.3,17.95-16.324,18.343s-16.747-7.012-17.6-16.865c-.036.5-.06,1.005-.06,1.518,0,10.3,7.611,18.646,17,18.646s17.007-8.348,17.007-18.646c0-.293,0-.589,0-.887a20.1,20.1,0,0,0,2.667-11.675A3.819,3.819,0,0,1,863.514,102.926Z" transform="translate(-826.9 -83.248)"/>
      <path id="Path_2145" data-name="Path 2145" d="M881.576,73.36a12.4,12.4,0,0,1-1.4,4.435,9.214,9.214,0,0,1,.851,1.045,12.545,12.545,0,0,0,.557-2.556A12.889,12.889,0,0,0,881.576,73.36Z" transform="translate(-848.252 -73.36)"/>
    </g>
    <path id="Path_2146" data-name="Path 2146" d="M765.122,379.182a9.079,9.079,0,0,0,.773,3.055,3.1,3.1,0,0,0,2.253,1.807,4.294,4.294,0,0,0,2.487-.788,8.715,8.715,0,0,0,3.871-3.535,10.512,10.512,0,0,0,.527-5.335l-1.013-14.212c-2.451-.079-4.914-.072-7.359.072s-2.846.769-2.511,3.364C764.823,368.774,764.493,374.017,765.122,379.182Z" transform="translate(-309.787 -157.896)" fill="#fbbebe"/>
    <path id="Path_2147" data-name="Path 2147" d="M879.787,394.784l5.825,10.322a2.455,2.455,0,0,0,1.27,1.314,1.867,1.867,0,0,0,1.2-.236c1.942-.926,3.428-2.7,4.86-4.415a10.028,10.028,0,0,0,2.331-3.942,5.344,5.344,0,0,0-1.163-4.7,14.881,14.881,0,0,0-2.2-1.721c-4.608-3.4-6.688-9.855-11.23-13.377a1.722,1.722,0,0,0-.923-.434,1.791,1.791,0,0,0-.947.348l-6.214,3.738c-2.691,1.61-1.84,1.8.2,3.541C875.832,387.787,877.708,391.368,879.787,394.784Z" transform="translate(-352.608 -163.886)" fill="#fbbebe"/>
    <path id="Path_2148" data-name="Path 2148" d="M777.207,376.434a3.3,3.3,0,0,0-2.613-.131,3.2,3.2,0,0,0-1.36,2.359c-.162.946-.144,1.932-.383,2.858a9.707,9.707,0,0,1-2.541,3.942,3.773,3.773,0,0,1-1.6,1.216c-.839.237-1.732-.191-2.589,0a2.953,2.953,0,0,0-2.038,2.28,9.771,9.771,0,0,0-.1,3.344l.659,7.924a13.136,13.136,0,0,1,0,2.911c-.246,1.741-1.169,3.285-1.678,4.941s-.485,3.8.8,4.869a2.977,2.977,0,0,0,3.068.3,7.3,7.3,0,0,0,2.541-2.116c3.925-4.691,5.675-11.051,8.725-16.465a33.093,33.093,0,0,0,2.091-3.942c.414-1.058.683-2.168,1.019-3.285a34.352,34.352,0,0,1,1.684-4.225c.366-.782,1.75-2.628,1.462-3.535C783.883,378.208,778.531,376.894,777.207,376.434Z" transform="translate(-309.228 -163.368)" fill="#2f2e41"/>
    <path id="Path_2149" data-name="Path 2149" d="M900.982,404.149a7.709,7.709,0,0,1-4.123,3.883,3.65,3.65,0,0,0-1.39.8,2.579,2.579,0,0,0-.246,2.628,8.373,8.373,0,0,0,1.564,2.168,29.372,29.372,0,0,1,6.694,14.783,9.686,9.686,0,0,0,1.109,4.034c1.492,2.234,4.668,2.089,6.909.815a4.577,4.577,0,0,0,1.732-1.537,6.563,6.563,0,0,0,.7-2.339,35.416,35.416,0,0,0,.665-6.2c-.042-3.942-1.39-7.707-2.038-11.583-.917-5.5-.455-11.426-2.792-16.393a3.6,3.6,0,0,0-1.067-1.472,3.454,3.454,0,0,0-1.9-.466c-2.109-.1-4.225-.118-6.334-.059a1.68,1.68,0,0,0-1.594.657,2.2,2.2,0,0,0,.24,1.886C900.419,398.544,902.54,400.785,900.982,404.149Z" transform="translate(-362.255 -169.23)" fill="#2f2e41"/>
    <path id="Path_2150" data-name="Path 2150" d="M785.379,257.846a3.8,3.8,0,0,0-.761,4.507c.467.854,1.306,1.643,1.12,2.628s-1.324,1.353-2.253,1.518c-8.18,1.426-16.144,4.054-24.078,6.669l-8.324,2.746a23.758,23.758,0,0,0-6.915,3.154,13.408,13.408,0,0,0-4.351,5.7,30.726,30.726,0,0,0-1.618,7.444c-1.246,9.33-2.84,18.745-6.64,27.2l20.189,7.227a26.971,26.971,0,0,0,6.047,1.669,20.639,20.639,0,0,0,5.891-.309c-.126-4.941-.2-10.033-.329-14.974a44.916,44.916,0,0,0-.276-4.671c-.3-2.365-.971-4.671-1.2-7.05.929-.841,2.283-.657,3.488-.6a15.286,15.286,0,0,0,7.892-2.346c2.445-1.386,4.728-3.108,7.191-4.514,4.057-2.352,8.671-3.942,11.769-7.654-1.576,6.57-5.3,12.339-5.992,19.106s1.8,13.535,4.291,19.862l7.946,20.2c.875,2.234,2.043,4.737,4.195,5.256a5.9,5.9,0,0,0,3.991-.861c7.3-3.758,13.183-10.808,20.974-13.068-.6-4.238-3.631-7.74-5.363-11.583-1.456-3.239-1.936-6.886-2.906-10.342s-2.643-6.951-5.579-8.594c-1.39-.775-3.272-1.452-3.4-3.167a3.954,3.954,0,0,1,.312-1.59,21.005,21.005,0,0,1,4.752-7.582,2.307,2.307,0,0,0,.6-.854,2.759,2.759,0,0,0,.048-1.018c-.15-2.753,1.2-5.328,2.7-7.536s3.23-4.317,4.075-6.912c1.45-4.468,0-9.369-1.426-13.837a14.786,14.786,0,0,0-2.4-5.072c-1.87-2.195-4.794-2.825-7.509-3.154C802.7,254.416,792.348,251.886,785.379,257.846Z" transform="translate(-296.767 -121.507)" fill="#2f2e41"/>
    <g id="Group_94" data-name="Group 94" transform="translate(434.763 136.063)" opacity="0.1">
      <path id="Path_2151" data-name="Path 2151" d="M871.437,285.584c-1.5,2.214-2.846,4.783-2.7,7.536a2.762,2.762,0,0,1-.048,1.018,2.327,2.327,0,0,1-.6.861,20.955,20.955,0,0,0-4.752,7.582,3.932,3.932,0,0,0-.312,1.59,2.989,2.989,0,0,0,1.8,2.28,20.49,20.49,0,0,1,3.3-4.4,2.308,2.308,0,0,0,.6-.854,2.762,2.762,0,0,0,.048-1.018c-.15-2.753,1.2-5.328,2.7-7.536s3.23-4.317,4.075-6.912a15.751,15.751,0,0,0,.216-7.819c-.066.256-.138.512-.216.762C874.667,281.254,872.935,283.37,871.437,285.584Z" transform="translate(-784.216 -265.762)"/>
      <path id="Path_2152" data-name="Path 2152" d="M819.84,261.03a1.753,1.753,0,0,0,1.294-1.229,1.374,1.374,0,0,0,0-.381c-.126.105-.252.2-.378.309A3.264,3.264,0,0,0,819.84,261.03Z" transform="translate(-766.908 -259.42)"/>
      <path id="Path_2153" data-name="Path 2153" d="M757.775,352.155a27.685,27.685,0,0,1-6.046-1.669l-17.822-6.406a61.216,61.216,0,0,1-2.4,6.2L751.7,357.51a26.972,26.972,0,0,0,6.047,1.669,20.635,20.635,0,0,0,5.891-.309c-.06-2.319-.108-4.678-.156-7.03a20.253,20.253,0,0,1-5.7.315Z" transform="translate(-731.51 -288.456)"/>
      <path id="Path_2154" data-name="Path 2154" d="M843.067,368.96a5.836,5.836,0,0,1-3.991.867c-2.157-.532-3.326-3.042-4.195-5.256l-7.946-20.2c-1.744-4.442-3.512-9.067-4.159-13.8-.048.335-.1.657-.132,1-.731,6.84,1.8,13.535,4.291,19.862l7.946,20.2c.875,2.234,2.043,4.737,4.195,5.256a5.9,5.9,0,0,0,3.991-.861c7.3-3.758,13.183-10.808,20.974-13.068a17.446,17.446,0,0,0-2.4-6.183C854.98,359.624,849.6,365.623,843.067,368.96Z" transform="translate(-767.981 -283.822)"/>
      <path id="Path_2155" data-name="Path 2155" d="M812.48,292.27c-3.1,3.712-7.712,5.3-11.769,7.648-2.433,1.413-4.71,3.134-7.191,4.52a15.448,15.448,0,0,1-7.892,2.346c-1.2-.039-2.559-.25-3.488.591.192,2.2.773,4.33,1.1,6.511a9.635,9.635,0,0,1,2.4-.053,15.286,15.286,0,0,0,7.892-2.346c2.445-1.386,4.728-3.108,7.191-4.514,2.673-1.551,5.585-2.773,8.15-4.481A82.992,82.992,0,0,0,812.48,292.27Z" transform="translate(-751.8 -270.687)"/>
    </g>
    <path id="Path_2156" data-name="Path 2156" d="M841.388,149.268a7.66,7.66,0,0,1-2.05,5.972c-.5.453-1.073.8-1.552,1.275a4.872,4.872,0,0,0-1.168,3.637,4.7,4.7,0,0,0,1.768,3.334c1.6,1.078,3.643.788,5.495.434a30.045,30.045,0,0,0,7.191-2.063,12.294,12.294,0,0,0,5.693-5.112c-2.02-1.229-3.116-3.824-3.242-6.347s.509-5.407-.953-7.372-4.015-1.9-6.142-1.242c-1.079.329-2.121.775-3.2,1.1-.545.158-2.355.164-2.709.6C839.836,144.3,841.322,147.986,841.388,149.268Z" transform="translate(-338.862 -82.87)" fill="#fbbebe"/>
    <path id="Path_2157" data-name="Path 2157" d="M841.388,149.268a7.66,7.66,0,0,1-2.05,5.972c-.5.453-1.073.8-1.552,1.275a4.872,4.872,0,0,0-1.168,3.637,4.7,4.7,0,0,0,1.768,3.334c1.6,1.078,3.643.788,5.495.434a30.045,30.045,0,0,0,7.191-2.063,12.294,12.294,0,0,0,5.693-5.112c-2.02-1.229-3.116-3.824-3.242-6.347s.509-5.407-.953-7.372-4.015-1.9-6.142-1.242c-1.079.329-2.121.775-3.2,1.1-.545.158-2.355.164-2.709.6C839.836,144.3,841.322,147.986,841.388,149.268Z" transform="translate(-338.862 -82.87)" opacity="0.1"/>
    <ellipse id="Ellipse_344" data-name="Ellipse 344" cx="11.949" cy="13.101" rx="11.949" ry="13.101" transform="translate(496.761 40.051)" fill="#fbbebe"/>
    <path id="Path_2158" data-name="Path 2158" d="M790.18,283.294a9.343,9.343,0,0,1-1.127,2.911,14.826,14.826,0,0,0-1.426,8.942,9.344,9.344,0,0,0,5.028,6.958,3.169,3.169,0,0,0,3.422-.237c-1.594-2.273-1.678-5.381-1.582-8.252a2.932,2.932,0,0,1,.336-1.531.876.876,0,0,1,.58-.424.817.817,0,0,1,.679.175,13.535,13.535,0,0,0,.935,5.256c.252.657.683,1.314,1.318,1.314.911,0,1.156-1.38,1.121-2.378-.138-4.06-.324-8.292-2.109-11.859a15.779,15.779,0,0,1-1.8-3.988,2.511,2.511,0,0,0-.455-1.4,1.547,1.547,0,0,0-.671-.342c-1.031-.322-3.464-1.314-4.315-.256S790.317,281.94,790.18,283.294Z" transform="translate(-319.168 -129.629)" fill="#fbbebe"/>
    <path id="Path_2159" data-name="Path 2159" d="M807.209,180.263c-1.366-.164-2.451,1.209-3.2,2.477a50.458,50.458,0,0,0-5.951,15.46c-.6,2.806-.941,5.716-2.157,8.265a9.042,9.042,0,0,0-.7,1.682,18.531,18.531,0,0,0-.108,2.714c-.126,1.636-1.007,3.088-1.306,4.7-.174.959-.138,1.971-.294,2.917a30.651,30.651,0,0,1-1.666,4.8c-.953,2.832-.941,5.913-1.642,8.863a3.2,3.2,0,0,1-.557,1.314c-.473.572-1.234.716-1.858,1.078a4.454,4.454,0,0,0-1.864,3.022,14.543,14.543,0,0,0-.066,3.752l.551,7.746c.563-.256.935-.959,1.408-1.393.863-.788,2.133-.611,3.236-.388l1.612.315c1.648.329,3.44.749,4.494,2.168.839-1.439.359-3.561,1.648-4.52a11.68,11.68,0,0,1,1.384-.657,3.485,3.485,0,0,0,1.408-2.72,10.846,10.846,0,0,0-.407-3.213c2.067-.953,3.356-3.252,4.195-5.545a50.142,50.142,0,0,0,1.924-8.541c1.864-11.518,3.6-23.114,3.745-34.823a18.239,18.239,0,0,0-.6-5.8C809.833,182.057,808.982,180.486,807.209,180.263Z" transform="translate(-318.483 -96.204)" fill="#ff6f61"/>
    <path id="Path_2160" data-name="Path 2160" d="M807.209,180.263c-1.366-.164-2.451,1.209-3.2,2.477a50.458,50.458,0,0,0-5.951,15.46c-.6,2.806-.941,5.716-2.157,8.265a9.042,9.042,0,0,0-.7,1.682,18.531,18.531,0,0,0-.108,2.714c-.126,1.636-1.007,3.088-1.306,4.7-.174.959-.138,1.971-.294,2.917a30.651,30.651,0,0,1-1.666,4.8c-.953,2.832-.941,5.913-1.642,8.863a3.2,3.2,0,0,1-.557,1.314c-.473.572-1.234.716-1.858,1.078a4.454,4.454,0,0,0-1.864,3.022,14.543,14.543,0,0,0-.066,3.752l.551,7.746c.563-.256.935-.959,1.408-1.393.863-.788,2.133-.611,3.236-.388l1.612.315c1.648.329,3.44.749,4.494,2.168.839-1.439.359-3.561,1.648-4.52a11.68,11.68,0,0,1,1.384-.657,3.485,3.485,0,0,0,1.408-2.72,10.846,10.846,0,0,0-.407-3.213c2.067-.953,3.356-3.252,4.195-5.545a50.142,50.142,0,0,0,1.924-8.541c1.864-11.518,3.6-23.114,3.745-34.823a18.239,18.239,0,0,0-.6-5.8C809.833,182.057,808.982,180.486,807.209,180.263Z" transform="translate(-318.483 -96.204)" opacity="0.1"/>
    <path id="Path_2161" data-name="Path 2161" d="M848.233,161.19a14.783,14.783,0,0,1-7.269,4.6,40.97,40.97,0,0,1-8.389,1.36,4.787,4.787,0,0,1-2.6-.25,2.014,2.014,0,0,1-1.085-2.332,2.758,2.758,0,0,0,.27-.874c0-.795-1.085-.861-1.8-.624-4.6,1.557-8.989,4.645-11.134,9.382a30.8,30.8,0,0,0-1.978,8.64c-.995,7.766-2,15.7-.653,23.4.713,4.106,2.091,8.114,2.175,12.293.048,2.346-.312,4.678-.294,7.024a3.78,3.78,0,0,0,.563,2.313c.329.421.833.69,1.061,1.183.384.828-.132,1.971.378,2.714.6.913,1.936.256,2.792-.388a20.759,20.759,0,0,1,14.79-4.087c6.262.742,12.482,4.4,18.577,2.569a9.491,9.491,0,0,1-.809-1.583c-3-10.913-2.823-23.108,1.708-33.371,1.552-3.509,3.6-6.853,4.195-10.69a22.215,22.215,0,0,0,.06-5.427,24.021,24.021,0,0,0-2.8-9.954C854.261,164.14,851.415,161.532,848.233,161.19Z" transform="translate(-329.383 -89.667)" fill="#ff6f61"/>
    <path id="Path_2162" data-name="Path 2162" d="M823.12,289.211a13.124,13.124,0,0,0-.689,4.461,28.576,28.576,0,0,0,.2,4.356,7.336,7.336,0,0,0,1.163,3.417,2.718,2.718,0,0,0,3,1.163,3.333,3.333,0,0,0,1.8-2.194,21.547,21.547,0,0,0,.563-2.983c.527-2.976,1.948-5.769,1.978-8.8a2.716,2.716,0,0,0-.156-1.051,5.332,5.332,0,0,0-4.3-2.431C825.115,285.413,823.683,287.778,823.12,289.211Z" transform="translate(-333.178 -132.176)" fill="#fbbebe"/>
    <path id="Path_2163" data-name="Path 2163" d="M857.919,178c-.234,2.628,2.062,4.566,3,6.991a12.77,12.77,0,0,1,.6,3.515c.641,8.325.144,16.7-.354,25.046a51.328,51.328,0,0,1-.923,8.265c-1.282,5.7-4.44,10.637-7.533,15.434a13.193,13.193,0,0,1-1.612,2.162,11.9,11.9,0,0,1-3,1.971l-10.631,5.67a20.076,20.076,0,0,0-3.769,2.378,11.209,11.209,0,0,0-3.122,4.448c-2.056-1.15-4.195-2.188-6.25-3.338-.485-.269-1.025-.657-1.1-1.209-.114-.788.635-1.314,1.151-1.905.965-1.045,1.264-2.6,1.8-3.942,1.708-4.494,5.993-7.365,7.551-11.925.6-1.748.779-3.725,1.834-5.2a12.212,12.212,0,0,1,2.026-1.971,36.178,36.178,0,0,0,4.482-5.039A8.619,8.619,0,0,0,843.531,217a12.843,12.843,0,0,0,.354-4.126c.078-4.547,1.954-8.791,3.1-13.141,1.079-4.113,1.528-8.436,2.948-12.424S854.138,179.084,857.919,178Z" transform="translate(-333.496 -95.433)" opacity="0.1"/>
    <path id="Path_2164" data-name="Path 2164" d="M860.227,178c-.234,2.628,2.061,4.566,3,6.991a12.77,12.77,0,0,1,.6,3.515c.641,8.325.144,16.7-.354,25.046a51.311,51.311,0,0,1-.935,8.252c-1.282,5.7-4.44,10.637-7.532,15.434a13.19,13.19,0,0,1-1.612,2.162,11.9,11.9,0,0,1-3,1.971l-10.607,5.637a20.079,20.079,0,0,0-3.769,2.378,11.208,11.208,0,0,0-3.122,4.448c-2.055-1.15-4.195-2.188-6.25-3.338-.485-.269-1.025-.657-1.1-1.209-.114-.788.635-1.314,1.151-1.905.965-1.045,1.264-2.6,1.8-3.942,1.708-4.494,5.992-7.365,7.551-11.925.6-1.748.779-3.725,1.834-5.2a12.218,12.218,0,0,1,2.026-1.971,36.609,36.609,0,0,0,4.488-5.039,8.566,8.566,0,0,0,1.462-2.352,12.843,12.843,0,0,0,.354-4.126c.078-4.547,1.954-8.791,3.1-13.141,1.079-4.113,1.528-8.436,2.948-12.424S856.446,179.084,860.227,178Z" transform="translate(-334.426 -95.433)" fill="#ff6f61"/>
    <path id="Path_2165" data-name="Path 2165" d="M857.707,102.347a15.657,15.657,0,0,0-10.607,2.4,10.508,10.508,0,0,1,1.42.118c7.25.959,13.132,6.887,14.612,14.728s-1.773,15.842-8.08,19.877c9.089.334,16.808-7.232,17.519-17.173s-5.839-18.734-14.864-19.956Z" transform="translate(-343.07 -69.438)" fill="#2f2e41"/>
    <path id="Path_2166" data-name="Path 2166" d="M858.837,115.167a9.3,9.3,0,0,1,.132,6.531,7.807,7.807,0,0,0-.276-.8c-2.1-5.131-8.575-7.227-14.46-4.744a12.432,12.432,0,0,0-6.987,7.3c-1.5-4.954,1.546-10.65,7.131-13.029C850.261,107.919,856.721,110.042,858.837,115.167Z" transform="translate(-338.969 -71.896)" fill="#2f2e41"/>
    <g id="Group_95" data-name="Group 95" transform="translate(504.006 5.76)" opacity="0.1">
      <path id="Path_2167" data-name="Path 2167" d="M862.952,119.114c-.56-7.359-5.023-13.664-11.386-16.084A16.268,16.268,0,0,0,847.06,105a10.508,10.508,0,0,1,1.42.118C855.485,106.04,861.244,111.609,862.952,119.114Z" transform="translate(-847.06 -75.481)"/>
      <path id="Path_2168" data-name="Path 2168" d="M867.552,98.408c-.557-7.358-5.022-13.663-11.386-16.078A15.893,15.893,0,0,0,851.66,84.3a10.508,10.508,0,0,1,1.42.118C860.084,85.337,865.843,90.9,867.552,98.408Z" transform="translate(-848.903 -68.381)"/>
      <path id="Path_2169" data-name="Path 2169" d="M871.9,70.811a11.146,11.146,0,0,0-6.855-9.711,9.646,9.646,0,0,0-2.721,1.248,3.8,3.8,0,0,1,.857.066A10.633,10.633,0,0,1,871.9,70.811Z" transform="translate(-853.175 -61.1)"/>
      <path id="Path_2170" data-name="Path 2170" d="M877.465,123.66c.7,9.254-4.923,17.66-13.184,19.711a17.373,17.373,0,0,1-3.931,3.476,16.408,16.408,0,0,0,13.837-6.9,20.019,20.019,0,0,0,3.265-16.276Z" transform="translate(-852.386 -82.556)"/>
    </g>
    <path id="Path_2171" data-name="Path 2171" d="M938.691,110.107a11.193,11.193,0,0,0-7.035.841,9.522,9.522,0,0,1-8.449,0,10.923,10.923,0,0,0-9.936.21,5.74,5.74,0,0,1-2.859.788c-4.027,0-7.377-4.448-8.072-10.322a8.251,8.251,0,0,0,2.013-2.378c2.361-4.172,5.993-6.846,10.121-6.846s7.724,2.628,10.085,6.774a7.655,7.655,0,0,0,6.688,4.028h.108C934.532,103.182,937.306,106,938.691,110.107Z" transform="translate(-365.207 -66.074)" fill="#6c63ff" opacity="0.1"/>
    <path id="Path_2172" data-name="Path 2172" d="M950.911,83.126,944.4,87.653l3.949-7.884a6.069,6.069,0,0,0-3.937-1.544h-.1a6.572,6.572,0,0,1-1.348-.105l-2.211,1.511.947-1.886a7.993,7.993,0,0,1-3.859-3.213l-3.961,2.773,2.493-4.974c-2.307-3.035-5.393-4.9-8.845-4.9-4.1,0-7.79,2.674-10.127,6.853a7.43,7.43,0,0,1-6.694,3.942h-.2c-4.53,0-8.21,5.637-8.21,12.589s3.679,12.589,8.21,12.589a5.673,5.673,0,0,0,2.858-.788,10.923,10.923,0,0,1,9.936-.21,9.711,9.711,0,0,0,4.249,1,9.593,9.593,0,0,0,4.195-.979,10.916,10.916,0,0,1,9.846.21,5.709,5.709,0,0,0,2.828.769c4.536,0,8.21-5.637,8.21-12.589a17.25,17.25,0,0,0-1.72-7.687Z" transform="translate(-365.191 -57.511)" fill="#6c63ff" opacity="0.1"/>
    <path id="Path_2173" data-name="Path 2173" d="M1011.271,234.666a15.92,15.92,0,0,0-10.05,1.2,13.624,13.624,0,0,1-12.069,0,15.591,15.591,0,0,0-14.19.3,8.167,8.167,0,0,1-4.087,1.124c-5.753,0-10.541-6.353-11.536-14.737a11.854,11.854,0,0,0,2.876-3.4c3.374-5.959,8.6-9.783,14.466-9.783s11.026,3.778,14.382,9.678a10.909,10.909,0,0,0,9.588,5.756h.15C1005.345,224.771,1009.312,228.8,1011.271,234.666Z" transform="translate(-388.05 -106.192)" fill="#6c63ff" opacity="0.1"/>
    <path id="Path_2174" data-name="Path 2174" d="M1028.749,196.114l-9.3,6.472,5.645-11.261a8.741,8.741,0,0,0-5.627-2.2h-.15a10.489,10.489,0,0,1-1.93-.158l-3.152,2.188,1.354-2.694a11.375,11.375,0,0,1-5.513-4.6l-5.645,3.942,3.6-7.1c-3.3-4.343-7.748-7.011-12.638-7.011-5.867,0-11.092,3.83-14.466,9.79a10.582,10.582,0,0,1-9.588,5.65h-.318c-6.478,0-11.727,8.055-11.727,17.983s5.249,17.983,11.727,17.983a8.209,8.209,0,0,0,4.087-1.117,15.569,15.569,0,0,1,14.19-.309,13.624,13.624,0,0,0,12.069.033,15.6,15.6,0,0,1,14.07.3,8.168,8.168,0,0,0,4.039,1.1c6.478,0,11.727-8.049,11.727-17.983A24.627,24.627,0,0,0,1028.749,196.114Z" transform="translate(-388.03 -93.955)" fill="#6c63ff" opacity="0.1"/>
    <path id="Path_2175" data-name="Path 2175" d="M698.62,183.107a11.192,11.192,0,0,1,7.035.841,9.506,9.506,0,0,0,8.443,0,10.924,10.924,0,0,1,9.936.21,5.757,5.757,0,0,0,2.858.788c4.027,0,7.383-4.448,8.078-10.322a8.156,8.156,0,0,1-2.013-2.378c-2.361-4.172-5.992-6.846-10.127-6.846s-7.718,2.628-10.079,6.774a7.649,7.649,0,0,1-6.712,4.008h-.1C702.749,176.182,699.968,179,698.62,183.107Z" transform="translate(-283.567 -91.111)" fill="#6c63ff" opacity="0.1"/>
    <path id="Path_2176" data-name="Path 2176" d="M676.993,156.123l6.508,4.527-3.955-7.884a6.08,6.08,0,0,1,3.937-1.544h.108a6.57,6.57,0,0,0,1.348-.105l2.205,1.531-.947-1.886a8,8,0,0,0,3.865-3.213l3.949,2.746-2.5-4.974c2.313-3.035,5.393-4.9,8.851-4.9,4.1,0,7.79,2.674,10.127,6.853a7.424,7.424,0,0,0,6.694,3.942h.216c4.536,0,8.21,5.637,8.21,12.589s-3.673,12.589-8.21,12.589a5.707,5.707,0,0,1-2.859-.788,10.923,10.923,0,0,0-9.936-.21,9.684,9.684,0,0,1-4.243,1,9.555,9.555,0,0,1-4.195-.979,10.927,10.927,0,0,0-9.852.21,5.692,5.692,0,0,1-2.828.769c-4.53,0-8.21-5.637-8.21-12.589A17.252,17.252,0,0,1,676.993,156.123Z" transform="translate(-274.213 -82.544)" fill="#6c63ff" opacity="0.1"/>
  </g>
</svg>
