<svg xmlns="http://www.w3.org/2000/svg" width="1144.02" height="800.94" viewBox="0 0 1144.02 800.94">
  <g id="Group_24" data-name="Group 24" transform="translate(0.02)">
    <path id="Path_522" data-name="Path 522" d="M1170.92,622a244.1,244.1,0,0,1-8.87,40.61,228.987,228.987,0,0,1-15.08,37c0,82.51-66.1,149.39-147.65,149.39H246.25A186.284,186.284,0,0,1,116,795.9c.325-.085.655-.175,1-.245,69.46-18.42,142.75-24.78,203-68.53Q196.85,706.69,75.14,676.41c-5-1.26-10.68-3.15-16.51-5.13-.27-4.16-.42-8.35-.42-12.57-.37-.67-.73-1.34-1.09-2q-2.38-4.43-4.58-9c-14.93-31-23.46-66.91-23.46-105.23,0-60.43,21.23-115,55.25-153.49C313.2,407.92,543.44,399.9,773,391.82q-100.68-20-201.34-40.06-164.17-32.65-328.34-65.34c69.85-98.68,193.12-164.21,333.54-164.21,98.82,0,189.14,32.45,258.34,86.07,25.44-16.91,54.73-26.56,85.9-26.56,64.9,0,121.63,41.73,152.44,104h0c15.58,31.5,24.52,68.24,24.52,107.48,0,7-.29,14-.86,20.89,0,.41-.06.81-.1,1.23,21.4,17.8,39.35,41.1,52.41,68.19.16.33.32.66.47,1q3.43,7.17,6.38,14.66h-.19q-12.6,2.79-25.17,5.69-135.49,31.3-268.47,75.86-38.12,12.78-76,26.62c-21.32,7.8-48.74,25.47-70.84,27,151.1-10.14,303.41,4.64,453.81-12.2Z" transform="translate(-28 -49.53)" fill="#6c63ff" opacity="0.1"/>
    <path id="Path_523" data-name="Path 523" d="M1172,586.75c0-71.93-30.06-135.47-76-173.67q.95-10.9,1-22.11c0-116.8-79.24-211.47-177-211.47-31.18,0-60.47,9.64-85.91,26.55C764.89,152.43,674.56,120,575.74,120,415,120,276.64,205.9,215.28,329.13c-3.41-.23-6.84-.36-10.3-.36-97.74,0-177,94.68-177,211.47,0,42.94,10.72,82.88,29.12,116.23h0c0,105.08,84.19,190.27,188,190.27H998.24c81.54,0,147.64-66.88,147.64-149.39h0C1162.44,665.17,1172,627.3,1172,586.75Z" transform="translate(-28 -49.53)" fill="#6c63ff" opacity="0.1"/>
    <path id="Path_524" data-name="Path 524" d="M426.72,592.32c.3,4,1.42,8.75,5.19,10.13a9.67,9.67,0,0,0,5.56-.09,23.55,23.55,0,0,0,12.35-7.07c3.15-3.66,4.72-8.83,3.4-13.46-1.27-4.42-4.83-7.73-7.34-11.57-2.94-4.49-3.88-9.58-5.92-14.39C423.77,557.42,425.81,580.31,426.72,592.32Z" transform="translate(-28 -49.53)" fill="#fbbebe"/>
    <path id="Path_525" data-name="Path 525" d="M409.71,399.53c-2.15,7,5.48,14.63,7.94,21.51s5.77,13.49,7.09,20.7c.92,4.95.87,10,1.22,15,.67,9.45,2.76,18.73,5,27.92q4.74,19.92,10.16,39.66a146.547,146.547,0,0,1,4.23,18.24,70.069,70.069,0,0,1-.07,20.09,25.66,25.66,0,0,0-19.08,1.75,56.61,56.61,0,0,1-7.25-23.59,123.4,123.4,0,0,1,.13-14.77c.64-13.91-5.39-27.84-5.59-41.77a78.807,78.807,0,0,0-1.14-14.4c-.65-3.27-.59-9.39-1.3-12.64-1.14-5.18,3.73-7.57,3.46-12.88l-1.48-29C412.73,410.31,407.63,404.09,409.71,399.53Z" transform="translate(-28 -49.53)" fill="#3f3d56"/>
    <path id="Path_526" data-name="Path 526" d="M409.71,399.53c-2.15,7,5.48,14.63,7.94,21.51s5.77,13.49,7.09,20.7c.92,4.95.87,10,1.22,15,.67,9.45,2.76,18.73,5,27.92q4.74,19.92,10.16,39.66a146.547,146.547,0,0,1,4.23,18.24,70.069,70.069,0,0,1-.07,20.09,25.66,25.66,0,0,0-19.08,1.75,56.61,56.61,0,0,1-7.25-23.59,123.4,123.4,0,0,1,.13-14.77c.64-13.91-5.39-27.84-5.59-41.77a78.807,78.807,0,0,0-1.14-14.4c-.65-3.27-.59-9.39-1.3-12.64-1.14-5.18,3.73-7.57,3.46-12.88l-1.48-29C412.73,410.31,407.63,404.09,409.71,399.53Z" transform="translate(-28 -49.53)" opacity="0.1"/>
    <path id="Path_527" data-name="Path 527" d="M336.7,377.08a11,11,0,0,0,2.3,4.62,256.321,256.321,0,0,0,34.43,39,18.42,18.42,0,0,0,3.24-4.56,68.67,68.67,0,0,0,8.4-34.62c-5.78-1.86-12.34-4.46-14.19-10.24-1.47-4.56.5-10-2.08-14.06-3.67-5.73-19.25-6.46-24.25-2.3-3.28,2.72-2.11,5.26-3.15,8.94C340.25,367.9,336.06,372.78,336.7,377.08Z" transform="translate(-28 -49.53)" fill="#fbbebe"/>
    <path id="Path_528" data-name="Path 528" d="M336.7,377.08a11,11,0,0,0,2.3,4.62,256.321,256.321,0,0,0,34.43,39,18.42,18.42,0,0,0,3.24-4.56,68.67,68.67,0,0,0,8.4-34.62c-5.78-1.86-12.34-4.46-14.19-10.24-1.47-4.56.5-10-2.08-14.06-3.67-5.73-19.25-6.46-24.25-2.3-3.28,2.72-2.11,5.26-3.15,8.94C340.25,367.9,336.06,372.78,336.7,377.08Z" transform="translate(-28 -49.53)" opacity="0.1"/>
    <path id="Path_529" data-name="Path 529" d="M341.9,839.33a13.49,13.49,0,0,0,5.48,2.3,183.851,183.851,0,0,0,58.19,4.79c2.61-.21,6.09-1.6,5.45-4.14-.6-2.37-4-2.21-6.3-2.92-2.17-.66-3.8-2.41-5.42-4-6-6-13.26-10.54-20.42-15.08a18.439,18.439,0,0,0-5.75-2.78c-2.47-.56-5.05-.09-7.55.39-6.3,1.19-18.31,1-23.3,5.65C338.29,827.24,337.71,835.66,341.9,839.33Z" transform="translate(-28 -49.53)" fill="#3f3d56"/>
    <path id="Path_530" data-name="Path 530" d="M415,834.34c0,1.55.18,3.29,1.36,4.28a5,5,0,0,0,3.23.88,22.56,22.56,0,0,0,19.77-12l28-3.27c5.3-.62,10.7-1.27,15.57-3.46,5.75-2.6,10.34-7.17,14.79-11.64a5.92,5.92,0,0,0,1.73-2.49c.46-1.76-.88-3.61-2.57-4.31a10.319,10.319,0,0,0-5.41-.3c-13.67,1.89-27.39,8-40.77,4.6-3.27-.83-6.52-2.24-9.89-2a20.431,20.431,0,0,0-5.28,1.41c-4.35,1.6-17.36,3.87-20.24,7.55S415,829.94,415,834.34Z" transform="translate(-28 -49.53)" fill="#3f3d56"/>
    <path id="Path_531" data-name="Path 531" d="M344.19,521.69c-4,6.23-12.43,7.59-18.32,12.06-9.05,6.87-10.58,19.67-11.1,31-.35,7.84-.57,15.8,1.17,23.46,1.22,5.33,3.36,10.41,5,15.64,3.5,11.37,4.48,23.35,5,35.23,1.37,30,.15,60.19,4,90,1.11,8.53,2.62,17,3.46,25.56,2.76,28.32-1.92,57.52,5.67,84.94a44.14,44.14,0,0,1,31.73-14.21c2.5,0,5.11.15,7.41-.86s4.12-3.69,3.16-6a18.373,18.373,0,0,0-2-2.84c-3.31-5,2.31-12.07-.09-17.58-.93-2.12-2.94-3.69-3.53-5.92-.63-2.42.59-4.9.93-7.38.68-5-2.19-9.66-3.68-14.45-2.25-7.25-1.35-15-.57-22.59a641.923,641.923,0,0,0,3.39-74.66c-.21-16.87-1.05-34.1,3.81-50.26a128.191,128.191,0,0,1,23.12,29.26c3.88,6.61,7.23,13.67,8.52,21.23.94,5.55.76,11.22.57,16.84q-1.44,43.15-2.89,86.3c-.58,17.4-1.08,35.31,4.95,51.63,15.33-8.16,31-16,46.33-24.21-.25-5.65-7.85-7.72-10.65-12.63a15.8,15.8,0,0,1-1.6-6.59c-1.94-23.38,2.83-46.74,7.24-69.78,1.68-8.78,3.32-17.63,3.31-26.56,0-14.18-4.15-28-8.44-41.51-4.54-14.31-9.29-28.56-14-42.81-3-9.15-6.1-18.31-9.92-27.17-3.6-8.38-7.88-16.47-10.95-25-4.93-13.78-6.62-28.47-8.27-43C386.11,512.92,365,517.53,344.19,521.69Z" transform="translate(-28 -49.53)" fill="#2f2e41"/>
    <circle id="Ellipse_99" data-name="Ellipse 99" cx="29.22" cy="29.22" r="29.22" transform="translate(297.44 259.42)" fill="#fbbebe"/>
    <path id="Path_532" data-name="Path 532" d="M365.59,408.82,363.47,393a9.74,9.74,0,0,0-5.06-8.57l-20.36-14.88c-1-.76-2.38-1.56-3.54-1a3.37,3.37,0,0,0-1.41,2.08c-3.22,9.5-1.23,19.86-.11,29.83.95,8.31,1.27,16.68,1.59,25a184.7,184.7,0,0,1-.06,22.69c-1.1,13.08-5,26.24-2.39,39.11,1.72,8.51,4.75,16.42,5.46,25.08.49,6,.34,12.1,2.24,17.78,7-3,14.92-2.67,22.53-2.27l18.47,1a33.512,33.512,0,0,0,7.69-.18,26.053,26.053,0,0,0,8.07-3.16,55.391,55.391,0,0,0,16.85-14.7c-3.12-15.07-.09-30.63-2.17-45.88-1.19-8.79-4.17-17.26-5.57-26-1.72-10.79-1.05-22-4.14-32.48a93.686,93.686,0,0,0-6.64-15.38,28.37,28.37,0,0,0-12.71-12.95,7.17,7.17,0,0,0-3.34-.85c-2.94.17-4.76,3.29-5.58,6.13-1,3.4-1.28,7-2.06,10.41C370.11,398.8,368.49,404.61,365.59,408.82Z" transform="translate(-28 -49.53)" fill="#6c63ff"/>
    <path id="Path_533" data-name="Path 533" d="M305.7,597.32c3.89,4.12,11,3.11,15.52-.28,9.84-7.37,10.75-21.48,11.29-33.76.2-4.4.5-9,2.57-12.86,3.16-5.95,9.71-9.09,15.15-13.08,12.9-9.44,20.47-25,22.74-40.78s-.34-32-4.7-47.37c-7.54-26.57-20.24-51.34-33.13-75.76a5.68,5.68,0,0,0-1.79-2.3c-2.62-1.62-5.46,1.59-7.26,4.1-6.07,8.5-16.07,13.06-25.23,18.09s-18.52,11.73-21.29,21.8c-1.86,6.75-.41,13.93,1,20.78S287,448.19,290.69,454a173.857,173.857,0,0,1,11.67,19.89,38.221,38.221,0,0,1,3,8.06,49,49,0,0,1,.79,10c.21,20.72.42,41.51-2.08,62.08-1.42,11.64-3.7,23.32-2.66,35C301.66,592.17,303.48,595,305.7,597.32Z" transform="translate(-28 -49.53)" fill="#3f3d56"/>
    <path id="Path_534" data-name="Path 534" d="M330.4,558.7c4.16,1.86,8.37,3.79,12.87,4.53s9.43.14,13-2.65,5.45-8.07,3.41-12.15a60.378,60.378,0,0,0,9.6-.46c1.83-.23,4.05-.93,4.33-2.75.32-2.12-2.24-3.4-4.31-4l-11.16-3.07a29.761,29.761,0,0,0-16.41-1.24l-17,2.6a3,3,0,0,0-1.28.4,3.07,3.07,0,0,0-1,1.68c-.82,2.59-4.61,9.83-3.31,12.41C320.3,556.21,328.07,557.53,330.4,558.7Z" transform="translate(-28 -49.53)" fill="#fbbebe"/>
    <path id="Path_535" data-name="Path 535" d="M437,569.66a17.28,17.28,0,0,1-10.85,9.51,6.07,6.07,0,0,1-3.24.21c-2-.56-3.1-2.65-3.93-4.55-19.8-45.08-18.69-96.39-31.29-144-3.74-14.13-8.74-28.33-7.83-42.92.16-2.61.71-5.55,2.89-7,1.94-1.3,4.58-.95,6.7,0s4,2.5,6,3.56c3.31,1.69,7.16,2.17,10.34,4.08,4.72,2.83,7.14,8.24,9.25,13.32,4.51,10.84,9,22,9.35,33.76.77,22.84-9.36,44.79-4.09,67,1.05,4.4,2.6,8.67,4.08,12.94a391.549,391.549,0,0,1,13,46.81C437.93,565.1,438.05,567.17,437,569.66Z" transform="translate(-28 -49.53)" fill="#3f3d56"/>
    <path id="Path_536" data-name="Path 536" d="M335.71,340.74c1.75-2.83,4.18-5.32,5.12-8.51.67-2.27.53-4.73,1.34-7,2-5.48,8.94-7.5,14.69-6.56s10.92,4,16.54,5.53c3.11.86,7.43.6,8.31-2.51.58-2.06-.81-4.1-2.13-5.79L363,294.74c-2.18.56-4.62,1.08-6.6,0-1.14-.63-2-1.74-3.27-2.1-3.45-1-6.34,4.31-9.8,3.39-1-.26-1.79-1-2.79-1.08-2.79-.23-3.84,4.39-6.63,4.62-1.16.1-2.28-.64-3.43-.53a4.36,4.36,0,0,0-2.59,1.61c-5.55,5.89-7.8,14.34-7.5,22.42s-1.09,15.92,2,23.38c1.36,3.26,4.12,7.1,7.47,6,0-4.4,4.1-8.79,4.15-13.19" transform="translate(-28 -49.53)" fill="#2f2e41"/>
    <g id="Group_22" data-name="Group 22" opacity="0.1">
      <path id="Path_537" data-name="Path 537" d="M392.17,636.52a126.888,126.888,0,0,0-21.57-26.71c-4.86,16.16-4,33.39-3.81,50.26a641.91,641.91,0,0,1-3.39,74.66c-.79,7.55-1.68,15.34.57,22.59,1.49,4.79,4.36,9.47,3.68,14.45-.34,2.48-1.56,5-.93,7.38.59,2.23,2.6,3.8,3.53,5.92,2.4,5.51-3.22,12.56.09,17.58a18.372,18.372,0,0,1,2,2.84c1,2.32-.86,5-3.16,6s-4.91.83-7.41.86a44.19,44.19,0,0,0-26.14,9.11,116.837,116.837,0,0,0,3.41,18.1,44.14,44.14,0,0,1,31.73-14.21c2.5,0,5.11.15,7.41-.86s4.12-3.69,3.16-6a18.367,18.367,0,0,0-2-2.84c-3.31-5,2.31-12.07-.09-17.58-.93-2.12-2.94-3.69-3.53-5.92-.63-2.42.59-4.9.93-7.38.68-5-2.19-9.66-3.68-14.45-2.25-7.25-1.36-15-.57-22.59a641.921,641.921,0,0,0,3.39-74.66c-.21-16.87-1.05-34.1,3.81-50.26a124.255,124.255,0,0,1,12.57,13.71Z" transform="translate(-28 -49.53)"/>
    </g>
    <g id="Group_23" data-name="Group 23" opacity="0.1">
      <path id="Path_538" data-name="Path 538" d="M320.42,324v-4.14a28.468,28.468,0,0,0,0,3.2C320.41,323.4,320.41,323.71,320.42,324Z" transform="translate(-28 -49.53)"/>
      <path id="Path_539" data-name="Path 539" d="M373.4,320.25c-5.62-1.54-10.8-4.58-16.54-5.53s-12.71,1.08-14.69,6.56c-.81,2.22-.67,4.68-1.34,7-.94,3.19-3.37,5.68-5.12,8.51l-1.65-1.46c-.05,4.4-4.1,8.79-4.15,13.19-3.35,1.09-6.11-2.75-7.47-6a30.31,30.31,0,0,1-2.08-11.26c-.09,5.23,0,10.32,2.08,15.26,1.36,3.26,4.12,7.1,7.47,6,0-4.4,4.1-8.79,4.15-13.19l1.65,1.46c1.75-2.83,4.18-5.32,5.12-8.51.67-2.27.53-4.73,1.34-7,2-5.48,8.94-7.5,14.69-6.56s10.92,4,16.54,5.53c3.11.86,7.43.6,8.31-2.51a4.44,4.44,0,0,0-.39-3.11C379.93,320.88,376.18,321,373.4,320.25Z" transform="translate(-28 -49.53)"/>
    </g>
    <path id="Path_540" data-name="Path 540" d="M278.89,444.91A149.684,149.684,0,0,1,275.21,463l-7,28.53c-.75,3-1.5,6.16-1.17,9.27.46,4.19,2.84,7.9,5.25,11.36a226.67,226.67,0,0,0,49.58,51.44c-1.11-5.7,2.84-11,6.55-15.48s7.33-8.77,12.18-11.67Q322.38,519.33,305.34,501a18.56,18.56,0,0,1-3.06-4c-2.74-5.29,0-11.61,2.38-17.07,7.53-17.39,11.09-37.13,6.26-55.45-1.82-6.89-5-13.77-10.79-18-2.53-1.85-6-3.1-8.76-1.71a9.77,9.77,0,0,0-3,2.7C279.38,418.46,280.45,431.61,278.89,444.91Z" transform="translate(-28 -49.53)" fill="#3f3d56"/>
    <ellipse id="Ellipse_100" data-name="Ellipse 100" cx="29.24" cy="5.62" rx="29.24" ry="5.62" transform="translate(227.52 787.62)" fill="#6c63ff"/>
    <ellipse id="Ellipse_101" data-name="Ellipse 101" cx="3.4" cy="4.46" rx="3.4" ry="4.46" transform="translate(252.87 786.39)" fill="#3f3d56"/>
    <ellipse id="Ellipse_102" data-name="Ellipse 102" cx="3.4" cy="4.46" rx="3.4" ry="4.46" transform="translate(252.87 780.94)" fill="#3f3d56"/>
    <ellipse id="Ellipse_103" data-name="Ellipse 103" cx="3.4" cy="4.46" rx="3.4" ry="4.46" transform="translate(252.87 775.5)" fill="#3f3d56"/>
    <ellipse id="Ellipse_104" data-name="Ellipse 104" cx="3.4" cy="4.46" rx="3.4" ry="4.46" transform="translate(252.87 770.05)" fill="#3f3d56"/>
    <ellipse id="Ellipse_105" data-name="Ellipse 105" cx="3.4" cy="4.46" rx="3.4" ry="4.46" transform="translate(252.87 764.6)" fill="#3f3d56"/>
    <ellipse id="Ellipse_106" data-name="Ellipse 106" cx="3.4" cy="4.46" rx="3.4" ry="4.46" transform="translate(252.87 759.16)" fill="#3f3d56"/>
    <ellipse id="Ellipse_107" data-name="Ellipse 107" cx="3.4" cy="4.46" rx="3.4" ry="4.46" transform="translate(252.87 753.71)" fill="#3f3d56"/>
    <path id="Path_541" data-name="Path 541" d="M297,770.43a15.774,15.774,0,0,0,1.27-1.87l-8.94-1.47,9.67.07a16.35,16.35,0,0,0,.31-12.92l-13,6.73,12-8.79a16.31,16.31,0,1,0-26.93,18.25,15.939,15.939,0,0,0-1.86,3l11.61,6-12.38-4.15a16.31,16.31,0,0,0,2.63,15.31,16.31,16.31,0,1,0,25.63,0,16.3,16.3,0,0,0,0-20.16Z" transform="translate(-28 -49.53)" fill="#6c63ff"/>
    <path id="Path_542" data-name="Path 542" d="M267.89,780.51a16.21,16.21,0,0,0,3.49,10.08,16.31,16.31,0,1,0,25.63,0C299.2,787.82,267.89,778.68,267.89,780.51Z" transform="translate(-28 -49.53)" opacity="0.1"/>
    <ellipse id="Ellipse_108" data-name="Ellipse 108" cx="40.21" cy="6.8" rx="40.21" ry="6.8" transform="translate(879.98 787.34)" fill="#6c63ff"/>
    <path id="Path_543" data-name="Path 543" d="M964.82,832.55a11.66,11.66,0,0,0,3.83-5.78c.5-2.3-.48-5.06-2.68-5.9-2.46-.94-5.09.77-7.08,2.49s-4.28,3.69-6.88,3.32a10.5,10.5,0,0,0,3.24-9.81,4.119,4.119,0,0,0-.9-2c-1.37-1.46-3.84-.83-5.48.32-5.2,3.65-6.65,10.72-6.68,17.07-.52-2.29-.08-4.68-.09-7s-.66-5-2.65-6.22a7.92,7.92,0,0,0-4-.95c-2.33-.09-4.94.15-6.53,1.86-2,2.12-1.47,5.68.25,8s4.35,3.81,6.77,5.42a15,15,0,0,1,4.83,4.61,4.155,4.155,0,0,1,.36.83h14.66a40.773,40.773,0,0,0,9.03-6.26Z" transform="translate(-28 -49.53)" fill="#6c63ff"/>
    <path id="Path_544" data-name="Path 544" d="M733.75,415.98l.87-1.94-1.16-.52-.87,1.94-4.55,4.95,5.05,2.26Z" fill="#3f3d56"/>
    <path id="Path_545" data-name="Path 545" d="M738.79,418.3l.89-1.99-1.19-.54-.89,1.99-4.67,5.08,5.18,2.32Z" fill="#3f3d56"/>
    <path id="Path_546" data-name="Path 546" d="M743.85,420.5l.87-1.94-1.17-.52-.87,1.94-4.55,4.95,5.05,2.26Z" fill="#3f3d56"/>
    <path id="Path_547" data-name="Path 547" d="M779.8,436.66l.89-1.99-1.19-.54-.89,1.99-4.67,5.08,5.18,2.32Z" fill="#3f3d56"/>
    <path id="Path_548" data-name="Path 548" d="M784.98,438.98l.89-1.99-1.19-.54-.9,1.99-4.66,5.08,5.18,2.32Z" fill="#3f3d56"/>
    <path id="Path_549" data-name="Path 549" d="M790.15,441.29l.9-1.99-1.2-.53-.89,1.99-4.66,5.08,5.17,2.32Z" fill="#3f3d56"/>
    <path id="Path_550" data-name="Path 550" d="M756.31,426.14l.89-1.99-1.19-.54-.89,2-4.67,5.08,5.18,2.31Z" fill="#3f3d56"/>
    <path id="Path_551" data-name="Path 551" d="M761.49,428.46l.89-1.99-1.2-.54-.89,1.99L755.63,433l5.17,2.32Z" fill="#3f3d56"/>
    <path id="Path_552" data-name="Path 552" d="M766.66,430.77l.89-1.99-1.19-.53-.89,1.99-4.67,5.08,5.18,2.32Z" fill="#3f3d56"/>
    <path id="Path_553" data-name="Path 553" d="M841.43,334.2c2.92-6.92.09-22.66-4.26-24.61s-17.59,6.6-20.81,13.39l-.2-.1L754.48,460.64,779.76,472l61.68-137.8Z" transform="translate(-28 -49.53)" fill="#ececf3"/>
    <path id="Path_554" data-name="Path 554" d="M887.62,354.88c2.91-6.92.09-22.66-4.27-24.61s-17.58,6.6-20.8,13.39l-.21-.1L800.66,481.32,826,492.64l61.68-137.76Z" transform="translate(-28 -49.53)" fill="#ececf3"/>
    <path id="Path_555" data-name="Path 555" d="M892.89,280.12c4.35-10.12,4-31.48-.32-33.43s-20.1,12.22-24.75,22.21l-.2-.1-90.45,202,25.28,11.32,90.45-202Z" transform="translate(-28 -49.53)" fill="#fff"/>
    <rect id="Rectangle_17" data-name="Rectangle 17" width="5.23" height="11.34" rx="2.615" transform="translate(858.368 204.889) rotate(24.12)" fill="#3f3d56"/>
    <path id="Path_556" data-name="Path 556" d="M690.17,497.83l25.68,3.46c4.15.56,8.57,1.08,12.38-.66,6.31-2.89,8.71-10.87,14.52-14.65,6.55-4.27,16.12-1.56,20.69,4.78,1.2,1.68,2.15,3.59,3.79,4.84,6.57,5,17-4.4,23.88.24,3.43,2.33,4.51,7.54,8.43,8.92,2.59.91,5.45-.27,8.19-.05,6.85.55,9.94,9.34,8.5,16.06s-5.6,12.66-6.72,19.43,2.94,15.41,9.79,15" transform="translate(-28 -49.53)" fill="#fff" opacity="0.3"/>
    <circle id="Ellipse_109" data-name="Ellipse 109" cx="12" cy="12" r="12" transform="translate(803 65)" fill="#6c63ff" opacity="0.1"/>
    <circle id="Ellipse_110" data-name="Ellipse 110" cx="12" cy="12" r="12" transform="translate(948)" fill="#6c63ff" opacity="0.1"/>
    <circle id="Ellipse_111" data-name="Ellipse 111" cx="12" cy="12" r="12" transform="translate(888 45)" fill="#6c63ff" opacity="0.1"/>
    <circle id="Ellipse_112" data-name="Ellipse 112" cx="12" cy="12" r="12" transform="translate(1029 149)" fill="#6c63ff" opacity="0.1"/>
    <circle id="Ellipse_113" data-name="Ellipse 113" cx="12" cy="12" r="12" transform="translate(960 77)" fill="#6c63ff" opacity="0.1"/>
  </g>
</svg>
