<svg xmlns="http://www.w3.org/2000/svg" xmlns:xlink="http://www.w3.org/1999/xlink" width="685" height="540" viewBox="0 0 685 540">
  <defs>
    <linearGradient id="linear-gradient" x1="0.5" y1="1" x2="0.5" gradientUnits="objectBoundingBox">
      <stop offset="0" stop-color="gray" stop-opacity="0.251"/>
      <stop offset="0.54" stop-color="gray" stop-opacity="0.122"/>
      <stop offset="1" stop-color="gray" stop-opacity="0.102"/>
    </linearGradient>
    <clipPath id="clip-Science_Illustration">
      <rect width="685" height="540"/>
    </clipPath>
  </defs>
  <g id="Science_Illustration" data-name="Science Illustration" clip-path="url(#clip-Science_Illustration)">
    <rect width="685" height="540" fill="#fff"/>
    <g id="Group_86" data-name="Group 86" transform="translate(35 50)">
      <path id="Path_1730" data-name="Path 1730" d="M34.439,330.547c10.862-18.374,35.425-15.171,52.844-5.58s34.8,23.909,53.97,21.158c16.163-2.321,29.417-16.917,36.578-33.757s9.262-35.827,11.277-54.424q3.8-35.046,7.591-70.136c.927-8.554,2.02-17.581,6.665-24.35,6.137-8.927,17.386-11.673,27.009-8.989s17.828,9.882,24.849,17.911c22.489,25.711,35.231,60.467,54.891,89.079,4,5.825,8.524,11.583,14.5,14.4,8.621,4.045,18.518,1.183,26.939-3.32,27.478-14.669,45.937-44.6,64.077-72.535,8.825-13.575,19.585-28.093,34.267-29.572,15.447-1.59,28.857,12.041,37.936,26.475,29.137,46.445,35.382,109.852,70.581,150.36,4.37,5.022,9.192,9.664,14.746,12.783a37.411,37.411,0,0,0,5.711,2.595c30.711,11.009,40.947,55.2,18.232,81.4q-.736.837-1.5,1.674c-3.373,3.688-7.193,7.175-11.751,8.275-4.24,1.015-8.62-.156-12.823-1.423-26.864-8.118-53.4-20.527-81.178-19.925-27.025.558-52.661,13.486-79.384,18.139-17.968,3.13-36.249,2.505-54.417,1.83q-90.763-3.381-181.489-7.867c-30.021-1.428-60.053-2.79-90.068-4.38-23.125-1.244-37.855-3.984-40.538-31.776C41.611,384.251,20.512,354.115,34.439,330.547Z" transform="translate(-29.719 -99.293)" fill="#6c63ff" opacity="0.1"/>
      <ellipse id="Ellipse_242" data-name="Ellipse 242" cx="145.466" cy="21.052" rx="145.466" ry="21.052" transform="translate(280.119 397.164)" fill="#3f3d56"/>
      <path id="Path_1731" data-name="Path 1731" d="M178.46,642.914s7.112-1.674,11.772,3.275c0,0-3,2.79-10.043-.3Z" transform="translate(-98.321 -315.518)" fill="#6c63ff"/>
      <path id="Path_1732" data-name="Path 1732" d="M174.921,643s-4.213,6.182-1.541,12.526c0,0,3.642-1.814,3.54-9.737Z" transform="translate(-95.569 -315.676)" fill="#6c63ff"/>
      <path id="Path_1733" data-name="Path 1733" d="M168.2,624.557s2.527-5.663,14.547,1.183c0,0-1.293,3.783-6.4,3.839S169.709,627.341,168.2,624.557Z" transform="translate(-93.589 -306.551)" fill="#6c63ff"/>
      <path id="Path_1734" data-name="Path 1734" d="M161.907,625.68s-6.018-.29-5.679,13.9c0,0,3.842.558,6.239-4.118S163.593,628.375,161.907,625.68Z" transform="translate(-88.061 -308.02)" fill="#6c63ff"/>
      <path id="Path_1735" data-name="Path 1735" d="M159,601.294s2.694-9.865,15.339-3.839c0,0-2.209,9.033-13.9,7.053Z" transform="translate(-89.346 -294.682)" fill="#6c63ff"/>
      <path id="Path_1736" data-name="Path 1736" d="M150.29,576.46s5.7-10.177,17.505-1.919c0,0-3.335,9.413-16.32,5.329Z" transform="translate(-85.329 -283.986)" fill="#6c63ff"/>
      <path id="Path_1737" data-name="Path 1737" d="M146.15,552.486s6.8-9.458,18.513-1.289c0,0-6.5,8.336-18.367,3.571Z" transform="translate(-83.419 -273.626)" fill="#6c63ff"/>
      <path id="Path_1738" data-name="Path 1738" d="M142.41,528.5s6.875-9.854,18.1-1.758c0,0-7.909,8.832-17.958,3.945Z" transform="translate(-81.694 -262.874)" fill="#6c63ff"/>
      <path id="Path_1739" data-name="Path 1739" d="M142.23,505.235s7.085-12.571,17.591-5.117c0,0-7.769,10.919-17.44,7.4Z" transform="translate(-81.611 -251.473)" fill="#6c63ff"/>
      <path id="Path_1740" data-name="Path 1740" d="M144,480.663s7.543-12.5,17.828-4.006c0,0-9.213,11.02-17.71,6.221Z" transform="translate(-82.427 -240.839)" fill="#6c63ff"/>
      <path id="Path_1741" data-name="Path 1741" d="M147.422,456.754s9.159-11.89,18.076-8.018c0,0-9.526,12.61-18.319,11.025Z" transform="translate(-83.894 -229.461)" fill="#6c63ff"/>
      <path id="Path_1742" data-name="Path 1742" d="M152.072,433.506S162.6,419,169.512,423.117c0,0-7.71,11.209-18.092,13.028Z" transform="translate(-85.85 -218.155)" fill="#6c63ff"/>
      <path id="Path_1743" data-name="Path 1743" d="M159.281,409.53s9.251-11.9,16.7-9.619c0,0-7.785,12.214-17.834,13.213Z" transform="translate(-88.954 -208.094)" fill="#6c63ff"/>
      <path id="Path_1744" data-name="Path 1744" d="M166.819,386.079s10.334-11.494,15.253-9.943c0,0-7.193,12.476-15.582,12.359Z" transform="translate(-92.8 -197.649)" fill="#6c63ff"/>
      <path id="Path_1745" data-name="Path 1745" d="M173.87,362.325s8.669-13.475,13.911-12.833c0,0-5.016,11.823-13.825,14.133Z" transform="translate(-96.204 -185.925)" fill="#6c63ff"/>
      <path id="Path_1746" data-name="Path 1746" d="M180.74,335.122s7.753-10.412,12.29-10.7c0,0-5.77,13.581-12.43,13.949Z" transform="translate(-99.308 -174.852)" fill="#6c63ff"/>
      <path id="Path_1747" data-name="Path 1747" d="M184.205,307.73l6.778-21.03s1.616,18.469-7.543,24.9Z" transform="translate(-100.618 -158.179)" fill="#6c63ff"/>
      <path id="Path_1748" data-name="Path 1748" d="M187.637,268.868s.237-17.18-.717-18.508c0,0,6.719,13.8,1.153,26.062Z" transform="translate(-102.223 -142.115)" fill="#6c63ff"/>
      <path id="Path_1749" data-name="Path 1749" d="M146.936,604.855s-8.761-4.81-13.346,8.777c0,0,7.812,4.62,14.547-5.474Z" transform="translate(-77.626 -298.449)" fill="#6c63ff"/>
      <path id="Path_1750" data-name="Path 1750" d="M137.106,579.138s-10.625-4.157-14.736,9.976c0,0,8.335,5.105,15.9-6.562Z" transform="translate(-72.451 -287.195)" fill="#6c63ff"/>
      <path id="Path_1751" data-name="Path 1751" d="M129.513,554.985s-7.969-8.431-18.513,1.3c0,0,7.511,7.359,18.658,1Z" transform="translate(-67.207 -275.272)" fill="#6c63ff"/>
      <path id="Path_1752" data-name="Path 1752" d="M126.392,529.525s-8.082-8.821-18.162.759c0,0,8.976,7.661,18.319,1.423Z" transform="translate(-65.93 -263.878)" fill="#6c63ff"/>
      <path id="Path_1753" data-name="Path 1753" d="M127.589,505.135s-6.121-13.1-17.149-6.511c0,0,6.929,11.511,16.832,8.782Z" transform="translate(-66.949 -251.038)" fill="#6c63ff"/>
      <path id="Path_1754" data-name="Path 1754" d="M130.383,479.433s-6.1-13.335-17.273-6.177c0,0,7.9,12.058,16.885,8.33Z" transform="translate(-68.18 -239.71)" fill="#6c63ff"/>
      <path id="Path_1755" data-name="Path 1755" d="M138.838,451.38s-3.039-14.87-12.688-15.55c0,0,3.06,15.7,11.589,18.346Z" transform="translate(-74.195 -224.1)" fill="#6c63ff"/>
      <path id="Path_1756" data-name="Path 1756" d="M144.576,427.991s-1.977-18.028-9.946-18.111c0,0,1.158,13.709,9.219,20.728Z" transform="translate(-78.106 -212.629)" fill="#6c63ff"/>
      <path id="Path_1757" data-name="Path 1757" d="M152.279,403.531s-3.346-14.875-11.029-16.181c0,0,1.886,14.507,10.522,19.93Z" transform="translate(-81.159 -202.67)" fill="#6c63ff"/>
      <path id="Path_1758" data-name="Path 1758" d="M163.524,380.173s-1.078-15.662-5.873-17.643c0,0-1.945,14.384,4.66,19.741Z" transform="translate(-88.6 -191.698)" fill="#6c63ff"/>
      <path id="Path_1759" data-name="Path 1759" d="M168.807,357.873s-1.7-16.1-6.632-18.033c0,0-.808,12.883,5.98,19.138Z" transform="translate(-90.796 -181.668)" fill="#6c63ff"/>
      <path id="Path_1760" data-name="Path 1760" d="M177.923,333.173s-.884-13.118-4.5-15.963c0,0-2.468,14.613,2.883,18.725Z" transform="translate(-95.736 -171.665)" fill="#6c63ff"/>
      <path id="Path_1761" data-name="Path 1761" d="M179.383,306.156l-4.741-21.616s-3.357,18.212,5.156,25.544Z" transform="translate(-96.259 -157.224)" fill="#6c63ff"/>
      <path id="Path_1762" data-name="Path 1762" d="M174.563,271.806s-9.5-14.105-9.423-15.746c0,0,1.907,15.333,13.152,22.257Z" transform="translate(-92.177 -144.635)" fill="#6c63ff"/>
      <path id="Path_1763" data-name="Path 1763" d="M172.732,259.151s-9.407-20.3-13.162-21.761c0,0,11.9,5.262,13.8,21.091Z" transform="translate(-89.609 -136.382)" fill="#6c63ff"/>
      <path id="Path_1764" data-name="Path 1764" d="M180.079,316.179l-.539-.139c5.307-23.435,6.056-38.209,2.1-41.6l.366-.457C186.178,277.573,185.521,292.17,180.079,316.179Z" transform="translate(-98.819 -152.556)" fill="#444053"/>
      <path id="Path_1765" data-name="Path 1765" d="M151.545,403.28l-.835-.24c.587-2.154,1.223-4.347,1.9-6.506,5.927-18.814,10.851-36.268,13.874-49.625l.684-.418c-3.028,13.391-7.818,31.486-13.734,50.317C152.763,398.961,152.127,401.137,151.545,403.28Z" transform="translate(-85.522 -184.608)" fill="#444053"/>
      <path id="Path_1766" data-name="Path 1766" d="M172.235,571.926c-.119-.117-11.972-12.2-21.077-33.612a133.339,133.339,0,0,1-10.027-39.487c-1.616-17.035.593-36.34,5.388-54.067l.69.736c-10.776,39.788-3.335,72.725,4.973,92.287,9.014,21.2,20.732,33.171,20.851,33.288Z" transform="translate(-80.862 -228.047)" fill="#444053"/>
      <path id="Path_1767" data-name="Path 1767" d="M223.53,558.327s4.31-1.021,7.123,1.981c0,0-1.816,1.674-6.072-.184Z" transform="translate(-119.108 -278.174)" fill="#6c63ff"/>
      <path id="Path_1768" data-name="Path 1768" d="M221.406,558.39s-2.543,3.738-.927,7.571c0,0,2.2-1.116,2.155-5.887Z" transform="translate(-117.453 -278.276)" fill="#6c63ff"/>
      <path id="Path_1769" data-name="Path 1769" d="M217.34,547.228s1.525-3.42,8.782.72a3.918,3.918,0,0,1-3.869,2.316C219.166,550.3,218.261,548.913,217.34,547.228Z" transform="translate(-116.253 -272.755)" fill="#6c63ff"/>
      <path id="Path_1770" data-name="Path 1770" d="M213.53,547.91s-3.642-.173-3.437,8.4c0,0,2.322.335,3.771-2.489S214.549,549.539,213.53,547.91Z" transform="translate(-112.907 -273.643)" fill="#6c63ff"/>
      <path id="Path_1771" data-name="Path 1771" d="M211.75,533.163s1.654-5.965,9.283-2.332c0,0-1.331,5.462-8.4,4.263Z" transform="translate(-113.675 -265.575)" fill="#6c63ff"/>
      <path id="Path_1772" data-name="Path 1772" d="M206.51,518.158s3.443-6.138,10.582-1.16c0,0-2.02,5.691-9.865,3.219Z" transform="translate(-111.258 -259.118)" fill="#6c63ff"/>
      <path id="Path_1773" data-name="Path 1773" d="M204,503.66s4.116-5.719,11.191-.781c0,0-3.922,5.022-11.1,2.159Z" transform="translate(-110.1 -252.849)" fill="#6c63ff"/>
      <path id="Path_1774" data-name="Path 1774" d="M201.74,489.159s4.159-5.959,10.943-1.06c0,0-4.779,5.34-10.856,2.383Z" transform="translate(-109.058 -246.35)" fill="#6c63ff"/>
      <path id="Path_1775" data-name="Path 1775" d="M201.64,475.091s4.31-7.594,10.63-3.091c0,0-4.7,6.6-10.544,4.464Z" transform="translate(-109.012 -239.457)" fill="#6c63ff"/>
      <path id="Path_1776" data-name="Path 1776" d="M202.68,460.236s4.574-7.56,10.776-2.444c0,0-5.571,6.662-10.711,3.761Z" transform="translate(-109.492 -233.022)" fill="#6c63ff"/>
      <path id="Path_1777" data-name="Path 1777" d="M204.785,445.791s5.533-7.187,10.926-4.843c0,0-5.76,7.622-11.061,6.662Z" transform="translate(-110.4 -226.154)" fill="#6c63ff"/>
      <path id="Path_1778" data-name="Path 1778" d="M207.583,431.732s6.363-8.765,10.544-6.283c0,0-4.66,6.779-10.937,7.878Z" transform="translate(-111.572 -219.315)" fill="#6c63ff"/>
      <path id="Path_1779" data-name="Path 1779" d="M211.958,417.255s5.593-7.192,10.108-5.814c0,0-4.7,7.382-10.776,7.985Z" transform="translate(-113.463 -213.241)" fill="#6c63ff"/>
      <path id="Path_1780" data-name="Path 1780" d="M216.5,403.06s6.244-6.947,9.219-6.009c0,0-4.343,7.538-9.418,7.471Z" transform="translate(-115.773 -206.919)" fill="#6c63ff"/>
      <path id="Path_1781" data-name="Path 1781" d="M220.76,388.7s5.242-8.146,8.41-7.767c0,0-3.028,7.148-8.357,8.548Z" transform="translate(-117.83 -199.826)" fill="#6c63ff"/>
      <path id="Path_1782" data-name="Path 1782" d="M224.926,372.252s4.687-6.294,7.43-6.472c0,0-3.491,8.213-7.516,8.42Z" transform="translate(-119.712 -193.135)" fill="#6c63ff"/>
      <path id="Path_1783" data-name="Path 1783" d="M226.995,355.7l4.089-12.7s.97,11.159-4.574,15.065Z" transform="translate(-120.483 -183.065)" fill="#6c63ff"/>
      <path id="Path_1784" data-name="Path 1784" d="M229.086,332.2s.14-10.384-.436-11.187c0,0,4.062,8.342.7,15.757Z" transform="translate(-121.469 -173.345)" fill="#6c63ff"/>
      <path id="Path_1785" data-name="Path 1785" d="M204.462,535.323s-5.291-2.913-8.082,5.3c0,0,4.725,2.79,8.8-3.3Z" transform="translate(-106.586 -267.857)" fill="#6c63ff"/>
      <path id="Path_1786" data-name="Path 1786" d="M198.542,519.727s-6.428-2.511-8.911,6.031c0,0,5.038,3.085,9.612-3.962Z" transform="translate(-103.473 -261.033)" fill="#6c63ff"/>
      <path id="Path_1787" data-name="Path 1787" d="M193.941,505.166s-4.811-5.094-11.191.781c0,0,4.542,4.464,11.282.6Z" transform="translate(-100.3 -253.843)" fill="#6c63ff"/>
      <path id="Path_1788" data-name="Path 1788" d="M192.06,489.778s-4.887-5.329-10.98.463c0,0,5.426,4.626,11.067.859Z" transform="translate(-99.529 -246.958)" fill="#6c63ff"/>
      <path id="Path_1789" data-name="Path 1789" d="M192.782,474.993s-3.7-7.918-10.372-3.939c0,0,4.192,6.958,10.178,5.312Z" transform="translate(-100.143 -239.176)" fill="#6c63ff"/>
      <path id="Path_1790" data-name="Path 1790" d="M194.458,459.481s-3.691-8.063-10.458-3.733c0,0,4.774,7.293,10.21,5.022Z" transform="translate(-100.876 -232.339)" fill="#6c63ff"/>
      <path id="Path_1791" data-name="Path 1791" d="M199.582,442.552s-1.837-8.994-7.672-9.4c0,0,1.848,9.485,7,11.087Z" transform="translate(-104.524 -222.915)" fill="#6c63ff"/>
      <path id="Path_1792" data-name="Path 1792" d="M203.034,428.393S201.849,417.5,197,417.44c0,0,.7,8.291,5.571,12.537Z" transform="translate(-106.872 -215.97)" fill="#6c63ff"/>
      <path id="Path_1793" data-name="Path 1793" d="M207.7,413.607s-2.02-8.994-6.665-9.787c0,0,1.142,8.766,6.363,12.046Z" transform="translate(-108.735 -209.95)" fill="#6c63ff"/>
      <path id="Path_1794" data-name="Path 1794" d="M214.506,399.488s-.663-9.485-3.545-10.668c0,0-1.18,8.7,2.812,11.935Z" transform="translate(-113.236 -203.319)" fill="#6c63ff"/>
      <path id="Path_1795" data-name="Path 1795" d="M217.7,386s-1.024-9.731-4.009-10.9c0,0-.49,7.812,3.615,11.572Z" transform="translate(-114.563 -197.255)" fill="#6c63ff"/>
      <path id="Path_1796" data-name="Path 1796" d="M223.23,371.073s-.539-7.929-2.694-9.653c0,0-1.492,8.838,1.74,11.321Z" transform="translate(-117.568 -191.207)" fill="#6c63ff"/>
      <path id="Path_1797" data-name="Path 1797" d="M224.118,354.738l-2.866-13.068s-2.031,11.014,3.114,15.445Z" transform="translate(-117.875 -182.477)" fill="#6c63ff"/>
      <path id="Path_1798" data-name="Path 1798" d="M221.185,333.979s-5.738-8.52-5.695-9.519c0,0,1.148,9.268,7.947,13.452Z" transform="translate(-115.4 -174.87)" fill="#6c63ff"/>
      <path id="Path_1799" data-name="Path 1799" d="M220.048,326.33s-5.69-12.275-7.958-13.14c0,0,7.2,3.18,8.34,12.755Z" transform="translate(-113.832 -169.888)" fill="#6c63ff"/>
      <path id="Path_1800" data-name="Path 1800" d="M224.5,360.79l-.339-.084c3.233-14.167,3.664-23.1,1.271-25.147l.221-.279C228.19,337.456,227.791,346.283,224.5,360.79Z" transform="translate(-119.399 -179.653)" fill="#444053"/>
      <path id="Path_1801" data-name="Path 1801" d="M207.267,413.475l-.507-.151c.356-1.3.744-2.622,1.153-3.906,3.572-11.377,6.557-21.928,8.383-30l.415-.257c-1.832,8.09-4.725,19.038-8.3,30.426C208,410.875,207.617,412.175,207.267,413.475Z" transform="translate(-111.373 -199.049)" fill="#444053"/>
      <path id="Path_1802" data-name="Path 1802" d="M219.769,515.412c-.07-.073-7.236-7.376-12.742-20.321a80.75,80.75,0,0,1-6.061-23.87c-.986-10.3.361-21.973,3.265-32.691l.415.447c-6.514,24.054-2.015,43.967,3.006,55.8,5.452,12.833,12.532,20.048,12.607,20.12Z" transform="translate(-108.553 -225.293)" fill="#444053"/>
      <path id="Path_1803" data-name="Path 1803" d="M217.205,562.273a20.068,20.068,0,0,0-4.041,1.194c-29.062,12.018-28.577,90.691-28.577,90.691h-8.556S173.337,620.4,161.6,572.227c-10.576-43.337,32.8-82.177,41.61-89.542.991-.82,1.541-1.255,1.541-1.255C248.438,498.057,217.205,562.273,217.205,562.273Z" transform="translate(-89.782 -244.256)" fill="#afc0e0"/>
      <path id="Path_1804" data-name="Path 1804" d="M207.95,482.806c-1.008-.48-2.047-.937-3.152-1.356,0,0-.539.435-1.541,1.255-8.809,7.365-52.186,46.2-41.61,89.542,11.74,48.169,14.407,81.92,14.407,81.92h4.811s-2.667-33.762-14.434-81.931C155.9,529.1,198.856,490.405,207.95,482.806Z" transform="translate(-89.806 -244.265)" fill="#fff" opacity="0.2"/>
      <path id="Path_1805" data-name="Path 1805" d="M476.894,572.239c-11.767,48.169-14.418,81.92-14.418,81.92H453.9s.539-82.221-30.565-91.4a16.45,16.45,0,0,0-2.053-.5s-31.249-64.216,12.457-80.832c0,0,.442.34,1.239,1C443.08,489.147,487.589,528.4,476.894,572.239Z" transform="translate(-205.325 -244.256)" fill="#afc0e0"/>
      <path id="Path_1806" data-name="Path 1806" d="M254.238,562.282a20.052,20.052,0,0,0-4.041,1.194,564.843,564.843,0,0,1-9.957-80.771c.991-.82,1.541-1.256,1.541-1.256C285.471,498.066,254.238,562.282,254.238,562.282Z" transform="translate(-126.815 -244.265)" opacity="0.1"/>
      <path id="Path_1807" data-name="Path 1807" d="M435.012,482.471a519.4,519.4,0,0,1-11.643,80.347,16.514,16.514,0,0,0-2.053-.5s-31.249-64.216,12.457-80.832C433.757,481.467,434.2,481.807,435.012,482.471Z" transform="translate(-205.339 -244.282)" opacity="0.1"/>
      <path id="Path_1808" data-name="Path 1808" d="M341.319,386.552q-4.526,18.491-10.609,37.941s-19.245,20.762-65.731,0a375.267,375.267,0,0,1-9.752-36.608c-11.244-50.68-24.73-147.258,4-246.458a376.022,376.022,0,0,1,36.2-85.067s24.547,29.187,42.564,85.05S367.471,279.824,341.319,386.552Z" transform="translate(-127.643 -56.36)" fill="#e3e8f4"/>
      <ellipse id="Ellipse_243" data-name="Ellipse 243" cx="38.593" cy="39.967" rx="38.593" ry="39.967" transform="translate(133.096 123.851)" fill="#afc0e0"/>
      <path id="Path_1809" data-name="Path 1809" d="M352.325,327.549a28.437,28.437,0,0,1-15.659,25.618,26.616,26.616,0,0,1-29.06-3.7,28.649,28.649,0,0,1-6.9-8.771,29.1,29.1,0,0,1-3.12-13.151v-.675a28.224,28.224,0,0,1,19.935-26.626,27.4,27.4,0,0,1,6.595-1.038h.819C340.059,299.2,352.322,311.89,352.325,327.549Z" transform="translate(-153.266 -163.709)" fill="#6c63ff"/>
      <path id="Path_1810" data-name="Path 1810" d="M352.681,141.41c-43.787,21.71-78.781,0-78.781,0a376.006,376.006,0,0,1,36.222-85.05S334.669,85.547,352.681,141.41Z" transform="translate(-142.34 -56.36)" fill="#afc0e0"/>
      <path id="Path_1811" data-name="Path 1811" d="M352.594,648.14q-3.071,12.521-6.843,25.471-1.789,6.177-3.771,12.454s-19.245,20.762-65.732,0c0,0-1.509-4.4-3.772-12.454-1.692-6.082-3.8-14.234-6-24.154,0,0,17.306,7.65,41.869,7.65a111.909,111.909,0,0,0,44.245-8.966Z" transform="translate(-138.917 -317.948)" fill="#afc0e0"/>
      <path id="Path_1812" data-name="Path 1812" d="M350.884,693.79q-1.789,6.177-3.772,12.454s-19.245,20.762-65.731,0c0,0-1.509-4.4-3.771-12.454C277.6,693.79,324.985,707.906,350.884,693.79Z" transform="translate(-144.051 -338.127)" fill="#e3e8f4"/>
      <path id="Path_1813" data-name="Path 1813" d="M317.55,300.178l-.059.045L297.61,326.8v.675a29.1,29.1,0,0,0,3.12,13.151l23.426-41.49Z" transform="translate(-153.275 -163.678)" fill="#fff" opacity="0.2"/>
      <path id="Path_1814" data-name="Path 1814" d="M328.071,342.356,311.789,367.6a28.285,28.285,0,0,1-5.129-5.764l19.4-21.56Z" transform="translate(-157.449 -181.863)" fill="#fff" opacity="0.2"/>
      <path id="Path_1815" data-name="Path 1815" d="M275.354,424.487a375.811,375.811,0,0,1-9.752-36.608c-11.244-50.685-24.73-147.263,4-246.464a377.764,377.764,0,0,1,31.707-77.049c-3.648-5.295-5.927-8-5.927-8a375.987,375.987,0,0,0-36.206,85.045c-28.733,99.2-15.248,195.778-4,246.464a375.851,375.851,0,0,0,9.752,36.608c18.367,8.2,32.478,9.915,42.833,9C298.915,432.789,288.172,430.206,275.354,424.487Z" transform="translate(-127.62 -56.364)" fill="#fff" opacity="0.2"/>
      <path id="Path_1816" data-name="Path 1816" d="M966.7,691.37s25.183-32.451,23.512-64.952a64.781,64.781,0,0,1,9.989-38.533,105.506,105.506,0,0,1,11.853-15.065" transform="translate(-461.871 -284.654)" fill="none" stroke="#535461" stroke-miterlimit="10" stroke-width="2"/>
      <path id="Path_1817" data-name="Path 1817" d="M1048.58,531.791c-1.8,4.525.894,21.024.894,21.024s13.13-9.753,14.93-14.278a8.974,8.974,0,0,0-4.655-11.567,8.456,8.456,0,0,0-11.169,4.821Z" transform="translate(-499.35 -264.091)" fill="#6c63ff"/>
      <path id="Path_1818" data-name="Path 1818" d="M1006.2,562.771c.867,4.81,11.788,17.141,11.788,17.141s5.927-15.573,5.038-20.388a8.582,8.582,0,0,0-9.981-7.089A8.847,8.847,0,0,0,1006.2,562.771Z" transform="translate(-480.024 -275.576)" fill="#6c63ff"/>
      <path id="Path_1819" data-name="Path 1819" d="M974.01,636.685c3.092,3.7,18.534,8.637,18.534,8.637s-2.5-16.533-5.593-20.237a8.351,8.351,0,0,0-12.068-.9,9.081,9.081,0,0,0-.864,12.5Z" transform="translate(-464.283 -306.404)" fill="#6c63ff"/>
      <path id="Path_1820" data-name="Path 1820" d="M964.783,701.276c2.441,4.19,16.853,11.756,16.853,11.756s.237-16.739-2.2-20.924a8.393,8.393,0,0,0-11.751-3A9.044,9.044,0,0,0,964.783,701.276Z" transform="translate(-460.417 -335.492)" fill="#6c63ff"/>
      <path id="Path_1821" data-name="Path 1821" d="M1041.03,602.526c-4.385,1.813-20.29-1.144-20.29-1.144s9.547-13.5,13.938-15.316a8.463,8.463,0,0,1,11.123,4.941A8.97,8.97,0,0,1,1041.03,602.526Z" transform="translate(-486.796 -290.229)" fill="#6c63ff"/>
      <path id="Path_1822" data-name="Path 1822" d="M1029.53,676.315c-4.709.374-19.03-7.376-19.03-7.376s13.006-9.926,17.721-10.3a8.659,8.659,0,0,1,9.191,8.16,8.774,8.774,0,0,1-7.881,9.518Z" transform="translate(-482.072 -322.577)" fill="#6c63ff"/>
      <path id="Path_1823" data-name="Path 1823" d="M1006.6,747.011c-4.585,1.194-19.962-3.939-19.962-3.939s11.2-12.057,15.786-13.246a8.539,8.539,0,0,1,10.385,6.43A8.887,8.887,0,0,1,1006.6,747.011Z" transform="translate(-471.068 -353.937)" fill="#6c63ff"/>
      <path id="Path_1824" data-name="Path 1824" d="M1048.58,531.791c-1.8,4.525.894,21.024.894,21.024s13.13-9.753,14.93-14.278a8.974,8.974,0,0,0-4.655-11.567,8.456,8.456,0,0,0-11.169,4.821Z" transform="translate(-499.35 -264.091)" opacity="0.25"/>
      <path id="Path_1825" data-name="Path 1825" d="M1006.2,562.771c.867,4.81,11.788,17.141,11.788,17.141s5.927-15.573,5.038-20.388a8.582,8.582,0,0,0-9.981-7.089A8.847,8.847,0,0,0,1006.2,562.771Z" transform="translate(-480.024 -275.576)" opacity="0.25"/>
      <path id="Path_1826" data-name="Path 1826" d="M974.01,636.685c3.092,3.7,18.534,8.637,18.534,8.637s-2.5-16.533-5.593-20.237a8.351,8.351,0,0,0-12.068-.9,9.081,9.081,0,0,0-.864,12.5Z" transform="translate(-464.283 -306.404)" opacity="0.25"/>
      <path id="Path_1827" data-name="Path 1827" d="M964.783,701.276c2.441,4.19,16.853,11.756,16.853,11.756s.237-16.739-2.2-20.924a8.393,8.393,0,0,0-11.751-3A9.044,9.044,0,0,0,964.783,701.276Z" transform="translate(-460.417 -335.492)" opacity="0.25"/>
      <path id="Path_1828" data-name="Path 1828" d="M1041.03,602.526c-4.385,1.813-20.29-1.144-20.29-1.144s9.547-13.5,13.938-15.316a8.463,8.463,0,0,1,11.123,4.941A8.97,8.97,0,0,1,1041.03,602.526Z" transform="translate(-486.796 -290.229)" opacity="0.25"/>
      <path id="Path_1829" data-name="Path 1829" d="M1029.53,676.315c-4.709.374-19.03-7.376-19.03-7.376s13.006-9.926,17.721-10.3a8.659,8.659,0,0,1,9.191,8.16,8.774,8.774,0,0,1-7.881,9.518Z" transform="translate(-482.072 -322.577)" opacity="0.25"/>
      <path id="Path_1830" data-name="Path 1830" d="M1006.6,747.011c-4.585,1.194-19.962-3.939-19.962-3.939s11.2-12.057,15.786-13.246a8.539,8.539,0,0,1,10.385,6.43A8.887,8.887,0,0,1,1006.6,747.011Z" transform="translate(-471.068 -353.937)" opacity="0.25"/>
      <path id="Path_1831" data-name="Path 1831" d="M967.12,712.077s35.722-19.1,46.912-49.514a62.671,62.671,0,0,1,24.213-31.039,101.028,101.028,0,0,1,16.7-8.794" transform="translate(-462.065 -306.716)" fill="none" stroke="#535461" stroke-miterlimit="10" stroke-width="2"/>
      <path id="Path_1832" data-name="Path 1832" d="M1137.078,586.5c-3.416,3.387-7.408,19.6-7.408,19.6s15.818-3.409,19.234-6.79a9.094,9.094,0,0,0,.282-12.54,8.358,8.358,0,0,0-12.109-.293Z" transform="translate(-537.036 -289.606)" fill="#6c63ff"/>
      <path id="Path_1833" data-name="Path 1833" d="M1090.033,597.671c-1.077,4.765,4.068,20.645,4.068,20.645s11.471-11.756,12.581-16.549a8.878,8.878,0,0,0-6.347-10.668,8.548,8.548,0,0,0-10.3,6.573Z" transform="translate(-518.686 -292.627)" fill="#6c63ff"/>
      <path id="Path_1834" data-name="Path 1834" d="M1030.62,652.22c1.38,4.681,13.567,15.673,13.567,15.673s4.186-16.181,2.807-20.84a8.511,8.511,0,0,0-10.681-5.895A8.921,8.921,0,0,0,1030.62,652.22Z" transform="translate(-491.179 -314.691)" fill="#6c63ff"/>
      <path id="Path_1835" data-name="Path 1835" d="M996,707.525c.593,4.86,10.808,17.821,10.808,17.821s6.767-15.193,6.169-20.053a8.621,8.621,0,0,0-9.566-7.675A8.8,8.8,0,0,0,996,707.525Z" transform="translate(-475.353 -339.788)" fill="#6c63ff"/>
      <path id="Path_1836" data-name="Path 1836" d="M1104.033,651.267c-4.725-.178-18.1-9.558-18.1-9.558s14.008-8.331,18.734-8.152a8.866,8.866,0,0,1-.631,17.71Z" transform="translate(-516.862 -311.501)" fill="#2962ff"/>
      <path id="Path_1837" data-name="Path 1837" d="M1065.505,714.529c-4.456-1.635-14.515-14.73-14.515-14.73s15.781-3.61,20.232-1.975a8.947,8.947,0,0,1,5.207,11.313A8.484,8.484,0,0,1,1065.505,714.529Z" transform="translate(-500.747 -339.722)" fill="#6c63ff"/>
      <path id="Path_1838" data-name="Path 1838" d="M1014.822,769.694c-4.655-.831-16.7-11.979-16.7-11.979s14.962-6.316,19.617-5.485a8.837,8.837,0,0,1,6.977,10.239,8.59,8.59,0,0,1-9.887,7.226Z" transform="translate(-476.362 -363.927)" fill="#6c63ff"/>
      <path id="Path_1839" data-name="Path 1839" d="M868.6,568.434l-27.688-41.585s-.539-10.294-2.328-12.7-.388-7.756-.388-7.756,1.939-2.94.258-3.208-.258-6.824-.258-6.824l-.13-10.428s1.552-10.043.259-12.432a4.062,4.062,0,0,1,.129-4.28s1.552-5.752,0-7.22-1.164-10.434-.776-17.52-2.721-11.1-2.721-12.169-10.237-11.5-10.237-12.432-6.465-4.815-10.35-5.886-5.824-1.869-5.7-2.4-6.083-2.673-6.083-2.673-5.436-.4-7.511-3.214-8.4-3.616-8.583-3.644c-.037-.184-.081-.374-.118-.558s-.081-.4-.119-.6c.49-.854.943-1.724,1.352-2.622.124-.273.243-.558.356-.815a10.792,10.792,0,0,0,6.374-2.048,9.107,9.107,0,0,0,3.1-6.411,14.475,14.475,0,0,0-1.514-7.125c-1.131-2.411-2.8-4.9-2.225-7.516.253-1.116.905-2.12,1.239-3.225a8.758,8.758,0,0,0-.932-6.333c-.98-1.942-2.344-3.649-3.432-5.529a22.092,22.092,0,0,1-2.732-7.811,12.572,12.572,0,0,0-1.013-4.257,7.806,7.806,0,0,0-2.268-2.371,22.122,22.122,0,0,0-13.911-4.369c-3.524.128-7.036,1.116-10.533.664a36.87,36.87,0,0,1-6.153-1.674c-4.342-1.328-9.348-1.875-13.13.7s-5.285,7.633-7.845,11.589c-2.263,3.5-5.582,6.439-7.306,10.144a.824.824,0,0,1,.054-.212,12.427,12.427,0,0,0-.964,2.7c-.657,2.913-.108,5.959.577,8.866.35,1.5.835,3.13,2.09,3.962s3.033.647,4.521.921c-.054.251-.119.508-.172.764-3.193,15.623,5.739,31.166,20.522,35.71v.815a21.035,21.035,0,0,1-.135,2.3h0s-13.012-2.79-16.509-.893-10.355,3.348-11.39,4.408-3.621.268-5.927,6.556-2.586,12.7-5.566,15.623-4.526,4.949-4.655,7.092.388,2.673-.781,3.348-2.845,3.476-2.328,4.547c0,0,.647,2.673-1.422,4.006a4.558,4.558,0,0,0-1.815,4.012s-.776,2.946-2.586,3.61-2.98,5.083-2.98,5.083l-5.889,7L678.7,468.771a4.786,4.786,0,0,0-6.923-.368l-5.711,5.334a11.214,11.214,0,0,0-5.717,3.526,15.3,15.3,0,0,0-2.958,4.564l-3.13,2.913a8.467,8.467,0,0,0-.8,9.084l7.451,8.531.048.072a12.922,12.922,0,0,0-7.209,3.041c-11.126,10.16-11.261,19.529-9.574,23.8s15.786,20.728,15.786,20.728,8.195,11.031,20.026,16.9h0l-.092.095c-.232.257-.463.558-.69.837l-.194.257-.178.257-.21.324c-.059.084-.113.173-.167.262s-.151.251-.221.385l-.145.257c-.086.167-.178.34-.264.519l-.086.173c-.108.234-.215.474-.318.725-.038.089-.07.184-.108.273-.065.173-.135.351-.2.558s-.081.229-.119.346-.113.346-.167.524-.075.251-.108.374-.108.391-.156.591-.059.234-.091.363c-.07.307-.14.625-.2.96a2.426,2.426,0,0,1-.065.379q-.065.335-.113.686c-.027.162-.043.324-.065.485s-.054.441-.081.664l-.048.513c0,.245-.043.5-.059.759a2.723,2.723,0,0,1-.027.469c0,.424-.043.848-.048,1.294-.259,15.623.625,17.916.625,17.916s1.826,4.983,6.869,5.34a8.483,8.483,0,0,0,2.214-.123c6.729-1.205,22.516-4.012,28.081-2.94,3.346.642,9.542-.307,13.954-1.172l1.158-.229.808,2.656,2.56-.725,2.155,1.3,1.374.815c2.554,8.972,12.931,5.914,12.931,5.914l2.435,1.462,24.978.67s5.388,3.348,8.841,4.4a7.979,7.979,0,0,0,1.255.284,54.724,54.724,0,0,0,6.961.134c1.913-.05,3.394-.134,3.394-.134s-.253-7.025-.62-14.886c9.547-.413,18.012-1.032,23.135-1.964,13.34-2.427,18.906-14.987,20.953-21.7a65.192,65.192,0,0,1,1.309,8.331,61.253,61.253,0,0,0,2.074,7.22,24.677,24.677,0,0,0,2.845,5.345c9.838-3.476,3.885-8.688,1.81-10.964s1.428-4.146,1.428-4.146,2.694-1.869,2.457-3.61-.388-3.61,8.41-3.476S868.6,568.434,868.6,568.434ZM731.933,483.066c.113.764,1.341,9.006,2.451,11.159a15.237,15.237,0,0,1,.291,4.4c-5.215-.43-10.646-.658-10.646-.658a1.319,1.319,0,0,1,.28.686l-.819-.19-1.19-.3,9.607-15.132ZM712.9,514.423l9.025,1.484.759.123a31.842,31.842,0,0,0-.469,4.413c0,.139.2.307.5.5a12.47,12.47,0,0,0-.178,2.232c.145.742,4.364,2.338,9.2,3.666-.065.268-.129.525-.194.764h0c-4.273-2.327-11.007-3.415-11.783-5.144s-23.706-10.043-23.706-10.043-.835-.457-2.279-1.183l6.035,1.183,1.659-.173a87.682,87.682,0,0,0,11.433,2.165Z" transform="translate(-312.754 -181.007)" fill="url(#linear-gradient)"/>
      <path id="Path_1840" data-name="Path 1840" d="M867.13,721.359s-3.589,22.447-21.8,25.767-79.018,2.656-79.018,2.656-34.762-5.178-47.332-35.6-20.652-42.511-9.876-43.041,68.883,20.327,72.2,20.589S870.335,645.5,867.13,721.359Z" transform="translate(-340.744 -328.111)" fill="#434175"/>
      <path id="Path_1841" data-name="Path 1841" d="M867.13,721.359s-3.589,22.447-21.8,25.767-79.018,2.656-79.018,2.656-34.762-5.178-47.332-35.6-20.652-42.511-9.876-43.041,68.883,20.327,72.2,20.589S870.335,645.5,867.13,721.359Z" transform="translate(-340.744 -328.111)" opacity="0.05"/>
      <path id="Path_1842" data-name="Path 1842" d="M703.5,778.953s1.816,4.955,6.81,5.307a8.548,8.548,0,0,0,2.193-.123c6.67-1.194,22.322-3.984,27.833-2.924,3.319.642,9.456-.307,13.825-1.16,2.909-.558,5.032-1.116,5.032-1.116s-5.129-17.665-5.776-18.2-23.087-14.479-23.087-14.479l-17.78-1.322h-.054a9.247,9.247,0,0,0-6.024,3.666c-1.88,2.349-3.491,6.21-3.6,12.537C702.624,776.694,703.5,778.953,703.5,778.953Z" transform="translate(-340.169 -360.737)" fill="#565387"/>
      <path id="Path_1843" data-name="Path 1843" d="M703.5,778.967s1.816,4.955,6.81,5.307a75.782,75.782,0,0,1-4.849-7.3l.091-12.883a23.056,23.056,0,0,1,7-19.122H712.5s-9.364.659-9.622,16.181S703.5,778.967,703.5,778.967Z" transform="translate(-340.17 -360.751)" opacity="0.05"/>
      <path id="Path_1844" data-name="Path 1844" d="M838.336,723.51l16.546-13.391,26.039-26.57s-2.812-.14-7.052-.329c-1.078.7-4.014,2.891-4.122,5.58-.13,3.247-7.042.223-10.63,2.081s-21.163,25.153-24.245,25-5.512-1.618-6.8.642c0,.05-.059.095-.092.145Z" transform="translate(-397.891 -333.455)" opacity="0.1"/>
      <path id="Path_1845" data-name="Path 1845" d="M709.6,748.617c.587.3,1.18.558,1.789.848,12.575,5.58,28.092,17.3,29.251,19.395.7,1.294,9.7,6.952,16.643,11.193,2.91-.558,5.032-1.116,5.032-1.116s-5.129-17.665-5.776-18.2-23.087-14.479-23.087-14.479l-17.78-1.322h-.054A9.288,9.288,0,0,0,709.6,748.617Z" transform="translate(-343.292 -360.737)" opacity="0.1"/>
      <path id="Path_1846" data-name="Path 1846" d="M644.164,662.058c1.665,4.252,15.625,20.594,15.625,20.594s8.847,11.952,21.422,17.531,28.092,17.3,29.245,19.395c.744,1.367,10.776,7.616,17.823,11.913l1.579.954,3.5,2.1,1.854,1.116s4.31-3.571,8.572-7.164,8.421-7.114,8.491-7.315c.124-.4,1.789-4.915,1.406-5.178-.2-.14-1.078-1.981-2.694-4.112a18.374,18.374,0,0,0-6.535-5.579c-5.927-2.79-8.464-9.14-8.464-9.14s-.539-.424-1.417-.982c-1.519-.993-3.96-2.421-5.765-2.661-2.828-.368-8.082-6.344-8.082-6.344s-3.594-2.394-5.005-5.446c-1.347-2.912-21.239-17.063-23.081-18.368l48.226,32.072,11.541,7.683,16.546-13.391L795,663.168s-3.5-.179-8.62-.4c-12.656-.558-35.134-1.456-37.974-.792a20.931,20.931,0,0,1-7.058.474s-6.4.3-10.635-2.014-10.91-3.4-11.681-5.111-23.475-9.96-23.475-9.96-30.91-17-41.944-6.9S642.494,657.812,644.164,662.058Z" transform="translate(-312.748 -312.254)" fill="#434175"/>
      <path id="Path_1847" data-name="Path 1847" d="M829.82,477.327l3.976,13.681,5.129,30.816,18.858,1.328,5.458-9.374,5.469-9.357s3.394-12.454,5.835-24.5c2.155-10.657,3.567-21,1.217-22.123-2.079-1-3.448-4.587-4.31-8.448-.113-.474-.216-.96-.313-1.445a77.6,77.6,0,0,1-1.25-9.9s-39.509-2.12-33.992,14.747a27.745,27.745,0,0,1,1.487,8.972A22.029,22.029,0,0,1,837.25,464,19.289,19.289,0,0,1,829.82,477.327Z" transform="translate(-398.74 -225.022)" fill="#ee8e9e"/>
      <path id="Path_1848" data-name="Path 1848" d="M814.58,495.7l1.411,23.245,3.206,19.791,3.594,9.167L826,598.056s30.932,3.7,38.453-.067a3.331,3.331,0,0,0,1.363-1.116c9.084-14.189,6.1-55.344,6.1-55.344l3.465-26.576L873.07,501.16l-5.576-.614-4.311-.474s-.97,1.239-2.37,3.152c-3.8,5.2-10.776,15.428-10.329,19.7.636,5.847-.77,11.823-2.952,12.755s-3.976,2.522-4.359.932-.77-1.992-.388-4.252-1.67-9.167-1.67-9.167-3.459-8.1-3.233-11.556-.383-7.443-1.412-8.369-2.435-1.864-1.282-6.138-5.059-12.526-5.059-12.526Z" transform="translate(-391.711 -245.658)" fill="#e3e8f4"/>
      <path id="Path_1849" data-name="Path 1849" d="M890.363,541.966l1.282,39.721,7.408,4.252a3.333,3.333,0,0,0,1.363-1.116c9.089-14.211,6.11-55.361,6.11-55.361l3.464-26.57L907.68,489.1l-5.582-.614c2.155-10.657,3.567-21,1.223-22.123-2.085-1-3.454-4.587-4.343-8.448h0l-3.987,28.121s.334,2.533.453,5.144a15.266,15.266,0,0,1-.323,4.949c-.9,2.394-.258,6.645-.258,6.645-2.312,4.218-3.464,12.035-4.03,19.585C890.072,532.4,890.363,541.966,890.363,541.966Z" transform="translate(-426.638 -233.864)" opacity="0.1"/>
      <path id="Path_1850" data-name="Path 1850" d="M899.705,456.82s6.465.831,8.513,3.621,7.441,3.175,7.441,3.175,6.158,2.126,6.029,2.656,1.794,1.333,5.646,2.394,10.237,4.916,10.237,5.847,10.134,11.288,10.134,12.353,3.082,5.022,2.694,12.086-.771,15.941.77,17.4,0,7.176,0,7.176a4.023,4.023,0,0,0-.081,4.252c1.282,2.394-.253,12.359-.253,12.359l.124,10.361s-1.412,6.506.258,6.774-.258,3.186-.258,3.186-1.412,5.317.387,7.705,2.306,12.621,2.306,12.621l27.478,41.289s.388,7.572-8.335,7.438-8.62,1.73-8.34,3.454-2.435,3.588-2.435,3.588-3.465,1.858-1.412,4.118,7.953,7.438-1.794,10.891a24.347,24.347,0,0,1-2.823-5.312,61.805,61.805,0,0,1-2.053-7.17s-.9-10.1-2.694-11.427-1.541-7.705-1.541-7.705,2.565-5.178-1.024-7.3-55.726-31.988-55.726-31.988l-1.283-39.721s-.9-29.355,4.488-39.186c0,0-.641-4.252.258-6.64s-.129-10.1-.129-10.1Z" transform="translate(-427.24 -233.378)" fill="#565387"/>
      <path id="Path_1851" data-name="Path 1851" d="M804.1,484.162s-12.893-2.751-16.357-.893-10.237,3.348-11.314,4.385-3.594.268-5.9,6.512-2.57,12.616-5.517,15.539-4.488,4.916-4.617,7.041.383,2.656-.771,3.348-2.823,3.454-2.311,4.52,26.729,24.411,26.729,24.411,1.288,8.927,2.441,11.159-1.282,33.344-3.847,35.47,17.316,1.931,17.316,1.931.894-20.393,1.665-21.459-.539-22.877-.539-22.877-.129-18.6,1.541-23.513S804.1,508.5,804.1,508.5s1.476-9.8,3.27-12.091S804.1,484.162,804.1,484.162Z" transform="translate(-365.252 -244.785)" opacity="0.1"/>
      <path id="Path_1852" data-name="Path 1852" d="M803.387,483.452s-12.9-2.751-16.363-.893-10.237,3.32-11.287,4.386-3.588.262-5.927,6.506-2.565,12.621-5.517,15.545-4.488,4.916-4.617,7.042.388,2.656-.765,3.32-2.823,3.454-2.311,4.514,26.681,24.444,26.681,24.444,1.282,8.927,2.435,11.159-1.282,33.338-3.847,35.464,17.316,1.93,17.316,1.93.9-20.394,1.67-21.454-.539-22.876-.539-22.876-.124-18.6,1.541-23.513,1.481-21.258,1.481-21.258,1.476-9.8,3.265-12.086S803.387,483.452,803.387,483.452Z" transform="translate(-364.925 -244.471)" fill="#565387"/>
      <path id="Path_1853" data-name="Path 1853" d="M840.549,452.749a27.75,27.75,0,0,1,1.487,8.972,29,29,0,0,0,33.755-13.815,77.616,77.616,0,0,1-1.25-9.9S835.037,435.882,840.549,452.749Z" transform="translate(-403.445 -225.022)" opacity="0.1"/>
      <path id="Path_1854" data-name="Path 1854" d="M804.82,402.756c.014,16.182,12.259,29.521,27.864,30.353s29.108-11.134,30.727-27.229-9.214-30.685-24.65-33.2-30.072,7.923-33.306,23.755A31.466,31.466,0,0,0,804.82,402.756Z" transform="translate(-387.209 -196.019)" fill="#ee8e9e"/>
      <path id="Path_1855" data-name="Path 1855" d="M747.751,553.06l-7.053,2.26s.641,2.656-1.412,3.984a4.524,4.524,0,0,0-1.794,3.99s-.771,2.918-2.565,3.582-2.953,5.022-2.953,5.022l-5.9,7.042s-2.182,1.858-1.794,2.79-2.311,1.194-2.311,1.194l1.411,23.669,12.187,2.394,7.543-.8,6.158-2.394,5.388-3.348,2.457-6.456,10.776-17Z" transform="translate(-348.997 -275.919)" fill="#565387"/>
      <path id="Path_1856" data-name="Path 1856" d="M698.373,598.511s-15.625-23.384-27.322-10.763,4.747,33.076,8.594,32.412,22.192-1.724,22.192-1.724Z" transform="translate(-323.606 -289.601)" fill="#ee8e9e"/>
      <path id="Path_2572" data-name="Path 2572" d="M14.411.225,20.393.117A13.27,13.27,0,0,1,33.975,13.75l-.19,10.6a14.472,14.472,0,0,1-14.079,14.13l-5.982.108A13.27,13.27,0,0,1,.143,24.956l.19-10.6A14.472,14.472,0,0,1,14.411.225Z" transform="translate(336.613 310.892) rotate(-42.05)" fill="#30374e"/>
      <path id="Path_2573" data-name="Path 2573" d="M14.411.225,20.393.117A13.27,13.27,0,0,1,33.975,13.75l-.19,10.6a14.472,14.472,0,0,1-14.079,14.13l-5.982.108A13.27,13.27,0,0,1,.143,24.956l.19-10.6A14.472,14.472,0,0,1,14.411.225Z" transform="translate(336.613 310.892) rotate(-42.05)" opacity="0.1"/>
      <path id="Path_2574" data-name="Path 2574" d="M14.411.225,20.393.117A13.27,13.27,0,0,1,33.975,13.75l-.19,10.6a14.472,14.472,0,0,1-14.079,14.13l-5.982.108A13.27,13.27,0,0,1,.143,24.956l.19-10.6A14.472,14.472,0,0,1,14.411.225Z" transform="translate(337.054 308.967) rotate(-42.05)" fill="#30374e"/>
      <ellipse id="Ellipse_244" data-name="Ellipse 244" cx="7.311" cy="7.572" rx="7.311" ry="7.572" transform="translate(354.961 305.301)" fill="#6c63ff"/>
      <ellipse id="Ellipse_245" data-name="Ellipse 245" cx="7.311" cy="7.572" rx="7.311" ry="7.572" transform="translate(354.961 305.301)" opacity="0.1"/>
      <ellipse id="Ellipse_246" data-name="Ellipse 246" cx="7.311" cy="7.572" rx="7.311" ry="7.572" transform="translate(355.371 304.341)" fill="#6c63ff"/>
      <path id="Path_1857" data-name="Path 1857" d="M706.5,612.252c-.129,17.537,34.891,21.253,34.891,21.253l8.944,1.473,4.009.658,1.67-17.118s-1.837-.285-4.133-.837c-3.389-.82-7.78-2.231-8.7-4.213C741.644,610.148,706.624,594.721,706.5,612.252Z" transform="translate(-341.862 -298.447)" fill="#ee8e9e"/>
      <path id="Path_1858" data-name="Path 1858" d="M806,396.534a3.432,3.432,0,0,1,2.155.993c.991,1.088,1.045,3.019,2.333,3.688a2.568,2.568,0,0,0,1.53.184c3.41-.5,5.388-4.464,8.658-5.579a8.452,8.452,0,0,1,5.738.508,4.26,4.26,0,0,1,1.9,1.266c1.078,1.468.329,3.627.835,5.407.706,2.466,3.551,3.448,6.013,3.772s5.237.5,6.88,2.427a6.639,6.639,0,0,1,1.223,5.139,4.215,4.215,0,0,0,0,1.9c.679,1.992,4.009,1.674,4.876.123.636-1.144.442-2.092,1.94-2.41a6.194,6.194,0,0,1,3.141.558,22.287,22.287,0,0,0,8.125,1.295,31.3,31.3,0,0,0-3.891-32.113,28.808,28.808,0,0,0-29.623-10.314A29.954,29.954,0,0,0,806,396.534Z" transform="translate(-387.753 -196.119)" opacity="0.1"/>
      <path id="Path_1859" data-name="Path 1859" d="M837.074,402.526a4.21,4.21,0,0,1,0-1.9,6.645,6.645,0,0,0-1.223-5.139c-1.616-1.925-4.418-2.109-6.88-2.427s-5.307-1.3-6.013-3.766c-.506-1.78.259-3.945-.835-5.412a4.188,4.188,0,0,0-1.9-1.261,8.574,8.574,0,0,0-5.744-.513c-3.27,1.116-5.248,5.089-8.658,5.58a2.565,2.565,0,0,1-1.53-.184c-1.288-.67-1.342-2.6-2.333-3.683-1.557-1.707-4.515-.608-6.422-1.875-1.245-.831-1.724-2.444-2.069-3.934-.679-2.89-1.223-5.92-.571-8.81,1.115-4.944,5.388-8.33,8.082-12.549,2.538-3.934,3.96-8.927,7.775-11.516s8.712-2.014,13.012-.692a39.048,39.048,0,0,0,6.093,1.674c3.47.441,6.95-.558,10.442-.658a21.887,21.887,0,0,1,13.787,4.335,7.779,7.779,0,0,1,2.252,2.36,12.429,12.429,0,0,1,1,4.229,22.123,22.123,0,0,0,2.694,7.772c1.078,1.869,2.43,3.565,3.405,5.5a8.692,8.692,0,0,1,.922,6.288c-.329,1.116-.981,2.081-1.223,3.2-.571,2.595,1.077,5.072,2.2,7.466a14.424,14.424,0,0,1,1.5,7.081,9.042,9.042,0,0,1-3.071,6.366,10.767,10.767,0,0,1-6.5,2.042,22.323,22.323,0,0,1-8.287-1.289,6.254,6.254,0,0,0-3.141-.558c-1.5.318-1.3,1.267-1.94,2.41C841.077,404.222,837.753,404.518,837.074,402.526Z" transform="translate(-381.576 -183.207)" fill="#434175"/>
      <path id="Path_1860" data-name="Path 1860" d="M835.868,724.883l16.546-13.391,26.045-26.57s-3.5-.179-8.62-.4a5.836,5.836,0,0,0-1.816,3.627c-.129,3.248-7.042.229-10.63,2.087s-21.163,25.148-24.245,25-5.512-1.618-6.8.642a1.449,1.449,0,0,1-.092.151,3.626,3.626,0,0,1-1.956,1.2Z" transform="translate(-396.194 -334.03)" opacity="0.1"/>
      <path id="Path_1861" data-name="Path 1861" d="M783.87,716.633l8.314,27.485,1.3,4.319,3.96-1.116,8.728-2.483,38.879-11.059a32.919,32.919,0,0,0,14.008-3.867,41.183,41.183,0,0,1,24.159-5.457c5.14.5,10.856-1.8,15.625-10.869,0,0,10.776-32.92-16.422-42.405s-28.491,5.021-28.491,5.021-.14.078-.366.235c-1.078.7-4.014,2.89-4.122,5.58-.129,3.247-7.042.223-10.63,2.081s-21.163,25.153-24.245,25-5.512-1.618-6.8.642c0,.05-.059.095-.091.145-.948,1.356-3.8,1.674-5.7,1.724-1.029.034-1.778,0-1.778,0l-.242.078-2.015.58Z" transform="translate(-377.547 -326.711)" fill="#434175"/>
      <path id="Path_1862" data-name="Path 1862" d="M787.86,645.8l4.009.658,1.67-17.118s-1.837-.285-4.132-.837C790.015,630.871,788.636,640.117,787.86,645.8Z" transform="translate(-379.387 -309.266)" opacity="0.1"/>
      <path id="Path_1863" data-name="Path 1863" d="M893.255,515.675s11.929-3.588,8.976,31.486-25.01,57.23-25.01,57.23-25.4,11.555-36.815,9.7a189.223,189.223,0,0,0-19.752-2.232,28.206,28.206,0,0,0-11.546-3.186c-6.417-.268-19.881-4.386-20.139-5.714s3.335-20.857,1.794-22.318c0,0,17.958.764,19.757,2.109s4.359.379,6.282,0,7.828-5.7,19.5-1.043c0,0,3.976.4,5.517-.664s4.009-.268,4.009-.268,2.419-.932,2.791-1.49,3.459,0,3.459,0a1.326,1.326,0,0,0,1.179.011,1.407,1.407,0,0,0,.75-.943,8.727,8.727,0,0,1,1.794-2.918s3.464-20.193,10-27.764c0,0,1.924-1.73,1.412-3.856S877.879,511.418,893.255,515.675Z" transform="translate(-379.892 -259.213)" opacity="0.1"/>
      <path id="Path_1864" data-name="Path 1864" d="M892.692,510.836s11.929-3.588,8.982,31.486-25.043,57.253-25.043,57.253-25.4,11.555-36.815,9.7a194.788,194.788,0,0,0-19.752-2.26,28.165,28.165,0,0,0-11.546-3.186c-6.411-.268-19.881-4.386-20.14-5.714s3.335-20.857,1.8-22.318c0,0,17.958.764,19.752,2.109s4.364.379,6.287,0,7.823-5.691,19.5-1.043c0,0,3.976.4,5.512-.664s4.014-.268,4.014-.268a11.133,11.133,0,0,0,2.785-1.462c.383-.53,3.464,0,3.464,0a1.319,1.319,0,0,0,1.176.013,1.4,1.4,0,0,0,.748-.939,8.713,8.713,0,0,1,1.794-2.924s3.464-20.193,10.005-27.764c0,0,1.924-1.729,1.412-3.85S877.272,506.585,892.692,510.836Z" transform="translate(-379.62 -257.075)" fill="#565387"/>
      <path id="Path_1865" data-name="Path 1865" d="M810,746.866l16.939,21.2c.065-.061.108-.106.108-.123.129-.4,1.794-4.915,1.411-5.183s-3.335-6.908-9.235-9.7a17.617,17.617,0,0,1-7.252-6.835Z" transform="translate(-389.598 -361.307)" opacity="0.1"/>
      <path id="Path_1866" data-name="Path 1866" d="M810.122,794.633l1.854,1.116s4.31-3.571,8.572-7.164,8.421-7.114,8.491-7.315c.124-.4,1.789-4.915,1.406-5.178-.2-.139-1.078-1.981-2.694-4.112-11.487-3.348-4.175,4.927-3.2,5.306,0,0-14.008-3.348-14.752,12.448A19.261,19.261,0,0,0,810.122,794.633Z" transform="translate(-389.488 -372.338)" opacity="0.1"/>
      <path id="Path_1867" data-name="Path 1867" d="M825.3,801.33l2.441,1.462,24.784.664s5.313,3.348,8.761,4.363a7.27,7.27,0,0,0,1.244.285,53.714,53.714,0,0,0,6.9.134c1.9-.05,3.367-.134,3.367-.134s-1.174-32.362-2.058-35.71c-.42-1.629-2.495-1.272-4.542-.458a29.348,29.348,0,0,0-4.434,2.327s-10.517,1.055-12.187,1.992-6.412-.558-9.364,0-8.206-3.6-8.206-3.6c-14.369-4.91-6.288,4.252-5.264,4.653,0,0-13.976-3.348-14.746,12.448S825.3,801.33,825.3,801.33Z" transform="translate(-390.504 -372.351)" fill="#565387"/>
      <path id="Path_1868" data-name="Path 1868" d="M903.14,788.871c.269,6.7,5.307,15,8.308,19.395,1.9-.05,3.367-.134,3.367-.134s-1.174-32.362-2.058-35.71c-.42-1.629-2.495-1.272-4.542-.458C905.753,776.763,902.925,783.476,903.14,788.871Z" transform="translate(-432.551 -372.379)" fill="#565387"/>
      <path id="Path_1869" data-name="Path 1869" d="M903.14,788.871c.269,6.7,5.307,15,8.308,19.395,1.9-.05,3.367-.134,3.367-.134s-1.174-32.362-2.058-35.71c-.42-1.629-2.495-1.272-4.542-.458C905.753,776.763,902.925,783.476,903.14,788.871Z" transform="translate(-432.551 -372.379)" opacity="0.1"/>
      <path id="Path_1870" data-name="Path 1870" d="M894.933,789.758c1.7,6.461,1.686,13.709,4.4,18.089a7.25,7.25,0,0,0,1.244.285,53.763,53.763,0,0,0,6.9.134c1.9-.05,3.367-.134,3.367-.134s-1.174-32.362-2.058-35.71c-.421-1.629-2.495-1.272-4.542-.458a29.369,29.369,0,0,0-4.434,2.327S892.756,781.49,894.933,789.758Z" transform="translate(-428.579 -372.379)" opacity="0.05"/>
      <path id="Path_1871" data-name="Path 1871" d="M736.77,686.94s12.295,4.134,22.715,18.82Z" transform="translate(-355.823 -335.099)" opacity="0.1"/>
      <g id="Group_85" data-name="Group 85" transform="translate(411.005 183.313)" opacity="0.1">
        <path id="Path_1872" data-name="Path 1872" d="M921.8,401.26a2.547,2.547,0,0,1-.075.279,9.168,9.168,0,0,1-.426,1.116A8.571,8.571,0,0,1,921.8,401.26Z" transform="translate(-851.936 -392.132)"/>
        <path id="Path_1873" data-name="Path 1873" d="M792.856,387.584a12.259,12.259,0,0,1,.953-2.684c-.064.229-.134.458-.188.692-.652,2.89-.108,5.92.571,8.81.35,1.49.824,3.1,2.069,3.934,1.913,1.267,4.849.162,6.422,1.869.991,1.088,1.045,3.019,2.338,3.688a2.56,2.56,0,0,0,1.53.184c3.405-.5,5.388-4.464,8.658-5.58a8.423,8.423,0,0,1,5.738.513,4.189,4.189,0,0,1,1.9,1.261c1.078,1.467.329,3.632.835,5.406.706,2.466,3.55,3.448,6.013,3.766s5.237.5,6.88,2.433a6.635,6.635,0,0,1,1.223,5.139,4.28,4.28,0,0,0,0,1.9c.679,1.992,4.009,1.674,4.849.123.636-1.144.447-2.092,1.945-2.41a6.186,6.186,0,0,1,3.136.558,22.322,22.322,0,0,0,8.287,1.289,10.719,10.719,0,0,0,6.5-2.042,7.755,7.755,0,0,0,1.993-2.511,8.486,8.486,0,0,1-2.748,4.508,10.743,10.743,0,0,1-6.5,2.042,22.273,22.273,0,0,1-8.281-1.289,6.255,6.255,0,0,0-3.141-.558c-1.5.318-1.309,1.267-1.94,2.41-.873,1.574-4.2,1.869-4.881-.123a4.282,4.282,0,0,1,0-1.9,6.622,6.622,0,0,0-1.218-5.139c-1.649-1.925-4.423-2.109-6.886-2.427s-5.307-1.3-6.007-3.766c-.512-1.78.259-3.945-.835-5.412a4.231,4.231,0,0,0-1.9-1.261,8.557,8.557,0,0,0-5.738-.513c-3.276,1.116-5.253,5.089-8.658,5.58a2.562,2.562,0,0,1-1.53-.184c-1.293-.669-1.347-2.6-2.339-3.682-1.557-1.707-4.509-.608-6.417-1.875-1.25-.831-1.724-2.444-2.074-3.934C792.742,393.5,792.2,390.474,792.856,387.584Z" transform="translate(-792.558 -384.9)"/>
      </g>
      <path id="Path_1874" data-name="Path 1874" d="M917.1,575.217c-2.349,3.286-5.032,6.327-7.112,9.8s-3.551,7.533-3.114,11.594c2.155-2.288,3.136-5.446,4.493-8.314,2.3-4.854,5.733-8.972,8.621-13.436.539-.854,4.1-5.775,2.306-6.009C920.818,568.661,917.9,574.1,917.1,575.217Z" transform="translate(-434.243 -282.899)" opacity="0.1"/>
    </g>
  </g>
</svg>
