<svg xmlns="http://www.w3.org/2000/svg" xmlns:xlink="http://www.w3.org/1999/xlink" width="685" height="540" viewBox="0 0 685 540">
  <defs>
    <linearGradient id="linear-gradient" x1="0.5" y1="1" x2="0.5" gradientUnits="objectBoundingBox">
      <stop offset="0" stop-color="gray" stop-opacity="0.251"/>
      <stop offset="0.54" stop-color="gray" stop-opacity="0.122"/>
      <stop offset="1" stop-color="gray" stop-opacity="0.102"/>
    </linearGradient>
    <clipPath id="clip-Sport_Illustration">
      <rect width="685" height="540"/>
    </clipPath>
  </defs>
  <g id="Sport_Illustration" data-name="Sport Illustration" clip-path="url(#clip-Sport_Illustration)">
    <rect width="685" height="540" fill="#fff"/>
    <g id="Group_20" data-name="Group 20" transform="translate(26 18.019)">
      <path id="Path_441" data-name="Path 441" d="M712.194,198.533a174.181,174.181,0,0,0-24.172-43.89L352.669,150.88l276.109-44.19a140.127,140.127,0,0,0-56.021-12.665C518.516,44.6,442.225,41.652,385.172,86.779a141.087,141.087,0,0,0-71.783-19.7c-74.51,0-136.6,58.809-150.529,136.8Z" transform="translate(-90.267 -54.86)" fill="#6c63ff" opacity="0.1"/>
      <path id="Path_442" data-name="Path 442" d="M685.838,348.015a185.539,185.539,0,0,0-10.449-61.725L94.178,355.809a180.506,180.506,0,0,0-13.611,39.178l179.98,30.563L76.46,447.837c5.537,88.284,71.956,158,153.1,158,40.839,0,77.946-17.669,105.448-46.482,27.58,29.354,65.045,47.405,106.325,47.405,61.251,0,114.109-39.739,138.728-97.2,49.388-17.829,87.724-62.712,100.883-118.822l-227.62-40.2H685.8C685.8,349.7,685.838,348.862,685.838,348.015Z" transform="translate(-52.143 -138.937)" fill="#6c63ff" opacity="0.1"/>
      <ellipse id="Ellipse_88" data-name="Ellipse 88" cx="232.481" cy="25.151" rx="232.481" ry="25.151" transform="translate(39.398 443.341)" fill="#3f3d56"/>
      <path id="Path_443" data-name="Path 443" d="M558.805,604.953c-.7.726-3.285,2.133-6.772,3.82l-.637.306a2.43,2.43,0,0,0,.766-1.509c0-6.113-40.839,6.106-48.751,6.106a30.726,30.726,0,0,1-10.9-2.547,81.437,81.437,0,0,0-17.673-5h0a59.827,59.827,0,0,0-8.124-4.833v-.045c.162-.363.313-.732.441-1.1a.659.659,0,0,1,.061-.185l.2-.586c.061-.191.123-.382.173-.573,2.4-8.055,1.006-17.077-1.531-25.145-1.257-3.98-2.794-8.195-1.928-12.3a12.626,12.626,0,0,1,.693-2.209h0c.128-.306.268-.637.413-.9.067-.146.145-.3.223-.446.2-.388.408-.777.626-1.159.145-.248.291-.5.441-.751.408-.681.827-1.369,1.224-2.063l.05-.083c.134-.229.263-.465.386-.7s.2-.369.3-.554l.14-.28a.924.924,0,0,0,.067-.108c.061-.134.134-.28.2-.42l.073-.166q.242-.525.436-1.076c.056-.172.117-.338.162-.5s.039-.159.061-.236c.056-.2.112-.4.162-.637l.034-.146.034-.153c.028-.127.061-.255.084-.382a.429.429,0,0,1,0,.051,27.582,27.582,0,0,0-.19-9.965,78.03,78.03,0,0,0-2.168-9.29c-.944-3.184-2.107-6.533-1.57-9.857a15.98,15.98,0,0,1,.827-2.91h0c.24-.637.492-1.273.721-1.948.134-.382.257-.771.374-1.159l.1-.35c.056-.191.095-.382.14-.573l.034-.178v-.089h0a23.24,23.24,0,0,0,.268-6.106c-.291-4.795-1.285-9.634-3.615-13.633a16.452,16.452,0,0,0-5.236-5.6,10.933,10.933,0,0,0-2.185-1.076c.061-.127.134-.248.2-.369a5.157,5.157,0,0,0,.441-1.273,8.138,8.138,0,0,0-.212-3.152c-.933-4.5-1.894-9.08-3.805-13.161s-4.934-7.711-8.817-9.1c-1.939-.7-4.034-.821-5.895-1.776-.788-.408-1.52-.955-2.285-1.426a13.7,13.7,0,0,0-6.705-2.095c-.458-.032-.905,0-1.358,0H428.7a8.625,8.625,0,0,0-1.117.121c-.464.07-.933.127-1.369.223a2.02,2.02,0,0,0-1.782,1.668v.07a.587.587,0,0,1-.039.229c-.246-.045-.5-.089-.749-.121a21.859,21.859,0,0,0-2.749-.172c-12.031.036-22.178,10.219-23.73,23.814a11.233,11.233,0,0,1-1.553.14,22.729,22.729,0,0,1-6.268-.885l-3.589-1.172h0s.034-.1.112-.306l.654-.567-.486.108c.8-2.108,3.062-8.029,4.314-10.869,1.531-3.489,12.5-7.851,12.5-7.851,15.086-.872,26.82-13.371,26.82-13.371s31.357,5.813,50.746,4.05,26.032,5.24,26.032,5.24,12.768,39.853,33.956,29.035c15.941-8.131-12.5-31.347-27.547-42.337.866.554,1.721,1.127,2.559,1.738s1.8,1.324,2.76,2.038c-1.788-1.369-3.492-2.642-5.057-3.782a48.124,48.124,0,0,0-17.109-8L440.634,419.07h-.274a153.282,153.282,0,0,0-42.555,11.71c-16.422,7.163-35.52,17.09-37.342,19.1a90.587,90.587,0,0,1-12.253,10.761c-5.409.885-12.572,6.59-17.405,10.965l-.793.72c-.089-.484-.117-.777-.117-.777s-6.8,4.693-6.9,7.31-13.879,15.282-13.879,15.282-7.756,13.989-11.969,14.664-10.343,15.817-10.343,15.817l-7.264,16.256s-3.827,4.457-3.353,7.2-2.967,6-2.967,6-5.554,5.45-5.459,7.31-2.872,3.82-2.872,3.82-4.112,8.4-5.358,12.875a1.97,1.97,0,0,0,0,1.051l-.073.038s-3.47,8.914-3.353,12.436a15.221,15.221,0,0,1-1.883,6.73l-.257.108h.207c-.156.3-.263.478-.268.49h0s-15.444-12.1-38.034-6.437-21.082,20.732-21.082,20.732.894,18.542,7.4,24.9,10.616,6.654,14.293,11.461,22.847,7,22.847,7,37.906,2.178,58.328,0,29.659-2.184,29.659-2.184,22.434-3.184,32.514-1.165,24.378,1.458,24.378,1.458a7.23,7.23,0,0,0,.559-1.745h.207a7.105,7.105,0,0,0,.559-1.681,90.077,90.077,0,0,1,14.746-2.394,55.884,55.884,0,0,0,19.646-5.234s7.862.077,19.663,9.379,46.975,4,46.975,4l19.406-1.745s12.756-2.33,16.846,3.782,14.036,8.437,17.355,0,18.892-24.725,18.892-24.725,14.3-9.315,20.674-33.448S561.6,602.056,558.805,604.953ZM447.351,508.742c1.078-1.312,1.961-2.827,3.045-4.139,1.464-1.764,3.285-3.107,4.733-4.884a10.455,10.455,0,0,0,1.788-3.184l.034.07.3.911c.039.146.067.287.1.433s.067.337.095.509.033.191.045.287c.033.261.056.529.067.8v1.28a4.6,4.6,0,0,1-.067.783,3.492,3.492,0,0,1-.061.478c-.022.159-.039.274-.061.408s-.039.255-.067.382v.038c-.056.28-.112.56-.173.841h0a21.307,21.307,0,0,1-.62,2.2c-.419,1.273-.911,2.547-1.341,3.82h0c-.117.344-.229.694-.335,1.038-.045.153-.089.3-.14.452s-.095.35-.145.522v.076a19.517,19.517,0,0,0-.408,1.91,1.338,1.338,0,0,0,0,.146c0,.045,0,.1,0,.14l-.05.433v.312a4.673,4.673,0,0,1-.039.739v.369a6.75,6.75,0,0,0,.039.891,1.072,1.072,0,0,0,.039.35c.039.115,0,.28.039.42a.262.262,0,0,1,0,.064,2.237,2.237,0,0,0,.061.388c.022.127.061.376.095.567l.05.242a1.6,1.6,0,0,0,.078.388c.034.127.039.178.061.267s0,.134.045.2l.084.344a1.207,1.207,0,0,0,.073.28l.168.637c.056.185.106.369.156.554.844,2.955,1.855,5.871,1.447,8.812h0q-.042.357-.117.707c-.531,2.426-2.034,4.387-3.431,6.31q-3.092,4.215-5.8,8.768a25.971,25.971,0,0,0-1.967,3.789h0c-.134.338-.257.681-.369,1.025l-.14.427c-.961,3.438-.447,7.17.073,10.729l2.134,14.607c.067.452.134.9.2,1.363l.067.5.05.395c.078.637.145,1.312.19,1.968v.2a6.321,6.321,0,0,0,.034.8v1.273a5.432,5.432,0,0,1-.061.987v.076c-.034.338-.078.675-.134,1.006h0a10.5,10.5,0,0,1-.268,1.178,20.555,20.555,0,0,1-2.274,4.858h0l-1.4-.573s-11.734-17.192-16.589-25.017-3.319-11.633-3.319-11.633c.766-13.671-8.426-24.145-13.019-26.743-1.715-.974-3.285-3.075-4.582-5.323a5.975,5.975,0,0,1,1.263.089l-.33-.917a.842.842,0,0,1,.33.045l-5.331-14.785a13.925,13.925,0,0,1,4.034-1.305c.425-.076.855-.147,1.28-.2a22.3,22.3,0,0,0,10.734,4.928c.24.038.481.051.721.083-.061.1-.117.2-.168.293l-.067.153a1.329,1.329,0,0,0-.073.191,1.412,1.412,0,0,0-.056.223v.14a1.512,1.512,0,0,0,0,.388c2.274.223,4.783.567,6.269,2.547a4.262,4.262,0,0,0,1.062,1.2,2.381,2.381,0,0,0,1.151.2h2.475a38.635,38.635,0,0,0,8.638-.8A17.9,17.9,0,0,0,447.351,508.742Zm-46.969-1.458a5.5,5.5,0,0,1,1.162-.847C401.421,506.52,401.013,506.812,400.382,507.284ZM416.619,603.8c-11.393-7.838-18.377-4.655-18.377-4.655h-1.274c-5.588,0-49.271-2.6-49.271-2.6h-.76a3.782,3.782,0,0,1,.76,0A16.387,16.387,0,0,0,346.411,592a4.086,4.086,0,0,0-.257-.4,60.931,60.931,0,0,0,1.352-13.219c-.29-6.215,0-11.888,0-11.888,11.874,4.655,28.262-4.718,28.5-4.865,12.851-4.107,17.88-.879,17.88-.879,1.023,5.234,12.51,27.341,12.51,27.341s10.466,9.016,14.528,16a19.655,19.655,0,0,0,2.006,2.789c-.637-.248-1.246-.5-1.821-.745A27.207,27.207,0,0,1,416.619,603.8Z" transform="translate(-104.348 -187.171)" fill="url(#linear-gradient)"/>
      <path id="Path_444" data-name="Path 444" d="M641.964,484.839c-20.841,10.64-33.4-28.558-33.4-28.558s-6.521-6.87-25.608-5.151S533,447.118,533,447.118s-11.549,12.315-26.362,13.155c0,0-10.8,4.292-12.293,7.73-1.224,2.789-3.448,8.615-4.241,10.684a4.362,4.362,0,0,1-.162.452c-.078.2-.112.306-.112.306l-.62.331h0l-12.438,6.807-17.07,5.444-10.8,1.426L430.57,478.981s2.118-2.254,5.23-5.094c4.755-4.3,11.8-9.914,17.12-10.78a89.279,89.279,0,0,0,12.052-10.583c1.794-2.006,20.579-11.767,36.727-18.816a150.9,150.9,0,0,1,41.856-11.519l54.473,13.11a47.453,47.453,0,0,1,16.846,7.851C629.654,454,657.665,476.828,641.964,484.839Z" transform="translate(-208.392 -188.304)" fill="#ffc1c7"/>
      <g id="Group_18" data-name="Group 18" transform="translate(222.435 233.956)" opacity="0.1">
        <path id="Path_445" data-name="Path 445" d="M433.287,480.759s2.118-2.26,5.23-5.094c4.755-4.3,11.8-9.914,17.12-10.78A89.279,89.279,0,0,0,467.69,454.3c1.794-2.012,20.579-11.767,36.727-18.816a150.649,150.649,0,0,1,41.856-11.468l54.473,13.1a47.4,47.4,0,0,1,16.841,7.857q1.3.949,2.716,2.006c-1.76-1.35-3.436-2.6-4.973-3.725a47.427,47.427,0,0,0-16.841-7.851L544.016,422.3a150.843,150.843,0,0,0-41.856,11.519c-16.154,7.049-34.939,16.81-36.727,18.816a89.646,89.646,0,0,1-12.052,10.583c-5.319.866-12.371,6.482-17.12,10.78-3.112,2.821-5.23,5.094-5.23,5.094l18.327,14.473h.073Z" transform="translate(-431.03 -422.3)"/>
        <path id="Path_446" data-name="Path 446" d="M751.9,477.5a11.048,11.048,0,0,0-2.235-1.611c.5,1.515,6.862,20.286,17.707,27.494C757.477,494.922,751.9,477.5,751.9,477.5Z" transform="translate(-571.624 -441.767)"/>
      </g>
      <path id="Path_447" data-name="Path 447" d="M662.929,587.208q-.1.494-.252.974c-.045.166-.106.331-.156.49q-.213.6-.481,1.165c-.073.172-.156.344-.229.509a.831.831,0,0,1-.061.108c-.078.166-.156.318-.24.471-.559,1.082-1.207,2.114-1.827,3.184-.207.344-.414.694-.609,1.051a1.961,1.961,0,0,1-.117.21c-.106.2-.218.408-.318.637s-.179.344-.257.516-.089.178-.129.267l-.24.528a12.363,12.363,0,0,0-.665,2.069c-.861,4.043.659,8.188,1.894,12.1,2.492,7.934,3.867,16.81,1.509,24.731-.056.185-.112.376-.173.567s-.168.5-.257.751c-.134.382-.285.758-.453,1.133-1.274,2.827-3.459,5.368-6.146,5.094-3.693-.369-5.487-5.527-8.851-7.284-2.922-1.528-6.616-.28-9.37-2.165a12.993,12.993,0,0,1,.933-2.464c.5-1.044,1.117-2.044,1.676-3.037a20.456,20.456,0,0,0,2.235-4.782,11.522,11.522,0,0,0,.263-1.159.419.419,0,0,0,0-.089c.028-.2.061-.382.084-.579s.045-.376.061-.579a.591.591,0,0,0,0-.1,3.945,3.945,0,0,1,.039-.675,35.866,35.866,0,0,0-.559-6.406q-1.045-7.182-2.1-14.365c-.514-3.5-1.017-7.17-.067-10.551.073-.242.151-.484.229-.719s.173-.478.268-.707a25.989,25.989,0,0,1,1.933-3.725q2.66-4.457,5.7-8.628c1.375-1.91,2.85-3.82,3.353-6.2a6.122,6.122,0,0,0,.123-.7,16.513,16.513,0,0,0-.916-6.89q-.129-.4-.235-.8c-.235-.79-.469-1.586-.67-2.394-.067-.261-.129-.529-.19-.8q-.179-.8-.285-1.624a13.232,13.232,0,0,1-.123-1.63v-.771a2.3,2.3,0,0,1,.045-.579c.045-.2.05-.407.078-.637s.045-.306.073-.458.084-.465.14-.688a4.459,4.459,0,0,1,.128-.541c.028-.146.067-.293.1-.433l.145-.509.229-.739c.073-.242.156-.49.24-.732.419-1.273.9-2.547,1.319-3.77q.353-1.06.609-2.159h0a2.367,2.367,0,0,1,.089-.42q.052-.211.084-.427a5.258,5.258,0,0,0,.089-.535c.039-.236.078-.484.1-.726s.045-.49.061-.739,0-.49,0-.732a9.463,9.463,0,0,0-.318-2.547,6.625,6.625,0,0,0-.324-.981h0q-.145-.327-.319-.637c-.715-1.324-1.827-2.337-2.475-3.719a6.436,6.436,0,0,1-.559-2.744,5.961,5.961,0,0,1,.045-.777,5.534,5.534,0,0,1,.156-.777,2.268,2.268,0,0,1,.089-.3l.117-.306a3.616,3.616,0,0,1,.184-.369c.056-.083.106-.172.162-.248a2.3,2.3,0,0,1,2.844-.84l.318.121a11.074,11.074,0,0,1,2.146,1.063,16.2,16.2,0,0,1,5.152,5.5,30.4,30.4,0,0,1,3.554,13.41,23.247,23.247,0,0,1-.263,6.011,2.15,2.15,0,0,1-.05.261c-.045.191-.084.382-.14.567q-.509,1.734-1.173,3.4h0a15.948,15.948,0,0,0-.816,2.865c-.525,3.273.62,6.539,1.548,9.691a77.189,77.189,0,0,1,2.09,9.15A24.92,24.92,0,0,1,662.929,587.208Z" transform="translate(-298.817 -225.542)" fill="#965d7b"/>
      <g id="Group_19" data-name="Group 19" transform="translate(336.678 300.17)" opacity="0.1">
        <path id="Path_448" data-name="Path 448" d="M679.37,570.211q.668-1.67,1.179-3.413c.073-.274.14-.548.2-.828a27.135,27.135,0,0,0-1.375,4.241Z" transform="translate(-654.852 -540.704)"/>
        <path id="Path_449" data-name="Path 449" d="M658.947,535.529c1.24,2.292,1.117,5.094.5,7.787.045-.14.095-.274.14-.414,1.067-3.184,1.676-7,.112-9.946-.721-1.324-1.838-2.343-2.481-3.719a6.535,6.535,0,0,1-.559-2.948,5.981,5.981,0,0,0-.168,5.527C657.109,533.192,658.227,534.2,658.947,535.529Z" transform="translate(-644.498 -526.29)"/>
        <path id="Path_450" data-name="Path 450" d="M675.943,632.213c-.028.14-.05.28-.073.427,1.229-2.974,3.4-5.5,4.47-8.577a13.692,13.692,0,0,0,.531-1.993C679.435,625.578,676.714,628.425,675.943,632.213Z" transform="translate(-653.307 -561.083)"/>
        <path id="Path_451" data-name="Path 451" d="M661.07,696.134c-1.151,3.235-3.548,6.527-6.6,6.221-3.693-.363-5.481-5.521-8.851-7.284-2.861-1.5-6.459-.337-9.192-2.05a13.384,13.384,0,0,0-.933,2.464c2.755,1.91,6.448.637,9.37,2.159,3.353,1.764,5.157,6.928,8.851,7.291,3.056.3,5.453-2.993,6.6-6.227a26.376,26.376,0,0,0,.788-2.674Z" transform="translate(-635.49 -586.857)"/>
        <path id="Path_452" data-name="Path 452" d="M641.917,650.648a26.943,26.943,0,0,1,.33,8.43,13.36,13.36,0,0,0,.486-1.414c.861-3.075.4-6.406-.061-9.589q-1.045-7.182-2.1-14.371c-.453-3.114-.9-6.367-.324-9.4a13.739,13.739,0,0,0-.5,1.433c-.95,3.381-.441,7.042.067,10.544Q640.872,643.472,641.917,650.648Z" transform="translate(-637.134 -561.893)"/>
        <path id="Path_453" data-name="Path 453" d="M659.705,580.675c1.078-4.928-2.235-9.761-2.3-14.836a14.886,14.886,0,0,1,.441-3.489,18.477,18.477,0,0,0-1.19,6.068c.039,4.839,3.062,9.456,2.408,14.155A9.932,9.932,0,0,0,659.705,580.675Z" transform="translate(-644.831 -539.389)"/>
      </g>
      <path id="Path_454" data-name="Path 454" d="M664.114,697.3c-6.275,23.744-20.339,32.9-20.339,32.9s-15.315,16.027-18.584,24.343-13.052,6.011-17.064,0-16.573-3.712-16.573-3.712l-19.087,1.713s-34.587,5.228-46.2-3.929-19.333-9.226-19.333-9.226a55.218,55.218,0,0,1-19.327,5.151,87.783,87.783,0,0,0-14.528,2.343c-2.665.637-5,1.273-6.666,1.726s-2.665.789-2.665.789l-25.569-2.935-24.149-2.783-13.053-2.012-3.425-8.494-3.3-8.163-1.118-2.789L394.7,693.05h41.18s42.946,2.547,48.461,2.547H485.6s6.867-3.133,18.076,4.572a26.937,26.937,0,0,0,4.47,2.3c17.813,7.584,67.861,17.44,67.861,17.44l32.408-2.292s18.221-7.564,28.5-12.55c3.425-1.668,5.973-3.05,6.655-3.757C646.284,698.443,670.388,673.546,664.114,697.3Z" transform="translate(-191.877 -284.544)" fill="#ffc1c7"/>
      <path id="Path_455" data-name="Path 455" d="M408.862,725.088l1.984,8.048-6.783,4.19-6.5-.815-3.3-8.163-1.117-2.789,1.564-29.169h41.152C427.279,697.269,408.862,725.088,408.862,725.088Z" transform="translate(-191.881 -287.91)" opacity="0.1"/>
      <path id="Path_456" data-name="Path 456" d="M368.991,713.54l1.984,8.048-6.778,4.19-17.137-2.146-9.231-8.475c-15.086-27.9-33.33-28.016-33.33-28.016s2.263-3.763,2.168-7.2,3.319-12.232,3.319-12.232l.324-.178c1.151-.637,5.057-2.84,5.3-2.935,0,0,77.483,14.269,78.991,14.811a1.886,1.886,0,0,1,.9.949,15.962,15.962,0,0,1,1.268,4.457C388.593,683.957,368.991,713.54,368.991,713.54Z" transform="translate(-152.765 -276.362)" fill="#565988"/>
      <path id="Path_457" data-name="Path 457" d="M527.067,538.76a35.713,35.713,0,0,0-6.806.49c-3.749.694-7.342,2.318-5.75,6.094,3.012,7.151-16.07,19.739-16.07,19.739l-26.619,19.459L455.25,555.926l8.543-23.177,23.848-13.734L500.7,511.87a28.165,28.165,0,0,0,9.722,2.025,7.118,7.118,0,0,0,5.342-2.025C519.781,507.292,527.067,538.76,527.067,538.76Z" transform="translate(-219.282 -220.716)" fill="#ffc1c7"/>
      <path id="Path_458" data-name="Path 458" d="M570.5,538.76a35.713,35.713,0,0,0-6.806.49c-6.287-5.032-10.025-13.244-10.013-22a30.186,30.186,0,0,1,.179-3.356,7.118,7.118,0,0,0,5.342-2.025C563.212,507.292,570.5,538.76,570.5,538.76Z" transform="translate(-262.714 -220.716)" opacity="0.1"/>
      <path id="Path_459" data-name="Path 459" d="M603.545,505.236c0,14.861-10.567,26.9-23.6,26.9a20.525,20.525,0,0,1-3.266-.261c-12.292-1.943-21.164-14.4-20.3-28.509s11.163-25.045,23.573-25.028a22.462,22.462,0,0,1,2.7.172C594.56,480.086,603.543,491.576,603.545,505.236Z" transform="translate(-263.878 -208.701)" fill="#ffc1c7"/>
      <path id="Path_460" data-name="Path 460" d="M727.823,714.343c0,3.413-15.919,10.347-29.648,15.7a75.881,75.881,0,0,1-29.9,4.947,7.727,7.727,0,0,0-2.442.248c-3.766,1.14-52.724-12.022-52.724-12.022s-10-5.285-14.131-12c17.813,7.583,67.861,17.44,67.861,17.44l32.408-2.292s18.221-7.564,28.5-12.55a1.131,1.131,0,0,1,.078.535Z" transform="translate(-282.703 -293.294)" opacity="0.1"/>
      <path id="Path_461" data-name="Path 461" d="M536.5,568.84s3.515,10.525,8.035,13.1,13.555,12.875,12.807,26.323c0,0-1.509,3.725,3.263,11.461s16.321,24.6,16.321,24.6,23.6,9.443,31.128,15.167h.028a79.5,79.5,0,0,1,17.372,4.935,30.887,30.887,0,0,0,10.722,2.5c7.783,0,47.958-12.015,47.958-6.011,0,3.419-15.919,10.353-29.653,15.7a75.948,75.948,0,0,1-29.893,4.928,7.908,7.908,0,0,0-2.442.248c-3.766,1.14-52.73-12.022-52.73-12.022s-10.32-5.431-14.338-12.327-14.3-15.708-14.3-15.708-11.3-21.745-12.293-26.9c0,0-5.772-3.719-20.842,2s-3.28-12.881-3.28-12.881l16.824-22.286Z" transform="translate(-239.018 -241.576)" fill="#ffc1c7"/>
      <path id="Path_462" data-name="Path 462" d="M499.346,554.22,494.1,539.677a86.318,86.318,0,0,0-13.583,12.251c-6.28,7.151-10.549,11.461-13.561,12.3s-13.3,6.813-17.573-5.463-2.514-20.573,1.5-24.578,31.2-22.84,31.2-22.84l-3.57-.312s-24.853,9.914-32.637,5.387c0,0-13.812,2.63-16.824-3.095S423.2,506.7,423.2,506.7L404.95,534.786l6.532,62.088H428.3l18.076-8.01,24.1-2.292s9.041-9.729,10.3-14.307S491.585,552.787,499.346,554.22Z" transform="translate(-197.088 -219.003)" opacity="0.1"/>
      <path id="Path_463" data-name="Path 463" d="M499.346,552.883,494.1,538.339a86.313,86.313,0,0,0-13.583,12.251c-6.28,7.157-10.549,11.461-13.561,12.3s-13.3,6.813-17.573-5.463-2.514-20.573,1.5-24.578,31.2-21.993,31.2-21.993l-3.57-1.165s-24.853,9.908-32.637,5.38c0,0-13.812,2.63-16.824-3.095s-5.856-6.628-5.856-6.628L404.95,533.436l6.532,62.088H428.3l18.076-8.01,24.1-2.292s9.041-9.723,10.3-14.3S491.585,551.437,499.346,552.883Z" transform="translate(-197.088 -218.513)" fill="#565988"/>
      <path id="Path_464" data-name="Path 464" d="M399.821,680.394c-.291,1.579-.525,2.592-.525,2.592s-1.034-.433-13.74,2.362-25.328,0-25.328,0a130.229,130.229,0,0,1-21.847-4.833c-10.918-3.54-25.233-7.73-24.026-12.1.078-.255.156-.541.251-.821,1.151-.637,5.057-2.84,5.3-2.935,0,0,77.483,14.269,78.991,14.81A1.868,1.868,0,0,1,399.821,680.394Z" transform="translate(-157.081 -276.384)" opacity="0.1"/>
      <path id="Path_465" data-name="Path 465" d="M454.708,538.968l4.358,11.226s-6.705-4.056-15.276,12.576-9.7,18.994-9.7,18.994-6.023,4.686-4.515,10.659c0,0-17.847,7-29.614,2.375,0,0-2.637,9.067-2.352,15.186q.264,4.9.045,9.812s3.353-2.9-9.365-.1a102.908,102.908,0,0,1-25.328,1.98,166.748,166.748,0,0,1-20.573-5.2c-10.924-3.54-27.871-2.63-26.647-7s5.275-12.658,5.275-12.658,2.917-1.91,2.794-3.757,5.37-7.189,5.37-7.189,3.386-3.216,2.917-5.9,3.3-7.081,3.3-7.081l7.158-15.982s6.023-14.919,10.169-15.562,11.767-14.378,11.767-14.378,13.555-12.442,13.65-15.021,6.778-7.189,6.778-7.189,1.078,10.532,10.058,10.965,20.842,0,20.842,0l23.294-6.24s-10.2,10.513-12.561,11.264-9.443,6.546-13.052,7.641-10.946,6.711-10.661,14.734,2.732,12.1,2.732,12.1,7.342,15.918,14.684,14.008c0,0,8.2.5,11.488-5.043S454.708,538.968,454.708,538.968Z" transform="translate(-157.697 -218.295)" opacity="0.1"/>
      <path id="Path_466" data-name="Path 466" d="M490.555,508.1l-.637.554-.732.637h0L476.748,516.1l-17.07,5.444-10.8,1.426L430.55,508.494s2.118-2.254,5.23-5.094c.5,2.547,2.554,9.7,9.9,10.054,8.968.439,20.842,0,20.842,0l23.568-5.279Z" transform="translate(-208.384 -217.804)" opacity="0.1"/>
      <path id="Path_467" data-name="Path 467" d="M454.092,537.6l4.358,12.1s-7.459-4.909-16.031,11.722-9.694,18.987-9.694,18.987-5.275,5.546-3.766,11.519c0,0-16.293,9.4-28.061,4.788,0,0-.279,5.584,0,11.7s-1.6,14.269-1.6,14.269-1.039-.427-13.751,2.362-25.323,0-25.323,0a129.849,129.849,0,0,1-21.847-4.826c-10.918-3.54-25.233-7.73-24.026-12.1s5.275-12.665,5.275-12.665,2.917-1.91,2.827-3.757,5.364-7.189,5.364-7.189,3.392-3.184,2.917-5.9,3.3-7.087,3.3-7.087l7.158-15.982s6.023-14.919,10.169-15.562,11.767-14.378,11.767-14.378,13.578-12.48,13.667-15.059,6.783-7.189,6.783-7.189,1.073,10.532,10.058,10.965,20.847,0,20.847,0l24.026-5.38s-10.952,9.653-13.3,10.4-9.449,6.546-13.058,7.641-10.952,6.762-10.672,14.81,2.732,12.1,2.732,12.1,7.342,15.88,14.69,13.951c0,0,8.2.5,11.482-5.043S454.092,537.6,454.092,537.6Z" transform="translate(-157.081 -217.79)" fill="#e8f4ff"/>
      <path id="Path_468" data-name="Path 468" d="M433.75,618.28s9.225,19.529,13.46,21.649,3.392-1.5,3.392-1.5S435.069,622.559,433.75,618.28Z" transform="translate(-209.796 -259.536)" opacity="0.1"/>
      <path id="Path_469" data-name="Path 469" d="M401.9,641.54s9.041,16.415,15.723,16.415Z" transform="translate(-195.742 -267.985)" opacity="0.1"/>
      <path id="Path_470" data-name="Path 470" d="M366.34,609.69s10.549,37.981,29.944,40.987C396.284,650.677,370.955,629.435,366.34,609.69Z" transform="translate(-180.051 -256.415)" opacity="0.1"/>
      <path id="Path_471" data-name="Path 471" d="M369.71,661.25s17.422,15.772,28.061,13.416C397.771,674.666,379.6,671.126,369.71,661.25Z" transform="translate(-181.538 -275.145)" opacity="0.1"/>
      <path id="Path_472" data-name="Path 472" d="M346.57,703.75s17.416,15.772,28.061,13.41C374.631,717.16,356.454,713.619,346.57,703.75Z" transform="translate(-171.328 -290.584)" opacity="0.1"/>
      <path id="Path_473" data-name="Path 473" d="M354.72,717.81s17.416,15.772,28.055,13.416C382.775,731.226,364.6,727.686,354.72,717.81Z" transform="translate(-174.924 -295.691)" opacity="0.1"/>
      <path id="Path_474" data-name="Path 474" d="M359.43,695s17.416,15.753,28.055,13.371C387.485,708.371,369.314,704.85,359.43,695Z" transform="translate(-177.002 -287.405)" opacity="0.1"/>
      <path id="Path_475" data-name="Path 475" d="M461.438,493.49,450.52,509.478l1.5,3.216Z" transform="translate(-198.79 -179.273)" opacity="0.1"/>
      <path id="Path_476" data-name="Path 476" d="M619.129,505.352c0,14.86-10.567,26.9-23.6,26.9a20.525,20.525,0,0,1-3.266-.261,6.661,6.661,0,0,0,.868-1.5c.7-2.222-2.235-4.54-1.313-6.667a2.939,2.939,0,0,1,2.855-1.452c1.1-.032,2.324,0,3.123-.866.922-1.012.793-2.681,1.028-4.113a10.578,10.578,0,0,1,3.168-5.476,44.493,44.493,0,0,0,4.347-4.457,18.053,18.053,0,0,0,3.073-9.424,11.621,11.621,0,0,0-1.017-6.367c-1.117-1.967-3.034-3.075-4.789-4.285a13.824,13.824,0,0,1-4.168-4.145,7.7,7.7,0,0,1-1.2-4.578C610.133,480.233,619.112,491.7,619.129,505.352Z" transform="translate(-279.462 -208.817)" opacity="0.1"/>
      <path id="Path_477" data-name="Path 477" d="M632.7,505.409a5.163,5.163,0,0,1-.441,1.273c-.056.115-.123.236-.184.357l-.341.592a6.144,6.144,0,0,0-1.034,2.642,9.353,9.353,0,0,0,.866,3.375l.061.2h0q.076.238.129.484a6.282,6.282,0,0,1-.218,3.324h0a10.262,10.262,0,0,1-1.76,3.184c-1.425,1.751-3.219,3.075-4.654,4.807-1.073,1.273-1.939,2.783-3,4.069a17.361,17.361,0,0,1-9.616,5.6,38.552,38.552,0,0,1-8.5.783h-2.43a2.376,2.376,0,0,1-1.118-.2,4.219,4.219,0,0,1-1.045-1.178c-1.464-1.91-3.911-2.273-6.146-2.49a1.955,1.955,0,0,1,.369-1.356,8.019,8.019,0,0,0,.916-1.6c.7-2.229-2.235-4.54-1.307-6.679a1.825,1.825,0,0,1,.346-.535,2.018,2.018,0,0,1,.307-.287,3.95,3.95,0,0,1,2.2-.637,9.354,9.354,0,0,0,1.263-.057,2.788,2.788,0,0,0,1.81-.8h0c.922-1,.793-2.674,1.028-4.1a10.5,10.5,0,0,1,3.168-5.476,43.829,43.829,0,0,0,4.347-4.457,18.05,18.05,0,0,0,3.073-9.417,11.611,11.611,0,0,0-1.017-6.367,11.907,11.907,0,0,0-4.129-3.82l-.659-.446a15.933,15.933,0,0,1-3.3-2.91,11.777,11.777,0,0,1-.833-1.337,7.882,7.882,0,0,1-1.218-4.457,1.773,1.773,0,0,1,.045-.293c.33-1.636,1.749-1.656,3.1-1.859.363-.051.721-.1,1.084-.121a12.332,12.332,0,0,1,1.609,0,13.531,13.531,0,0,1,6.56,2.05c.749.465,1.464,1.006,2.235,1.407,1.833.936,3.911,1.057,5.8,1.745,3.822,1.363,6.789,4.928,8.672,8.953s2.822,8.513,3.744,12.945a8.064,8.064,0,0,1,.224,3.095Z" transform="translate(-280.092 -207.556)" fill="#965d7b"/>
      <path id="Path_478" data-name="Path 478" d="M473.938,765.1a6.849,6.849,0,0,1-.559,1.655s-2.492.1-6.146.07a102.644,102.644,0,0,1-17.88-1.5,51.219,51.219,0,0,0-10.376-.637l-24.149-2.782-13.052-2.012-6.705-16.657a71.245,71.245,0,0,0,7.219.07c7.415-8.01,14.315-6.724,18.081-3.247s10.8,6.246,11.3,6.246c.335,0,11.438.267,18.579.433a30.385,30.385,0,0,1,15.79,4.814C474.374,756.864,474.5,762.416,473.938,765.1Z" transform="translate(-192.728 -302.788)" opacity="0.1"/>
      <path id="Path_479" data-name="Path 479" d="M264.066,693.248l-5.481,2.292s-15.187-11.907-37.409-6.329-20.713,20.458-20.713,20.458.877,18.236,7.264,24.5,10.421,6.546,14.058,11.27,22.473,6.864,22.473,6.864,37.286,2.146,57.373,0,29.156-2.146,29.156-2.146,22.06-3.145,31.978-1.146,23.982,1.433,23.982,1.433,4.146-7.819-7.314-15.212a30.309,30.309,0,0,0-15.79-4.814c-7.135-.172-18.238-.433-18.579-.433-.5,0-7.532-2.77-11.3-6.246s-10.667-4.769-18.076,3.241c0,0-16.444.859-18.707-3.859s-13.935-19.529-13.935-19.529Z" transform="translate(-106.849 -284.762)" fill="#ffc1c7"/>
      <path id="Path_480" data-name="Path 480" d="M336.723,724.731s-.123,2.591,4.962,2.165c4.7-.4-13.935-19.529-13.935-19.529l-19-10.347-5.481,2.3S321.659,696.835,336.723,724.731Z" transform="translate(-152.222 -288.139)" opacity="0.1"/>
      <path id="Path_481" data-name="Path 481" d="M338.068,723.381s-.123,2.591,4.962,2.165c4.7-.395-13.935-19.529-13.935-19.529l-19-10.347-5.487,2.3S323,695.485,338.068,723.381Z" transform="translate(-152.813 -287.649)" fill="#565988"/>
      <path id="Path_482" data-name="Path 482" d="M267.88,710.731s5.4-3.146,13.31.79a58.632,58.632,0,0,0,8.705,3.445,52.431,52.431,0,0,1,13.6,6.476c5.509,3.648,12.985,8.029,17.143,8.029" transform="translate(-136.606 -292.687)" fill="none" stroke="#000" stroke-miterlimit="10" stroke-width="1" opacity="0.1"/>
      <path id="Path_483" data-name="Path 483" d="M603.064,536.051a2.282,2.282,0,0,1-1.117-.2,4.052,4.052,0,0,1-1.045-1.178c-1.464-1.91-3.939-2.273-6.146-2.483-.179-1.108.944-1.91,1.279-2.955.71-2.229-2.235-4.54-1.307-6.673a2.96,2.96,0,0,1,2.861-1.445c1.1-.032,2.324,0,3.118-.872.922-1.006.793-2.681,1.034-4.107a10.482,10.482,0,0,1,3.163-5.476,43.893,43.893,0,0,0,4.353-4.457,18.131,18.131,0,0,0,3.073-9.417,11.714,11.714,0,0,0-1.022-6.4c-1.118-1.961-3.034-3.069-4.789-4.285a13.825,13.825,0,0,1-4.168-4.145,7.457,7.457,0,0,1-1.173-4.744c.313-1.56,1.755-1.656,3.1-1.859.4-.064.788-.1,1.19-.127a13.678,13.678,0,0,0-2.7.127c-1.347.2-2.794.223-3.1,1.859a7.342,7.342,0,0,0,1.179,4.744,13.825,13.825,0,0,0,4.168,4.145c1.7,1.2,3.638,2.343,4.755,4.253a11.514,11.514,0,0,1,1.023,6.4,17.834,17.834,0,0,1-3.073,9.417,41.933,41.933,0,0,1-4.347,4.457,10.541,10.541,0,0,0-3.168,5.476c-.24,1.426-.112,3.1-1.028,4.107-.793.866-2.023.841-3.123.872a2.959,2.959,0,0,0-2.861,1.445c-.905,2.133,2.017,4.457,1.313,6.673-.341,1.057-1.458,1.847-1.285,2.954,2.235.21,4.7.554,6.146,2.483a3.893,3.893,0,0,0,1.045,1.178,2.247,2.247,0,0,0,1.117.2h2.442Z" transform="translate(-280.071 -207.564)" opacity="0.1"/>
      <path id="Path_484" data-name="Path 484" d="M662.244,536.572h0c.224-.815.475-1.726.721-2.693a58.332,58.332,0,0,0,1.637-7.838,11.074,11.074,0,0,0-2.146-1.063c.061-.121.128-.242.184-.357l-.5.236v.713c-.039,1.21-.117,3.769-.168,6.017v.1c-.039,1.776-.061,3.349,0,3.91h0Z" transform="translate(-310.48 -225.513)" fill="#565988"/>
      <ellipse id="Ellipse_89" data-name="Ellipse 89" cx="24.317" cy="3.808" rx="24.317" ry="3.808" transform="translate(488.396 444.869)" fill="#6c63ff" opacity="0.1"/>
      <path id="Path_485" data-name="Path 485" d="M950.728,744.927a8.046,8.046,0,0,0,2.274-3.91c.3-1.554-.291-3.419-1.592-3.986-1.458-.637-3.017.522-4.2,1.681s-2.537,2.5-4.084,2.248a7.7,7.7,0,0,0,1.905-6.628,2.908,2.908,0,0,0-.559-1.35c-.81-.987-2.28-.56-3.246.216-3.084,2.471-3.945,7.246-3.962,11.544a24.589,24.589,0,0,1-.056-4.756c-.005-1.573-.391-3.356-1.57-4.209a4.273,4.273,0,0,0-2.391-.637,4.486,4.486,0,0,0-3.878,1.273c-1.173,1.433-.872,3.82.156,5.425a15.555,15.555,0,0,0,4.012,3.661,9.577,9.577,0,0,1,2.866,3.12,3.638,3.638,0,0,1,.212.554h8.694A24.236,24.236,0,0,0,950.728,744.927Z" transform="translate(-428.153 -300.994)" fill="#6c63ff"/>
      <ellipse id="Ellipse_90" data-name="Ellipse 90" cx="24.317" cy="3.808" rx="24.317" ry="3.808" transform="translate(566.147 461.214)" fill="#6c63ff" opacity="0.1"/>
      <path id="Path_486" data-name="Path 486" d="M1089.892,770.6a8.045,8.045,0,0,0,2.274-3.91c.3-1.554-.291-3.419-1.592-3.986-1.458-.637-3.017.516-4.2,1.681s-2.537,2.5-4.085,2.248a7.7,7.7,0,0,0,1.922-6.635,2.916,2.916,0,0,0-.559-1.344c-.81-.987-2.28-.567-3.246.216-3.084,2.471-3.945,7.246-3.962,11.538a24.513,24.513,0,0,1-.056-4.75c-.006-1.566-.391-3.356-1.57-4.209a4.263,4.263,0,0,0-2.391-.637,4.5,4.5,0,0,0-3.878,1.273c-1.173,1.433-.872,3.82.156,5.425a15.553,15.553,0,0,0,4.012,3.661,9.524,9.524,0,0,1,2.866,3.12,3.136,3.136,0,0,1,.212.554h8.694A24.438,24.438,0,0,0,1089.892,770.6Z" transform="translate(-489.566 -310.318)" fill="#6c63ff"/>
      <ellipse id="Ellipse_91" data-name="Ellipse 91" cx="24.317" cy="3.808" rx="24.317" ry="3.808" transform="translate(517.507 495.579)" fill="#6c63ff" opacity="0.1"/>
      <path id="Path_487" data-name="Path 487" d="M1002.844,824.568a8.047,8.047,0,0,0,2.274-3.909c.3-1.554-.285-3.413-1.587-3.98-1.464-.637-3.023.516-4.2,1.675s-2.537,2.5-4.084,2.248a7.7,7.7,0,0,0,1.922-6.628,2.911,2.911,0,0,0-.559-1.35c-.81-.987-2.274-.56-3.246.217-3.084,2.471-3.945,7.246-3.962,11.544a24.584,24.584,0,0,1-.056-4.756c-.006-1.573-.391-3.356-1.57-4.209a4.255,4.255,0,0,0-2.386-.637,4.493,4.493,0,0,0-3.878,1.273c-1.179,1.439-.872,3.82.151,5.425s2.581,2.547,4.012,3.661a9.529,9.529,0,0,1,2.866,3.12,2.75,2.75,0,0,1,.212.554h8.694a24.248,24.248,0,0,0,5.4-4.247Z" transform="translate(-451.158 -329.925)" fill="#6c63ff"/>
      <ellipse id="Ellipse_92" data-name="Ellipse 92" cx="24.317" cy="3.808" rx="24.317" ry="3.808" transform="translate(24.323 438.655)" fill="#6c63ff" opacity="0.1"/>
      <path id="Path_488" data-name="Path 488" d="M120.18,735.166a8,8,0,0,0,2.274-3.91c.291-1.554-.285-3.419-1.587-3.986-1.458-.637-3.017.516-4.2,1.681s-2.537,2.5-4.084,2.248a7.689,7.689,0,0,0,1.922-6.635,2.963,2.963,0,0,0-.559-1.344c-.81-.987-2.28-.567-3.252.216-3.084,2.471-3.945,7.246-3.962,11.538a25.439,25.439,0,0,1-.056-4.75c-.011-1.566-.391-3.356-1.565-4.209a4.273,4.273,0,0,0-2.391-.637,4.5,4.5,0,0,0-3.878,1.273c-1.179,1.433-.872,3.82.151,5.425s2.581,2.547,4.017,3.661a9.524,9.524,0,0,1,2.866,3.12,3.643,3.643,0,0,1,.212.554H114.8A24.448,24.448,0,0,0,120.18,735.166Z" transform="translate(-61.683 -297.448)" fill="#6c63ff"/>
      <ellipse id="Ellipse_93" data-name="Ellipse 93" cx="24.317" cy="3.808" rx="24.317" ry="3.808" transform="translate(0 492.656)" fill="#6c63ff" opacity="0.1"/>
      <path id="Path_489" data-name="Path 489" d="M76.686,819.976a8.047,8.047,0,0,0,2.274-3.91c.3-1.554-.285-3.419-1.587-3.986-1.464-.637-3.023.516-4.2,1.681s-2.537,2.5-4.084,2.248a7.7,7.7,0,0,0,1.95-6.635,2.916,2.916,0,0,0-.559-1.344c-.81-.987-2.274-.567-3.246.217-3.084,2.471-3.945,7.246-3.962,11.544a24.584,24.584,0,0,1-.056-4.756c-.006-1.573-.391-3.356-1.57-4.209a4.2,4.2,0,0,0-2.386-.637,4.457,4.457,0,0,0-3.878,1.273c-1.179,1.433-.872,3.82.151,5.425s2.581,2.547,4.012,3.661a9.463,9.463,0,0,1,2.866,3.12,2.742,2.742,0,0,1,.212.554h8.689a24.457,24.457,0,0,0,5.375-4.247Z" transform="translate(-42.507 -328.256)" fill="#6c63ff"/>
    </g>
  </g>
</svg>
