<svg xmlns="http://www.w3.org/2000/svg" width="778.594" height="1002.78" viewBox="0 0 778.594 1002.78">
  <g id="Group_2" data-name="Group 2" transform="translate(-41.173 -263.7)">
    <path id="Path_4" data-name="Path 4" d="M510.7,295.532c.2-.62-30.442,230.143-138.672,326.479C265.068,717.217,154.815,770.587,67.295,902.658c-87.47,131.992,72.764,363.822,72.764,363.822S15.3,1069.41,137.785,916.3,277.223,773.529,394.733,647.984,510.67,295.63,510.7,295.532Zm0,6.822V1148.24s-25.319-262.516-36.382-429.766C466.72,603.6,472.045,507,472.045,507ZM533.44,263.7v991.41s34.108-325.128,34.108-557.1S533.44,263.7,533.44,263.7Z" fill="#fff" fill-rule="evenodd"/>
    <path id="Path_5" data-name="Path 5" d="M108.225,952.683s52.288-80.147,140.963-137.559,213.762-92.1,213.762-92.1-130.621,14.707-220.356,50.364c-81.55,32.4-123,86.069-123,86.069Z" fill="#fff" fill-rule="evenodd"/>
    <path id="Shape_4_copy_2" data-name="Shape 4 copy 2" d="M63.305,1080.02s15.936-267.251,236.9-322.89c267.548-67.37,519.56,25.012,519.56,25.012s-237.289-117.217-519.56-61.394C78.9,764.515,55.925,993.613,55.925,993.613,56.241,998.47,63.305,1080.02,63.305,1080.02Z" fill="#fff" fill-rule="evenodd"/>
  </g>
</svg>
