<svg xmlns="http://www.w3.org/2000/svg" xmlns:xlink="http://www.w3.org/1999/xlink" width="2431" height="1500" viewBox="0 0 2431 1500">
  <defs>
    <style>
      .cls-1 {
        filter: url(#filter);
      }

      .cls-2, .cls-3 {
        fill: #fff;
      }

      .cls-2 {
        fill-rule: evenodd;
      }

      .cls-3 {
        font-size: 92px;
        font-family: Azonix;
        text-transform: uppercase;
      }
    </style>
    <filter id="filter" filterUnits="userSpaceOnUse">
      <feFlood result="flood"/>
      <feComposite result="composite" operator="in" in2="SourceGraphic"/>
      <feBlend result="blend" in2="SourceGraphic"/>
    </filter>
  </defs>
  <g class="cls-1">
    <path class="cls-2" d="M539.411,251.745c0.207-.658-32.3,244.208-147.148,346.433C278.765,699.2,161.774,755.835,68.9,895.978c-92.816,140.062,77.211,386.052,77.211,386.052S13.731,1072.92,143.7,910.455s147.961-151.5,272.653-284.717S539.378,251.849,539.411,251.745Zm0,7.239V1156.57s-26.866-278.561-38.606-456.034c-8.063-121.892-2.413-224.395-2.413-224.395Zm24.129-41.019V1269.97s36.192-345,36.192-591.149S563.54,217.965,563.54,217.965Z"/>
    <path class="cls-2" d="M2397.31,777.748s-497.55-19.3-998.92-19.3c-507.173,0-1018.228,19.3-1018.228,19.3s446.044-48.257,1018.228-48.257S2397.31,777.748,2397.31,777.748Z"/>
    <path id="Shape_4_copy_3" data-name="Shape 4 copy 3" class="cls-2" d="M66.491,1045.57s55.484-85.041,149.579-145.961,229.24-85.668,229.24-85.668-141.017,3.541-236.237,41.377c-86.535,34.384-130.518,91.33-130.518,91.33Z"/>
    <text id="tlantykron" class="cls-3" transform="matrix(2.413, 0, 0, 2.413, 634.882, 952.635)">tlantykron</text>
    <g id="Group_2_copy_3" data-name="Group 2 copy 3">
      <path class="cls-2" d="M1357.37,741.555c0.05-.2,56.42-11.067,79.62-57.909,23.68-47.807-18.89-135.612-19.3-135.12,0,0,38.75,40.7,43.41,118.233,1.92,32.051-10.45,46.029-24.11,57.906S1357.37,741.555,1357.37,741.555Zm138.91-204.28s-25.75,12.071-30.96,29.556,15.48,123.855,15.48,123.855c-0.19.026-8.04-102.747-3.29-117.456C1482.15,558.915,1496.28,537.275,1496.28,537.275Zm-6.2,71.549s-8.93,74.506,9.65,98.951,74.83,26.541,74.83,26.541-48.56-10.186-65.18-43.431S1490.08,608.824,1490.08,608.824ZM1424.51,504.9s-36.27-39.379-45.04-56.3,2.81-71.779,2.81-71.779-14.83,36.11-26.74,43.63-57.7-64.742-57.7-64.742,39.66,75.171,70.37,102.743S1424.51,504.9,1424.51,504.9Zm12.66,35.186s-41.88-31.4-70.37-42.224-88.67-11.259-88.67-11.259,60.69,13.471,70.37,16.889-28.15,18.3-28.15,18.3,29.89-4.491,49.27-5.63S1437.17,540.09,1437.17,540.09Zm15.48,12.666s20.91-33.549,25.34-56.3-23.93-73.187-23.93-73.187,31.34,54.66,40.82,46.446,38-49.261,38-49.261-24.67,53.2-43.63,81.632S1452.65,552.756,1452.65,552.756Zm45.04-32.371A205.509,205.509,0,0,1,1537.1,503.5c22.64-6.828,49.26-9.852,49.26-9.852s-34.87,9.214-38,15.482,22.52,25.334,22.52,25.334-18.47-13.393-35.19-15.482S1497.69,520.385,1497.69,520.385Zm63.34-59.112s30.76-54.344,64.95-39.628,21.93,27.026,22.31,26.961c0.53-.09,55.45-11.456,47.85,45.038s-38,49.26-38,49.26,22.64,22.972-18.3,39.409c-35.9,14.417-63.33-35.186-63.33-35.186s19.85,14.649,26.74,14.074,23.35-16.4,23.93-26.741-35.19-15.482-35.19-15.482,33.09,1.436,39.41-14.074-11.61-29.5-22.52-32.372-33.78,11.26-33.78,11.26,16.49-19.388,8.45-21.112S1561.03,461.273,1561.03,461.273Zm-133.71-19.7s-40.25-17.365-32.37-42.223c2.51-7.907,21.11-16.89,21.11-16.89s-13.54-41.579,11.26-57.705c46.35-30.133,85.85,30.964,85.85,30.964s16.49-28.8,57.71-19.7,32.37,66.149,32.37,66.149a117.864,117.864,0,0,0-22.52,11.26c-10.68,7.122-26.74,30.964-26.74,30.964s27.15-42.981-14.07-52.076-49.27,26.742-49.27,26.742-6.49-35.447-33.77-23.927-11.26,35.186-11.26,35.186-15.83-18.306-21.11-12.667C1419.24,423.263,1427.32,441.569,1427.32,441.569Zm-32.37-71.78a99.684,99.684,0,0,1,2.08-41.511c6.42-22.946,26.02-29.165,26.07-28.861,0,0,16.23-36.221-46.45-42.223s-54.89,45.038-54.89,45.038-32.58-61.268-74.59-23.926-5.63,59.112-5.63,59.112-29.56,10.588-29.56,36.594,12.81,47.257,40.82,61.927,70.37,16.889,70.37,16.889S1276.5,429.2,1272.5,409.2s22.52-15.482,22.52-15.482-26.67-30.811,0-53.483,43.63,36.594,43.63,36.594-5.78-32.667,16.89-38S1394.95,369.789,1394.95,369.789Zm-94.3,95.706-39.41-5.629-32.37-18.3s-27.83-12.258-39.41,19.7,59.12,50.668,59.12,50.668-30.67,18.713-16.89,38,48.14,38.619,74.59,28.148,28.15-33.778,28.15-33.778-18.16,5.637-38-7.037,11.26-25.334,11.26-25.334-39.89,1.177-49.26-22.519S1300.65,465.5,1300.65,465.5Zm146.37-170.3s20.94,0.321,32.38,9.852c13.69,11.41,32.37,23.927,32.37,23.927s18.59-13.268,49.26-14.075,43.63,19.7,43.63,19.7c-0.04.355,21.84-37.823-7.03-59.059-28.12-20.688-64.75-4.276-64.75-4.276s9.01-43.047-39.41-36.593S1447.02,295.2,1447.02,295.2Zm170.3,108.373s-0.25-14.66-1.4-28.149c-0.93-10.852-2.82-21.111-2.82-21.111s7.16-6.557,11.26-14.075a57.022,57.022,0,0,0,5.63-16.889s33.99-7.129,42.03,11.471c7.26,16.8-2.71,37.422-2.62,37.789,0,0,19.7,2.368,19.7,33.779s-25.33,21.111-25.33,21.111-11.08-9.591-22.52-15.481A101.491,101.491,0,0,0,1617.32,403.568ZM1446.65,734.316c0.7,0.384,16.31-6.075,21.71-14.477,6.28-9.766,2.41-21.715,2.41-21.715a103.787,103.787,0,0,1,14.48,16.889,105.3,105.3,0,0,1,9.65,19.3S1445.12,733.486,1446.65,734.316Z"/>
    </g>
  </g>
</svg>
