<svg id="Group_1_copy" data-name="Group 1 copy" xmlns="http://www.w3.org/2000/svg" width="2431" height="1500" viewBox="0 0 2431 1500">
  <defs>
    <style>
      .cls-1, .cls-2 {
        fill: #fff;
      }

      .cls-1 {
        fill-rule: evenodd;
      }

      .cls-2 {
        font-size: 92px;
        font-family: Azonix;
        text-transform: uppercase;
      }
    </style>
  </defs>
  <path class="cls-1" d="M510.7,295.532c0.195-.62-30.442,230.143-138.672,326.479C265.068,717.217,154.815,770.587,67.295,902.658c-87.47,131.992,72.764,363.822,72.764,363.822S15.3,1069.41,137.785,916.3,277.223,773.529,394.733,647.984,510.67,295.63,510.7,295.532Zm0,6.822V1148.24s-25.319-262.516-36.382-429.766C466.72,603.6,472.045,507,472.045,507ZM533.44,263.7V1255.11s34.108-325.128,34.108-557.1S533.44,263.7,533.44,263.7Z"/>
  <path class="cls-1" d="M108.225,952.683s52.288-80.147,140.963-137.559,213.762-92.1,213.762-92.1-130.621,14.707-220.356,50.364c-81.55,32.4-123,86.069-123,86.069Z"/>
  <path id="Shape_4_copy_2" data-name="Shape 4 copy 2" class="cls-1" d="M78.664,1080.02s49.1-267.251,729.915-322.89c824.341-67.37,1600.811,25.012,1600.811,25.012S1678.28,664.925,808.579,720.748C126.7,764.515,55.925,993.613,55.925,993.613,56.9,998.47,78.664,1080.02,78.664,1080.02Z"/>
  <text id="tlantykron" class="cls-2" transform="matrix(2.274, 0, 0, 2.274, 682.289, 931.572)">tlantykron</text>
  <path class="cls-1" d="M1281.55,718.474c0.04-.191,53.17-10.43,75.03-54.573,22.32-45.054-17.8-127.8-18.19-127.337,0,0,36.52,38.355,40.91,111.422,1.81,30.205-9.84,43.378-22.72,54.571S1281.55,718.474,1281.55,718.474ZM1412.46,525.96s-24.28,11.375-29.18,27.854,14.59,116.721,14.59,116.721c-0.18.024-7.59-96.829-3.1-110.691C1399.13,546.354,1412.46,525.96,1412.46,525.96Zm-5.85,67.428s-8.41,70.215,9.09,93.251,70.52,25.013,70.52,25.013-45.75-9.6-61.42-40.93S1406.61,593.388,1406.61,593.388Zm-61.8-97.935s-34.17-37.11-42.44-53.055,2.65-67.645,2.65-67.645-13.98,34.031-25.2,41.118-54.38-61.013-54.38-61.013,37.38,70.841,66.32,96.825S1344.81,495.453,1344.81,495.453Zm11.94,33.16s-39.47-29.591-66.32-39.792-83.56-10.61-83.56-10.61,57.19,12.695,66.32,15.916-26.53,17.243-26.53,17.243,28.17-4.232,46.43-5.306S1356.75,528.613,1356.75,528.613Zm14.59,11.937s19.71-31.617,23.88-53.055-22.55-68.971-22.55-68.971,29.53,51.511,38.46,43.77,35.82-46.423,35.82-46.423S1423.69,466,1405.83,492.8,1371.34,540.55,1371.34,540.55Zm42.45-30.507a193.507,193.507,0,0,1,37.13-15.916c21.34-6.435,46.43-9.285,46.43-9.285s-32.86,8.684-35.81,14.591,21.22,23.874,21.22,23.874-17.41-12.621-33.16-14.59S1413.79,510.043,1413.79,510.043Zm59.68-55.707s29-51.214,61.22-37.345,20.66,25.469,21.02,25.407c0.5-.084,52.25-10.8,45.09,42.444s-35.81,46.424-35.81,46.424,21.33,21.648-17.24,37.138c-33.84,13.587-59.69-33.159-59.69-33.159s18.71,13.8,25.2,13.263,22.01-15.456,22.55-25.2-33.16-14.59-33.16-14.59,31.19,1.354,37.14-13.264-10.93-27.8-21.22-30.506-31.83,10.611-31.83,10.611,15.53-18.272,7.95-19.9S1473.47,454.336,1473.47,454.336Zm-126-18.569s-37.94-16.365-30.51-39.792c2.36-7.45,19.9-15.916,19.9-15.916s-12.77-39.185,10.61-54.381c43.68-28.4,80.91,29.18,80.91,29.18s15.53-27.14,54.38-18.569,30.5,62.339,30.5,62.339a111.081,111.081,0,0,0-21.22,10.611c-10.07,6.712-25.2,29.18-25.2,29.18s25.59-40.5-13.26-49.076-46.43,25.2-46.43,25.2-6.12-33.405-31.83-22.549-10.61,33.16-10.61,33.16-14.91-17.252-19.9-11.938C1339.85,418.515,1347.47,435.767,1347.47,435.767Zm-30.51-67.645a93.994,93.994,0,0,1,1.96-39.12c6.05-21.625,24.53-27.486,24.57-27.2,0,0,15.3-34.135-43.77-39.791s-51.73,42.444-51.73,42.444-30.71-57.74-70.3-22.549-5.3,55.708-5.3,55.708-27.86,9.978-27.86,34.486,12.07,44.535,38.47,58.36,66.32,15.917,66.32,15.917-43.98-22.265-47.75-41.118,21.22-14.59,21.22-14.59-25.14-29.036,0-50.4,41.12,34.485,41.12,34.485-5.45-30.784,15.91-35.812S1316.96,368.122,1316.96,368.122Zm-88.87,90.193-37.13-5.306-30.51-17.242s-26.23-11.552-37.14,18.569,55.71,47.749,55.71,47.749-28.9,17.636-15.92,35.812,45.37,36.395,70.3,26.528,26.53-31.833,26.53-31.833-17.12,5.313-35.82-6.632,10.62-23.875,10.62-23.875-37.6,1.11-46.43-21.222S1228.09,458.315,1228.09,458.315Zm137.95-160.491s19.72,0.3,30.5,9.284c12.91,10.754,30.51,22.549,30.51,22.549s17.52-12.5,46.42-13.264,41.12,18.569,41.12,18.569c-0.03.335,20.58-35.644-6.62-55.657-26.5-19.5-61.02-4.029-61.02-4.029s8.49-40.568-37.14-34.486S1366.04,297.824,1366.04,297.824Zm160.49,102.131s-0.24-13.816-1.33-26.528c-0.88-10.227-2.65-19.9-2.65-19.9s6.75-6.179,10.61-13.263a53.632,53.632,0,0,0,5.3-15.917s32.03-6.718,39.61,10.811c6.84,15.827-2.55,35.266-2.47,35.612,0,0,18.57,2.231,18.57,31.833s-23.87,19.9-23.87,19.9-10.45-9.039-21.22-14.59A95.783,95.783,0,0,0,1526.53,399.955Zm-160.85,311.7c0.66,0.362,15.37-5.726,20.46-13.643,5.92-9.2,2.28-20.465,2.28-20.465a98.022,98.022,0,0,1,13.64,15.917,99.325,99.325,0,0,1,9.1,18.191S1364.24,710.87,1365.68,711.652Z"/>
</svg>
